<?xml version="1.0" encoding="utf-8"?>
<!-- Generator: Adobe Illustrator 25.0.0, SVG Export Plug-In . SVG Version: 6.00 Build 0)  -->
<svg version="1.1" id="レイヤー_1" xmlns="http://www.w3.org/2000/svg" xmlns:xlink="http://www.w3.org/1999/xlink" x="0px"
	 y="0px" viewBox="0 0 190.96 53.56" style="enable-background:new 0 0 190.96 53.56;" xml:space="preserve">
<style type="text/css">
	.st0{fill:#FFFFFF;}
	.st1{fill:#D9E021;}
</style>
<g>
	<path class="st0" d="M70.71,26.63c0.61-0.51,1.3-1.29,2.07-2.34c0.77-1.05,1.43-2.33,2-3.84c0.56-1.51,0.84-3.21,0.84-5.1
		c0-2.86-0.69-5.44-2.07-7.71c-1.38-2.28-3.24-4.09-5.56-5.45c-2.33-1.35-4.87-2.03-7.64-2.03h-15.5c-0.21,0-0.31,0.1-0.31,0.31
		l-0.03,8.9h9.23h6.6c1.64,0,3.06,0.59,4.26,1.77c1.2,1.18,1.8,2.58,1.8,4.22c0,1.69-0.61,3.12-1.84,4.3
		c-1.23,1.18-2.64,1.76-4.22,1.76h-6.6h-9.27l-0.09,31.77c0,0.26,0.1,0.38,0.31,0.38h8.67c0.2,0,0.31-0.13,0.31-0.38l0.08-22.56
		h5.06c1.89,0,3.49,0.68,4.8,2.03c1.3,1.36,1.96,2.95,1.96,4.8v15.88c0,0.15,0.1,0.23,0.31,0.23h8.67c0.26,0,0.38-0.13,0.38-0.38
		l-0.08-15.73C74.85,33.31,73.47,29.7,70.71,26.63z"/>
	<g>
		<path class="st0" d="M90.46,53.56c-0.26,0-0.38-0.13-0.38-0.38l0.08-37.69c0-0.2,0.1-0.31,0.31-0.31h8.59
			c0.2,0,0.31,0.1,0.31,0.31l0.08,37.69c0,0.26-0.1,0.38-0.31,0.38H90.46z"/>
		<path class="st1" d="M90.46,9.08c-0.26,0-0.38-0.13-0.38-0.38l0.08-8.39c0-0.2,0.1-0.31,0.31-0.31h8.59c0.2,0,0.31,0.1,0.31,0.31
			l0.08,8.39c0,0.26-0.1,0.38-0.31,0.38H90.46z"/>
	</g>
	<g>
		<path class="st0" d="M187.22,9.02l3.75-8.55c0-0.2-0.13-0.31-0.38-0.31h-32.91c-0.2,0-0.31,0.1-0.31,0.31l-0.08,8.55H187.22z"/>
		<path class="st0" d="M167.65,14.27v38.91c0,0.26,0.1,0.38,0.31,0.38h8.67c0.2,0,0.31-0.13,0.31-0.38l-0.07-38.91H167.65z"/>
	</g>
	<g>
		<path class="st0" d="M122.43,26.25l-0.02-0.92l0.02,0.04V2.52V0l-7.92,0.16c-0.41,0-0.61,0.21-0.61,0.61l0.08,52.26
			c0,0.36,0.2,0.54,0.61,0.54h7.67c0.06,0,0.12,0,0.17-0.01V26.25z"/>
		<path class="st0" d="M142.75,0.77c0-0.41-0.15-0.61-0.46-0.61h-7.6c-0.46,0-0.69,0.21-0.69,0.61l0.38,29.62l-6.69-15.61v21.77
			l8,17.01h6.75c0.26,0,0.38-0.15,0.38-0.46L142.75,0.77z"/>
	</g>
	<g>
		<path class="st0" d="M29.93,9.02l5.62-8.55c0-0.2-0.13-0.31-0.38-0.31H0.38c-0.2,0-0.31,0.1-0.31,0.31L0,9.02H29.93z"/>
		<path class="st0" d="M10.36,14.27v38.91c0,0.26,0.1,0.38,0.31,0.38h8.67c0.2,0,0.31-0.13,0.31-0.38l-0.07-38.91H10.36z"/>
	</g>
</g>
</svg>
