<?xml version="1.0" encoding="utf-8"?>
<!-- Generator: Adobe Illustrator 25.0.0, SVG Export Plug-In . SVG Version: 6.00 Build 0)  -->
<svg version="1.1" id="レイヤー_1" xmlns="http://www.w3.org/2000/svg" xmlns:xlink="http://www.w3.org/1999/xlink" x="0px"
	 y="0px" viewBox="0 0 11.44 107.41" style="enable-background:new 0 0 11.44 107.41;" xml:space="preserve">
<style type="text/css">
	.st0{fill:#FFFFFF;}
</style>
<g>
	<g>
		<g>
			<path class="st0" d="M0.22,0.82c0.15-0.26,0.35-0.46,0.61-0.61C1.09,0.07,1.39,0,1.72,0h0.25l0.11,1.02H1.82
				c-0.25,0-0.45,0.06-0.6,0.18S1,1.49,1,1.7c0,0.21,0.06,0.37,0.18,0.5C1.3,2.32,1.46,2.38,1.67,2.38c0.23,0,0.44-0.07,0.65-0.2
				C2.53,2.05,2.81,1.8,3.18,1.41c0.49-0.52,0.9-0.88,1.23-1.07c0.33-0.19,0.68-0.29,1.07-0.29c0.53,0,0.95,0.14,1.25,0.43
				C7.04,0.78,7.2,1.17,7.2,1.67S7.04,2.56,6.73,2.85C6.42,3.14,6,3.28,5.47,3.28H5.29L5.18,2.26h0.2c0.27,0,0.47-0.05,0.61-0.15
				C6.13,2.01,6.2,1.87,6.2,1.68S6.14,1.35,6.03,1.25S5.75,1.1,5.53,1.1c-0.22,0-0.43,0.07-0.63,0.2S4.4,1.69,4.02,2.07
				C3.5,2.59,3.08,2.95,2.76,3.13C2.45,3.33,2.1,3.42,1.72,3.42c-0.33,0-0.63-0.07-0.89-0.21C0.57,3.06,0.37,2.86,0.22,2.6
				C0.07,2.34,0,2.04,0,1.71S0.07,1.08,0.22,0.82z"/>
			<path class="st0" d="M0.46,6.69c0.31-0.31,0.71-0.46,1.2-0.46h3.88c0.49,0,0.89,0.15,1.2,0.46C7.05,7,7.2,7.4,7.2,7.89
				s-0.15,0.89-0.46,1.2s-0.71,0.46-1.2,0.46H4.72V8.51h0.82c0.2,0,0.36-0.06,0.48-0.17S6.2,8.08,6.2,7.9
				c0-0.18-0.06-0.33-0.18-0.44S5.74,7.29,5.54,7.29H1.66c-0.2,0-0.36,0.06-0.48,0.17S1,7.72,1,7.9c0,0.18,0.06,0.33,0.18,0.44
				s0.28,0.17,0.48,0.17h1v1.04h-1c-0.49,0-0.89-0.15-1.2-0.46S0,8.38,0,7.89S0.15,7,0.46,6.69z"/>
			<path class="st0" d="M0.1,14.9l2.89-0.77v-0.55H0.1v-1.06h7v1.66c0,0.51-0.15,0.91-0.46,1.21c-0.3,0.3-0.71,0.45-1.21,0.45H4.66
				c-0.32,0-0.6-0.06-0.85-0.19c-0.25-0.13-0.44-0.31-0.58-0.54L0.1,16V14.9z M3.99,13.58v0.55c0,0.21,0.06,0.37,0.17,0.48
				s0.27,0.17,0.48,0.17h0.81c0.21,0,0.37-0.06,0.48-0.17s0.17-0.27,0.17-0.48v-0.55H3.99z"/>
			<path class="st0" d="M0.46,19.25c0.31-0.31,0.72-0.47,1.22-0.47h3.82c0.51,0,0.92,0.16,1.22,0.47c0.31,0.31,0.46,0.72,0.46,1.23
				s-0.15,0.92-0.46,1.23c-0.31,0.31-0.72,0.47-1.22,0.47H1.69c-0.51,0-0.92-0.16-1.22-0.47C0.15,21.4,0,20.99,0,20.48
				S0.15,19.56,0.46,19.25z M1.18,20.95c0.12,0.11,0.29,0.17,0.51,0.17h3.82c0.22,0,0.39-0.06,0.51-0.17s0.18-0.27,0.18-0.47
				s-0.06-0.36-0.18-0.47c-0.12-0.11-0.29-0.17-0.51-0.17H1.69c-0.22,0-0.39,0.06-0.51,0.17C1.06,20.12,1,20.28,1,20.48
				S1.06,20.84,1.18,20.95z"/>
			<path class="st0" d="M7.1,25.25v1.06h-6v1.89h-1v-2.95H7.1z"/>
			<path class="st0" d="M7.1,31.02v1.06h-6v1.89h-1v-2.95H7.1z"/>
			<path class="st0" d="M7.1,40.79v1.66c0,0.51-0.15,0.91-0.46,1.21s-0.71,0.45-1.21,0.45H1.77c-0.51,0-0.91-0.15-1.21-0.45
				c-0.3-0.3-0.46-0.7-0.46-1.21v-1.66H7.1z M1.1,42.4c0,0.21,0.06,0.37,0.17,0.48s0.27,0.17,0.48,0.17h3.7
				c0.21,0,0.37-0.06,0.48-0.17S6.1,42.61,6.1,42.4v-0.55h-5V42.4z"/>
			<path class="st0" d="M0.46,47.55c0.31-0.31,0.72-0.47,1.22-0.47h3.82c0.51,0,0.92,0.16,1.22,0.47c0.31,0.31,0.46,0.72,0.46,1.23
				s-0.15,0.92-0.46,1.23c-0.31,0.31-0.72,0.47-1.22,0.47H1.69c-0.51,0-0.92-0.16-1.22-0.47C0.15,49.7,0,49.29,0,48.78
				S0.15,47.86,0.46,47.55z M1.18,49.25c0.12,0.11,0.29,0.17,0.51,0.17h3.82c0.22,0,0.39-0.06,0.51-0.17s0.18-0.27,0.18-0.47
				s-0.06-0.36-0.18-0.47c-0.12-0.11-0.29-0.17-0.51-0.17H1.69c-0.22,0-0.39,0.06-0.51,0.17C1.06,48.42,1,48.58,1,48.78
				S1.06,49.14,1.18,49.25z"/>
			<path class="st0" d="M7.1,58.74l-7-1.03v-1.17l4.61-0.56L0.1,55.42v-1.17l7-1.03v1.07l-4.73,0.58l4.73,0.58v1.08l-4.73,0.58
				l4.73,0.58V58.74z"/>
			<path class="st0" d="M7.1,61.57v1.17l-4.7,1.35h4.7v1.04h-7v-1.12l4.48-1.4H0.1v-1.04H7.1z"/>
		</g>
	</g>
	<polygon class="st0" points="3.07,107.41 3.07,71.34 4.07,71.34 4.07,104.88 10.71,97.76 11.44,98.44 	"/>
</g>
</svg>
