<?xml version="1.0" encoding="utf-8"?>
<!-- Generator: Adobe Illustrator 25.0.0, SVG Export Plug-In . SVG Version: 6.00 Build 0)  -->
<svg version="1.1" id="レイヤー_1" xmlns="http://www.w3.org/2000/svg" xmlns:xlink="http://www.w3.org/1999/xlink" x="0px"
	 y="0px" viewBox="0 0 426.33 398.42" style="enable-background:new 0 0 426.33 398.42;" xml:space="preserve">
<style type="text/css">
	.st0{fill:#0A0A0A;}
	.st1{fill:#FFFFFF;}
</style>
<g>
	<g>
		<rect x="0" class="st0" width="426.33" height="398.42"/>
	</g>
	<g>
		<g>
			<path class="st1" d="M153.96,277.37c1.05-0.14,2.26-0.4,2.81-0.65l0.71,0.97c-0.3,0.08-0.54,0.13-0.71,0.18
				c-0.54,0.14-1.3,0.3-2.04,0.41v1.95h2.93c0.23,0,0.68-0.02,0.92-0.04v1.12c-0.26-0.02-0.62-0.03-0.9-0.03h-2.97
				c-0.14,1.95-0.95,3.46-2.83,4.57l-1.09-0.75c1.71-0.8,2.61-2,2.77-3.82h-3.17c-0.34,0-0.73,0.01-1,0.03v-1.13
				c0.26,0.03,0.65,0.05,0.99,0.05h3.21v-1.8c-1.09,0.1-2.29,0.13-3.09,0.14l-0.28-1.01C151.07,277.58,152.75,277.55,153.96,277.37z
				"/>
			<path class="st1" d="M166.15,279.22c0.07,0.25,0.19,0.68,0.33,1.2c1.49-0.29,3.21-0.62,3.61-0.7c0.17-0.03,0.35-0.1,0.47-0.15
				l0.7,0.5c-0.46,0.95-1.58,2.53-2.35,3.31l-0.96-0.48c0.63-0.56,1.43-1.54,1.77-2.15c-0.26,0.05-1.61,0.32-2.99,0.6
				c0.43,1.55,0.94,3.39,1.1,3.91c0.07,0.2,0.19,0.6,0.26,0.81l-1.19,0.3c-0.03-0.26-0.09-0.58-0.18-0.87
				c-0.15-0.54-0.65-2.39-1.06-3.93c-0.99,0.2-1.86,0.38-2.17,0.45l-0.26-1.06c0.32-0.02,0.6-0.07,0.96-0.12
				c0.15-0.02,0.62-0.11,1.22-0.22c-0.14-0.52-0.26-0.94-0.33-1.17c-0.08-0.28-0.18-0.52-0.29-0.7l1.18-0.29
				C166.02,278.68,166.08,278.94,166.15,279.22z"/>
			<path class="st1" d="M178.74,281.95l-1.04,0.38c-0.19-0.58-0.76-2.08-1-2.51l1.03-0.37
				C177.99,279.96,178.54,281.34,178.74,281.95z M184.1,280.23c-0.3,1.18-0.77,2.34-1.54,3.32c-1.01,1.3-2.38,2.19-3.62,2.66
				l-0.91-0.94c1.24-0.35,2.7-1.19,3.61-2.32c0.76-0.95,1.31-2.38,1.46-3.76l1.21,0.38C184.21,279.86,184.15,280.05,184.1,280.23z
				 M181.18,281.27l-1.03,0.37c-0.13-0.52-0.63-1.89-0.88-2.42l1.03-0.34C180.49,279.34,181.03,280.78,181.18,281.27z"/>
			<path class="st1" d="M191.67,277.93c0-0.35-0.03-0.86-0.1-1.23h1.35c-0.03,0.36-0.08,0.85-0.08,1.23v1.72
				c1.46,0.44,3.55,1.22,4.65,1.76l-0.5,1.2c-1.16-0.63-2.95-1.32-4.16-1.72v3.4c0,0.34,0.03,1.01,0.09,1.41h-1.35
				c0.05-0.39,0.09-0.98,0.09-1.41v-6.36H191.67z"/>
			<path class="st1" d="M211.13,282.85c-0.32,0.66-0.74,1.23-1.27,1.74c0.28,0.47,0.59,0.73,0.95,0.73c0.3,0,0.41-0.24,0.46-1.17
				c0.18,0.19,0.48,0.36,0.68,0.45c-0.15,1.23-0.44,1.58-1.21,1.58c-0.64,0-1.14-0.37-1.55-1.02c-0.54,0.4-1.13,0.74-1.79,1
				c-0.12-0.18-0.36-0.5-0.55-0.66c0.75-0.28,1.41-0.64,1.97-1.1c-0.23-0.55-0.41-1.21-0.55-1.96h-1.5
				c-0.02,0.19-0.04,0.36-0.07,0.54c0.52,0.33,1.1,0.74,1.41,1.03l-0.54,0.7c-0.23-0.23-0.64-0.56-1.04-0.86
				c-0.23,0.92-0.66,1.72-1.44,2.29c-0.13-0.21-0.38-0.54-0.61-0.67c0.98-0.68,1.27-1.83,1.38-3.04h-0.74v-0.55l-0.37,0.53
				c-0.13-0.34-0.41-0.93-0.67-1.45v5.19h-0.92v-4.63c-0.3,1.01-0.66,1.97-1.06,2.6c-0.11-0.26-0.33-0.65-0.47-0.86
				c0.59-0.91,1.16-2.54,1.44-3.94h-1.21v-0.94h1.3v-2.32h0.92v2.32h1.09v0.94h-1.09v0.47c0.28,0.4,0.91,1.44,1.13,1.83h2.93
				c-0.23-1.61-0.32-3.51-0.33-5.54h0.9c-0.01,0.64,0,1.27,0.01,1.87l0.35-0.48c0.08,0.05,0.14,0.11,0.22,0.17
				c0.23-0.45,0.47-1.04,0.62-1.47l0.79,0.3c-0.31,0.54-0.64,1.16-0.9,1.6c0.14,0.14,0.29,0.28,0.38,0.41
				c0.24-0.42,0.46-0.83,0.63-1.18l0.73,0.34c-0.45,0.75-1.01,1.63-1.52,2.31l0.93-0.07c-0.08-0.19-0.15-0.37-0.24-0.54l0.59-0.24
				c0.29,0.52,0.56,1.18,0.63,1.61L211.3,281c-0.02-0.13-0.07-0.29-0.11-0.44c-0.38,0.04-0.76,0.08-1.11,0.12
				c0.36,0.21,0.8,0.52,1.02,0.75l-0.23,0.22h0.88v0.81h-2.6c0.1,0.48,0.21,0.92,0.34,1.3c0.32-0.37,0.57-0.78,0.77-1.21
				L211.13,282.85z M205.36,280.13c0.23-0.3,0.46-0.65,0.7-1.02c-0.28-0.34-0.74-0.77-1.13-1.08l0.41-0.56
				c0.08,0.05,0.14,0.11,0.22,0.18c0.23-0.47,0.46-1.06,0.62-1.49l0.78,0.31c-0.3,0.54-0.62,1.16-0.89,1.59
				c0.14,0.13,0.27,0.28,0.38,0.4c0.24-0.42,0.46-0.83,0.63-1.18l0.73,0.34c-0.47,0.79-1.07,1.73-1.61,2.45l0.85-0.06
				c-0.07-0.21-0.15-0.42-0.23-0.6l0.59-0.21c0.26,0.51,0.51,1.19,0.56,1.61l-0.64,0.26c-0.01-0.11-0.04-0.23-0.08-0.36
				c-0.76,0.09-1.47,0.17-2.12,0.22l-0.14-0.78L205.36,280.13z M209.18,279.99c0.2-0.25,0.41-0.56,0.62-0.88
				c-0.26-0.32-0.68-0.73-1.07-1.03c0.03,1.32,0.13,2.52,0.29,3.55h1.24c-0.22-0.19-0.5-0.4-0.74-0.54l0.46-0.43l-0.99,0.11
				l-0.15-0.76L209.18,279.99z"/>
			<path class="st1" d="M218.94,276.82c0.56,0.76,1.15,1.78,1.38,2.48l-0.91,0.37c-0.06-0.18-0.14-0.38-0.24-0.62
				c-1.51,0.09-3.03,0.19-4.15,0.25l-0.09-0.98c0.25-0.01,0.53-0.02,0.84-0.03c0.35-0.69,0.71-1.58,0.91-2.26l1.07,0.24
				c-0.28,0.66-0.61,1.36-0.91,1.97l1.88-0.09c-0.2-0.35-0.41-0.7-0.63-1.01L218.94,276.82z M219.57,285.06
				c0,0.48-0.1,0.75-0.42,0.91c-0.34,0.15-0.83,0.17-1.5,0.17c-0.06-0.26-0.2-0.66-0.34-0.92c0.46,0.02,0.91,0.02,1.07,0.01
				c0.14,0,0.18-0.04,0.18-0.18v-1.04h-2.02v2.14h-0.96v-6.18h3.99V285.06z M216.53,280.83v0.78h2.02v-0.78H216.53z M218.55,283.22
				v-0.84h-2.02v0.84H218.55z M221.95,280.9c-1.16,0-1.44-0.29-1.44-1.33v-3.48h1.02v1.72c0.85-0.3,1.71-0.66,2.29-0.97l0.66,0.74
				c-0.85,0.38-1.95,0.77-2.95,1.07v0.91c0,0.36,0.08,0.43,0.54,0.43h1.5c0.4,0,0.46-0.18,0.51-1.2c0.22,0.17,0.64,0.32,0.92,0.37
				c-0.11,1.38-0.41,1.74-1.34,1.74L221.95,280.9L221.95,280.9z M223.65,285.18c0.43,0,0.51-0.21,0.55-1.39
				c0.23,0.15,0.64,0.32,0.91,0.38c-0.12,1.5-0.41,1.89-1.38,1.89h-1.77c-1.16,0-1.45-0.3-1.45-1.32v-3.58h1.01v1.63
				c0.9-0.32,1.82-0.72,2.41-1.1l0.66,0.75c-0.84,0.48-2.01,0.88-3.07,1.2v1.09c0,0.37,0.09,0.44,0.57,0.44L223.65,285.18
				L223.65,285.18z"/>
			<path class="st1" d="M232.57,277.73c1.08-0.04,2.23-0.14,3.23-0.32v1.02c-1.08,0.15-2.43,0.25-3.62,0.29
				c-0.24,0.52-0.54,1.03-0.85,1.45c0.36-0.21,0.98-0.33,1.41-0.33c0.69,0,1.27,0.32,1.47,0.94c0.68-0.32,1.24-0.55,1.76-0.79
				c0.37-0.17,0.69-0.31,1.05-0.48l0.45,1.01c-0.32,0.1-0.79,0.28-1.12,0.41c-0.56,0.22-1.28,0.51-2.05,0.86
				c0.01,0.63,0.02,1.51,0.03,2.04h-1.05c0.02-0.38,0.03-1.01,0.04-1.55c-0.95,0.52-1.54,1.02-1.54,1.67c0,0.75,0.72,0.9,1.83,0.9
				c0.89,0,2.09-0.11,3.06-0.29l-0.03,1.11c-0.79,0.1-2.07,0.2-3.06,0.2c-1.64,0-2.92-0.39-2.92-1.75c0-1.35,1.32-2.21,2.6-2.86
				c-0.14-0.38-0.5-0.55-0.9-0.55c-0.67,0-1.36,0.35-1.83,0.79c-0.32,0.31-0.64,0.71-1,1.18l-0.95-0.7
				c1.29-1.21,2.04-2.28,2.49-3.21c-0.11,0-0.22,0-0.32,0c-0.46,0-1.22-0.02-1.84-0.07v-1.03c0.58,0.09,1.36,0.12,1.89,0.12
				c0.21,0,0.43,0,0.65-0.01c0.14-0.45,0.23-0.91,0.25-1.31l1.14,0.09C232.8,276.85,232.71,277.26,232.57,277.73z"/>
			<path class="st1" d="M244.81,276.36c-0.31,0.74-0.67,1.5-1.09,2.21v7.65h-0.97v-6.17c-0.34,0.46-0.7,0.89-1.07,1.25
				c-0.1-0.24-0.38-0.79-0.56-1.03c1.08-1.01,2.11-2.61,2.73-4.22L244.81,276.36z M248.32,282.19c-0.09,0.73-0.26,1.41-0.67,2.01
				c1.06,0.55,2.39,0.9,3.91,1.06c-0.2,0.22-0.47,0.64-0.6,0.92c-1.52-0.22-2.83-0.63-3.89-1.25c-0.55,0.52-1.31,0.95-2.38,1.27
				c-0.12-0.23-0.41-0.64-0.63-0.86c0.98-0.23,1.68-0.57,2.17-0.99c-0.59-0.47-1.09-1.04-1.47-1.72l0.84-0.26
				c0.31,0.51,0.71,0.95,1.23,1.32c0.29-0.46,0.43-0.97,0.5-1.5h-2.55v-3.09h2.62v-0.95h-2.89v-0.93h2.89v-1.09h1.01v1.09h3.04v0.93
				h-3.04v0.95h2.72v3.09L248.32,282.19L248.32,282.19z M247.37,281.34V281v-1.06h-1.68v1.4H247.37z M248.39,279.95v1.06
				c0,0.11,0,0.23,0,0.34h1.74v-1.4H248.39z"/>
			<path class="st1" d="M256.84,280.52c0.76-0.24,2.6-0.88,3.91-0.88c1.64,0,2.78,0.97,2.78,2.54c0,2.07-1.92,3.27-5.11,3.46
				l-0.46-1.07c2.44-0.08,4.43-0.75,4.43-2.41c0-0.89-0.69-1.53-1.74-1.53c-1.33,0-3.64,0.96-4.44,1.3l-0.46-1.14
				C256.07,280.74,256.5,280.62,256.84,280.52z"/>
			<path class="st1" d="M269.16,277.82c0.8-0.08,2.76-0.26,4.79-0.43c1.18-0.1,2.28-0.17,3.04-0.2v1.11c-0.6,0-1.56,0.01-2.13,0.17
				c-1.46,0.44-2.44,2-2.44,3.31c0,2,1.87,2.67,3.7,2.75l-0.41,1.17c-2.16-0.1-4.41-1.25-4.41-3.69c0-1.65,0.98-2.99,1.87-3.58
				c-1.11,0.12-3.67,0.39-4.9,0.65l-0.12-1.21C268.57,277.87,268.95,277.84,269.16,277.82z"/>
			<path class="st1" d="M165.47,302.81v1h-9.75v-1h4.29v-2.43h-3.27v-0.99h3.27v-2.19h-3.8v-1h4.62c-0.45-0.48-1.17-1.1-1.77-1.53
				l0.84-0.58c0.7,0.47,1.61,1.21,2.06,1.73l-0.54,0.38h3.5v1h-3.78v2.19h3.3v0.99h-3.3v2.43L165.47,302.81L165.47,302.81z"/>
			<path class="st1" d="M172.05,294.4c-0.3,0.78-0.67,1.57-1.09,2.32v7.43h-0.97v-5.91c-0.31,0.42-0.63,0.8-0.95,1.14
				c-0.1-0.24-0.4-0.79-0.56-1.03c1.03-1.02,2.01-2.63,2.61-4.24L172.05,294.4z M178.77,303.7h-5.2v0.44h-0.98v-4.63
				c-0.25,0.31-0.51,0.58-0.77,0.81c-0.17-0.18-0.54-0.54-0.77-0.7c0.84-0.68,1.63-1.74,2.08-2.84h-0.8v-2.28h0.94v1.41h1.56v-1.76
				h1.01v1.76h1.66v-1.41h0.99v2.28h-5.31l0.92,0.26c-0.14,0.33-0.31,0.67-0.5,0.99h1.71c0.17-0.4,0.32-0.86,0.4-1.2l1.06,0.24
				c-0.15,0.32-0.31,0.66-0.47,0.96h2.37v0.8h-2.42v0.83h2.1v0.76h-2.1v0.85h2.1v0.76h-2.1v0.86h2.54v0.81H178.77z M175.25,298.84
				h-1.68v0.83h1.68V298.84z M175.25,300.42h-1.68v0.85h1.68V300.42z M173.56,302.88h1.68v-0.86h-1.68L173.56,302.88L173.56,302.88z
				"/>
			<path class="st1" d="M187.81,298.4c-0.5,0.37-1.01,0.7-1.54,1.03h4.27v4.7h-1.06v-0.3h-4.15v0.34h-1.01v-3.7
				c-0.62,0.29-1.24,0.55-1.87,0.79c-0.12-0.23-0.44-0.64-0.63-0.85c1.52-0.51,2.98-1.19,4.3-2.02h-4.03v-0.91h3.64v-1.23h-2.68
				v-0.89h2.68v-1.29h1.01v1.29h2.56v0.48c0.44-0.45,0.85-0.92,1.2-1.42l0.88,0.46c-0.69,0.95-1.52,1.8-2.43,2.6h2.88v0.91h-4.02
				V298.4z M189.48,300.28h-4.15v0.91h4.15V300.28z M189.48,302.96v-0.97h-4.15v0.97H189.48z M187.47,297.48
				c0.52-0.38,0.99-0.8,1.44-1.23h-2.16v1.23H187.47z"/>
			<path class="st1" d="M197.5,295.8c-0.19,0.9-0.54,2.97-0.54,4.15c0,0.38,0.02,0.77,0.07,1.18c0.19-0.45,0.41-0.99,0.58-1.4
				l0.55,0.44c-0.29,0.84-0.67,2.01-0.78,2.56c-0.03,0.15-0.07,0.38-0.05,0.51c0,0.11,0.01,0.28,0.02,0.41l-1,0.07
				c-0.22-0.77-0.41-2.07-0.41-3.55c0-1.64,0.35-3.51,0.47-4.39c0.04-0.28,0.09-0.62,0.1-0.91l1.22,0.11
				C197.65,295.16,197.54,295.6,197.5,295.8z M200.13,301.31c0,0.5,0.39,0.9,1.72,0.9c0.99,0,1.82-0.09,2.74-0.3l0.02,1.18
				c-0.69,0.13-1.61,0.22-2.78,0.22c-1.87,0-2.73-0.65-2.73-1.72c0-0.4,0.05-0.81,0.19-1.35l0.99,0.09
				C200.17,300.72,200.13,301.01,200.13,301.31z M204.27,295.76v1.12c-1.25,0.12-3.33,0.13-4.61,0l-0.01-1.12
				C200.91,295.95,203.12,295.91,204.27,295.76z"/>
			<path class="st1" d="M210.06,296.45c-0.13,0.65-0.43,1.34-1.02,1.89c-0.14-0.21-0.46-0.52-0.68-0.65c0.79-0.72,0.91-1.6,0.91-2.3
				v-1.06l0.71,0.2c0.9-0.11,1.87-0.26,2.44-0.45l0.65,0.63c-0.8,0.23-1.9,0.4-2.9,0.48v0.23c0,0.08,0,0.15-0.01,0.24h3.17v0.78
				h-1.18v1.25h-0.9v-1.25L210.06,296.45L210.06,296.45z M212.59,302.84c-0.89,0.54-2.27,1.07-3.37,1.36
				c-0.18-0.2-0.54-0.58-0.77-0.76c1.13-0.22,2.44-0.6,3.2-1.03L212.59,302.84z M209.84,297.92h7.2v4.46h-7.2V297.92z M210.83,299.2
				h5.18v-0.63h-5.18V299.2z M210.83,300.46h5.18v-0.65h-5.18V300.46z M210.83,301.74h5.18v-0.66h-5.18V301.74z M214.47,296.45
				c-0.18,0.52-0.53,1.04-1.16,1.46c-0.11-0.22-0.42-0.55-0.63-0.69c0.9-0.57,1.06-1.26,1.06-1.87v-0.99l0.74,0.18
				c0.97-0.1,1.99-0.25,2.62-0.43l0.66,0.62c-0.86,0.23-2.05,0.4-3.11,0.47v0.2c0,0.09,0,0.18-0.01,0.28h3.62v0.78h-1.52v1.28h-0.93
				v-1.28h-1.34V296.45z M215,302.43c1.18,0.4,2.5,0.9,3.29,1.28l-1.18,0.48c-0.65-0.35-1.8-0.85-2.95-1.24L215,302.43z"/>
			<path class="st1" d="M223.09,298.45v5.72h-1.01v-9.66h4.05v3.94H223.09z M223.09,295.33v0.77h2.07v-0.77H223.09z M225.15,297.65
				v-0.82h-2.07v0.82H225.15z M225.41,302.63v0.64h-0.95v-3.94h4.15v3.3H225.41z M225.41,300.19v1.59h2.24v-1.59H225.41z
				 M231.14,302.87c0,0.62-0.14,0.93-0.54,1.11c-0.41,0.17-1.06,0.18-2.05,0.18c-0.03-0.29-0.2-0.76-0.35-1.05
				c0.69,0.03,1.41,0.02,1.63,0.02c0.21-0.01,0.26-0.08,0.26-0.28v-4.4h-3.1v-3.95h4.15V302.87z M227.97,295.32v0.78h2.12v-0.78
				H227.97z M230.09,297.66v-0.84h-2.12v0.84H230.09z"/>
			<path class="st1" d="M238.05,295.93c-0.05,1.22-0.13,3.76-0.13,5.28c0,1.17,0.71,1.56,1.67,1.56c1.92,0,3.08-1.09,3.87-2.27
				l0.78,0.96c-0.73,1.04-2.21,2.46-4.68,2.46c-1.67,0-2.79-0.71-2.79-2.54c0-1.56,0.11-4.4,0.11-5.46c0-0.46-0.04-0.91-0.12-1.28
				l1.41,0.01C238.1,295.07,238.06,295.54,238.05,295.93z"/>
			<path class="st1" d="M252.28,295.54c-0.03,0.19-0.08,0.41-0.13,0.65c0.67-0.1,1.35-0.22,1.99-0.38v1.09
				c-0.69,0.17-1.46,0.29-2.21,0.37c-0.11,0.47-0.23,0.98-0.35,1.44c-0.4,1.55-1.14,3.82-1.74,5.06l-1.2-0.41
				c0.65-1.12,1.45-3.39,1.87-4.93c0.09-0.34,0.18-0.7,0.26-1.07c-0.32,0.01-0.62,0.02-0.89,0.02c-0.51,0-0.91-0.01-1.31-0.04
				l-0.02-1.08c0.54,0.07,0.92,0.09,1.34,0.09c0.34,0,0.71-0.01,1.1-0.04c0.05-0.33,0.11-0.62,0.13-0.83
				c0.05-0.34,0.07-0.75,0.04-0.99l1.32,0.1C252.42,294.86,252.32,295.32,252.28,295.54z M253.6,301.61c0,0.5,0.3,0.95,1.71,0.95
				c0.73,0,1.47-0.09,2.2-0.22l-0.03,1.11c-0.6,0.08-1.34,0.15-2.18,0.15c-1.79,0-2.76-0.58-2.76-1.67c0-0.46,0.09-0.92,0.19-1.38
				l1.02,0.1C253.65,300.99,253.6,301.33,253.6,301.61z M255.42,297.84c0.64,0,1.3,0.02,1.92,0.09l-0.03,1.06
				c-0.56-0.08-1.21-0.14-1.87-0.14c-0.71,0-1.39,0.04-2.08,0.12v-1.02C253.95,297.88,254.71,297.84,255.42,297.84z"/>
			<path class="st1" d="M264.03,297.27c0.48-1,1.54-2.18,2.87-2.18c1.5,0,2.61,1.47,2.61,3.84c0,3.07-1.91,4.48-4.72,4.99l-0.66-1
				c2.41-0.37,4.21-1.27,4.21-3.99c0-1.72-0.58-2.84-1.63-2.84c-1.34,0-2.56,1.98-2.66,3.43c-0.03,0.36-0.03,0.74,0.04,1.26
				l-1.08,0.08c-0.05-0.42-0.12-1.06-0.12-1.78c0-1.03,0.18-2.54,0.32-3.54c0.05-0.37,0.08-0.74,0.09-1.04l1.2,0.05
				C264.31,295.25,264.09,296.58,264.03,297.27z"/>
			<path class="st1" d="M144.69,313.54v8.6h-1.08v-0.55h-5.57v0.59h-1.02v-8.65h2.77c0.15-0.47,0.29-1.04,0.36-1.47l1.22,0.14
				c-0.18,0.46-0.35,0.94-0.54,1.33L144.69,313.54L144.69,313.54z M138.04,314.51v1.41h5.57v-1.41H138.04z M138.04,316.87v1.41h5.57
				v-1.41H138.04z M143.61,320.64v-1.42h-5.57v1.42H143.61z"/>
			<path class="st1" d="M155.92,312.24c0.7,1.43,2.09,3.05,3.28,3.93c-0.26,0.22-0.66,0.63-0.86,0.91c-0.3-0.25-0.62-0.56-0.92-0.9
				c0,0.1,0,0.33-0.01,0.43c-0.14,3.33-0.3,4.61-0.67,5.04c-0.25,0.32-0.51,0.4-0.9,0.45c-0.37,0.04-1.04,0.03-1.71,0
				c-0.01-0.31-0.15-0.74-0.34-1.03c0.67,0.07,1.3,0.08,1.55,0.08c0.22,0,0.35-0.03,0.47-0.15c0.25-0.26,0.4-1.3,0.51-3.85h-2.54
				c-0.28,2.13-0.98,4.06-3.81,5.09c-0.11-0.26-0.42-0.7-0.65-0.91c2.53-0.84,3.11-2.44,3.34-4.18h-2.06v-0.85
				c-0.32,0.33-0.66,0.63-1,0.89c-0.19-0.22-0.63-0.63-0.87-0.81c1.36-0.92,2.57-2.43,3.26-4.1l1.09,0.32
				c-0.57,1.33-1.4,2.56-2.33,3.55h6.62c-0.91-1-1.82-2.28-2.44-3.5L155.92,312.24z"/>
			<path class="st1" d="M167.6,321.72l-0.65-1.03c0.37-0.03,0.7-0.09,0.98-0.15c1.41-0.32,2.66-1.35,2.66-3.12
				c0-1.6-0.97-2.86-2.66-3.07c-0.15,0.99-0.34,2.06-0.66,3.09c-0.66,2.25-1.57,3.49-2.66,3.49s-2.09-1.21-2.09-3.05
				c0-2.46,2.16-4.58,4.92-4.58c2.64,0,4.31,1.85,4.31,4.15C171.75,319.75,170.28,321.34,167.6,321.72z M164.64,319.61
				c0.5,0,1.01-0.71,1.52-2.41c0.27-0.87,0.47-1.87,0.6-2.84c-1.98,0.32-3.13,2.04-3.13,3.4
				C163.63,319.03,164.17,319.61,164.64,319.61z"/>
			<path class="st1" d="M180.5,315.17c1.14-0.7,2.31-1.73,3.06-2.62l0.92,0.88c-0.84,0.85-1.87,1.69-2.96,2.41v4.57
				c0,0.45,0.02,1.06,0.08,1.3h-1.36c0.03-0.24,0.07-0.85,0.07-1.3v-3.83c-1.15,0.63-2.61,1.27-4.06,1.71l-0.54-1.09
				C177.63,316.68,179.28,315.93,180.5,315.17z"/>
			<path class="st1" d="M189.4,317.53c0.52-0.52,1.43-1.68,2.15-2.54c0.62-0.73,1.2-0.85,1.99-0.09c0.69,0.65,1.59,1.6,2.24,2.29
				c0.75,0.79,1.86,1.99,2.71,2.9l-0.96,1.01c-0.77-0.92-1.72-2.06-2.4-2.85c-0.64-0.74-1.64-1.81-2.08-2.24
				c-0.4-0.38-0.62-0.35-0.96,0.08c-0.48,0.59-1.34,1.75-1.83,2.35c-0.23,0.32-0.48,0.67-0.66,0.92l-1.04-1.07
				C188.87,318.05,189.09,317.84,189.4,317.53z M196.8,315.52l-0.79,0.35c-0.3-0.63-0.64-1.24-1.01-1.77l0.77-0.33
				C196.05,314.2,196.54,315.01,196.8,315.52z M198.27,314.91l-0.78,0.37c-0.31-0.63-0.66-1.23-1.06-1.74l0.77-0.35
				C197.5,313.6,198.02,314.4,198.27,314.91z"/>
			<path class="st1" d="M207.03,318.93c1.77-1.09,3.15-2.74,3.82-4.15l0.67,1.2c-0.79,1.43-2.15,2.93-3.86,3.98
				c-1.11,0.68-2.51,1.33-4.21,1.64l-0.74-1.13C204.54,320.19,205.97,319.58,207.03,318.93z M206.65,315.41l-0.87,0.89
				c-0.57-0.58-1.94-1.78-2.75-2.33l0.8-0.86C204.61,313.62,206.04,314.77,206.65,315.41z"/>
			<path class="st1" d="M218.07,313.93c0-0.35-0.03-0.86-0.1-1.23h1.35c-0.03,0.36-0.08,0.85-0.08,1.23v1.72
				c1.46,0.44,3.55,1.22,4.65,1.76l-0.5,1.2c-1.15-0.63-2.95-1.32-4.16-1.72v3.4c0,0.34,0.03,1.01,0.09,1.41h-1.35
				c0.06-0.39,0.09-0.98,0.09-1.41v-6.36H218.07z"/>
			<path class="st1" d="M230.5,313.8c-0.19,0.9-0.54,2.97-0.54,4.15c0,0.38,0.02,0.77,0.07,1.18c0.19-0.45,0.41-0.99,0.58-1.4
				l0.55,0.44c-0.29,0.84-0.67,2.01-0.78,2.56c-0.03,0.15-0.07,0.38-0.06,0.51c0,0.11,0.01,0.28,0.02,0.41l-1,0.07
				c-0.22-0.77-0.41-2.07-0.41-3.55c0-1.64,0.35-3.51,0.47-4.39c0.04-0.28,0.09-0.62,0.1-0.91l1.22,0.11
				C230.65,313.16,230.54,313.6,230.5,313.8z M233.13,319.31c0,0.5,0.38,0.9,1.72,0.9c0.99,0,1.82-0.09,2.74-0.3l0.02,1.18
				c-0.69,0.13-1.61,0.22-2.78,0.22c-1.87,0-2.73-0.65-2.73-1.72c0-0.4,0.05-0.81,0.19-1.35l0.99,0.09
				C233.17,318.72,233.13,319.01,233.13,319.31z M237.27,313.76v1.12c-1.25,0.12-3.33,0.13-4.61,0l-0.01-1.12
				C233.91,313.95,236.12,313.91,237.27,313.76z"/>
			<path class="st1" d="M245.1,314.7h-3.78v-0.81h3.78V314.7z M244.78,321.55h-2.17v0.48h-0.84v-3.7h3v3.22H244.78z M244.77,316.18
				h-2.98v-0.79h2.98V316.18z M241.78,316.85h2.98v0.8h-2.98V316.85z M244.73,313.24h-2.88v-0.8h2.88V313.24z M242.61,319.16v1.58
				h1.32v-1.58H242.61z M247.82,317.18v-1.75c-0.56,0.83-1.34,1.55-2.13,2h3.96c-0.05,0.41-0.12,0.86-0.19,1.29h1.73l-0.03,0.37
				c-0.12,1.73-0.24,2.45-0.53,2.74c-0.2,0.21-0.38,0.29-0.69,0.31c-0.26,0.02-0.76,0.02-1.28,0c-0.01-0.26-0.12-0.63-0.26-0.86
				c0.47,0.04,0.94,0.04,1.11,0.04c0.17,0.01,0.26,0,0.36-0.1c0.13-0.14,0.23-0.6,0.33-1.69h-0.88c-0.03,0.18-0.05,0.34-0.09,0.5
				l-0.89-0.11c0.1-0.44,0.21-1.02,0.3-1.61h-0.99c-0.15,1.84-0.57,3.13-2.19,3.88c-0.11-0.22-0.37-0.57-0.57-0.74
				c1.35-0.61,1.68-1.65,1.79-3.15h-1.12v-0.81l-0.01,0.01c-0.15-0.23-0.44-0.57-0.65-0.75c0.81-0.36,1.64-1,2.19-1.74h-1.78v-0.87
				h2.52v-0.81c-0.73,0.07-1.45,0.11-2.13,0.13c-0.02-0.21-0.14-0.57-0.24-0.77c1.66-0.09,3.63-0.27,4.74-0.57l0.67,0.74
				c-0.59,0.17-1.32,0.29-2.08,0.37v0.91h2.53v0.87h-1.79c0.54,0.67,1.31,1.29,2.02,1.63c-0.2,0.18-0.51,0.53-0.64,0.75
				c-0.76-0.44-1.56-1.21-2.12-2.02v1.8L247.82,317.18L247.82,317.18z"/>
			<path class="st1" d="M256.84,316.52c0.76-0.24,2.6-0.88,3.91-0.88c1.64,0,2.78,0.97,2.78,2.54c0,2.07-1.91,3.27-5.1,3.46
				l-0.46-1.07c2.44-0.08,4.43-0.75,4.43-2.41c0-0.89-0.69-1.53-1.74-1.53c-1.33,0-3.64,0.96-4.44,1.3l-0.46-1.14
				C256.07,316.74,256.5,316.62,256.84,316.52z"/>
			<path class="st1" d="M272.08,313.54c-0.03,0.19-0.08,0.41-0.13,0.65c0.67-0.1,1.35-0.22,1.99-0.38v1.09
				c-0.69,0.17-1.46,0.29-2.21,0.37c-0.11,0.47-0.23,0.98-0.35,1.44c-0.4,1.55-1.14,3.82-1.74,5.06l-1.2-0.41
				c0.65-1.12,1.45-3.39,1.87-4.93c0.09-0.34,0.18-0.7,0.26-1.07c-0.32,0.01-0.62,0.02-0.89,0.02c-0.51,0-0.91-0.01-1.31-0.04
				l-0.02-1.08c0.54,0.07,0.92,0.09,1.34,0.09c0.34,0,0.71-0.01,1.1-0.04c0.05-0.33,0.11-0.62,0.13-0.83
				c0.05-0.34,0.07-0.75,0.04-0.99l1.32,0.1C272.22,312.86,272.12,313.32,272.08,313.54z M273.4,319.61c0,0.5,0.3,0.95,1.71,0.95
				c0.73,0,1.47-0.09,2.2-0.22l-0.03,1.11c-0.6,0.08-1.34,0.15-2.18,0.15c-1.79,0-2.76-0.58-2.76-1.67c0-0.46,0.09-0.92,0.19-1.38
				l1.02,0.1C273.45,318.99,273.4,319.33,273.4,319.61z M275.22,315.84c0.64,0,1.3,0.02,1.92,0.09l-0.03,1.06
				c-0.56-0.08-1.21-0.14-1.87-0.14c-0.71,0-1.39,0.04-2.08,0.12v-1.02C273.75,315.88,274.51,315.84,275.22,315.84z"/>
			<path class="st1" d="M283.83,315.27c0.48-1,1.54-2.18,2.87-2.18c1.5,0,2.61,1.47,2.61,3.84c0,3.07-1.91,4.48-4.72,4.99l-0.66-1
				c2.41-0.37,4.21-1.27,4.21-3.99c0-1.72-0.58-2.84-1.63-2.84c-1.34,0-2.56,1.98-2.66,3.43c-0.03,0.36-0.03,0.74,0.04,1.26
				l-1.08,0.08c-0.05-0.42-0.12-1.06-0.12-1.78c0-1.03,0.18-2.54,0.32-3.54c0.05-0.37,0.08-0.74,0.09-1.04l1.2,0.05
				C284.11,313.25,283.89,314.58,283.83,315.27z"/>
			<path class="st1" d="M151.57,332.04c-0.48,0.98-1.09,1.83-1.76,2.44c-0.21-0.19-0.68-0.51-0.95-0.66
				c1.07-0.85,1.92-2.27,2.34-3.79l1.08,0.23c-0.1,0.31-0.21,0.62-0.32,0.91h6.66v0.86h-7.05V332.04z M155.03,335.66
				c-0.36,0.66-0.8,1.27-1.29,1.82c0.74,0.54,1.41,1.08,1.85,1.55l-0.81,0.77c-0.42-0.46-1.06-1.01-1.78-1.56
				c-0.9,0.85-1.95,1.54-3.04,2.06c-0.14-0.21-0.53-0.62-0.75-0.8c1.09-0.45,2.11-1.08,2.97-1.85c-0.66-0.45-1.34-0.88-1.98-1.24
				l0.74-0.67c0.63,0.34,1.32,0.75,1.98,1.19c0.44-0.48,0.81-1.01,1.12-1.58L155.03,335.66z M157.17,334.33
				c-0.01,2.74,0.14,4.84,0.88,4.84c0.2-0.01,0.25-0.62,0.26-1.52c0.21,0.22,0.47,0.47,0.69,0.63c-0.08,1.36-0.29,1.89-1.01,1.9
				c-1.53-0.01-1.79-2.08-1.86-4.98h-6.09v-0.87H157.17z M151.31,333.59v-0.84h6.3v0.84H151.31z"/>
			<path class="st1" d="M171.9,330.81c-0.34,1.23-0.94,2.21-1.69,2.98c0.63,0.44,1.35,0.78,2.18,0.99c-0.21,0.2-0.48,0.57-0.63,0.85
				c-0.87-0.26-1.63-0.67-2.28-1.2c-0.71,0.54-1.52,0.95-2.39,1.23c-0.1-0.2-0.26-0.48-0.43-0.69v1.69h-1.69v0.78h1.92v0.91h-1.92
				v1.83h-0.92v-1.83h-1.94v-0.91h1.94v-0.78h-1.65v-3.86h1.65v-0.73h-1.8v-0.89h1.8v-1.12h0.92v1.12h1.83v0.89h-1.83v0.73h1.69
				v1.99c0.76-0.23,1.47-0.57,2.1-1.03c-0.53-0.59-0.96-1.29-1.29-2.08l0.7-0.2h-1.14v-0.89h4.05l0.18-0.03L171.9,330.81z
				 M163.15,334.37h1v-0.84h-1V334.37z M163.15,335.92h1v-0.85h-1V335.92z M165.87,333.54h-1.01v0.84h1.01V333.54z M165.87,335.08
				h-1.01v0.85h1.01V335.08z M169.99,339h2.27v0.91h-5.69V339h2.41v-1.66h-1.77v-0.88h1.77v-1.32h1.01v1.32h1.77v0.88h-1.77V339z
				 M168.36,331.48c0.26,0.63,0.64,1.19,1.11,1.67c0.48-0.47,0.88-1.03,1.17-1.67H168.36z"/>
			<path class="st1" d="M177.7,331.8c-0.19,0.9-0.54,2.97-0.54,4.15c0,0.38,0.02,0.77,0.07,1.18c0.19-0.45,0.41-0.99,0.58-1.4
				l0.55,0.44c-0.29,0.84-0.67,2.01-0.78,2.56c-0.03,0.15-0.07,0.38-0.06,0.51c0,0.11,0.01,0.28,0.02,0.41l-1,0.07
				c-0.22-0.77-0.41-2.07-0.41-3.55c0-1.64,0.35-3.51,0.47-4.39c0.04-0.28,0.09-0.62,0.1-0.91l1.22,0.11
				C177.85,331.16,177.74,331.6,177.7,331.8z M180.33,337.31c0,0.5,0.38,0.9,1.72,0.9c0.99,0,1.82-0.09,2.74-0.3l0.02,1.18
				c-0.69,0.13-1.61,0.22-2.78,0.22c-1.87,0-2.73-0.65-2.73-1.72c0-0.4,0.05-0.81,0.19-1.35l0.99,0.09
				C180.37,336.72,180.33,337.01,180.33,337.31z M184.47,331.76v1.12c-1.25,0.12-3.33,0.13-4.61,0l-0.01-1.12
				C181.11,331.95,183.32,331.91,184.47,331.76z"/>
			<path class="st1" d="M196.11,334.84c-0.43,1.07-1.01,1.95-1.73,2.68c1.1,0.83,2.52,1.39,4.28,1.67
				c-0.24,0.24-0.53,0.69-0.68,0.98c-1.83-0.35-3.28-0.99-4.41-1.94c-1.2,0.92-2.67,1.54-4.4,1.97c-0.12-0.25-0.44-0.73-0.65-0.97
				c1.72-0.35,3.16-0.9,4.28-1.73c-0.67-0.74-1.2-1.61-1.62-2.63l0.98-0.3c0.34,0.86,0.81,1.61,1.43,2.23
				c0.62-0.63,1.1-1.39,1.43-2.29L196.11,334.84z M192.55,333.04c-0.78,1.04-1.99,2.08-3.04,2.72c-0.19-0.21-0.59-0.6-0.85-0.8
				c1.04-0.54,2.18-1.41,2.83-2.31L192.55,333.04z M198.37,332.43h-9.59v-1.01h4.25v-1.36h1.06v1.36h4.29v1.01H198.37z
				 M195.59,332.58c1,0.66,2.29,1.65,2.92,2.38l-0.9,0.7c-0.57-0.7-1.83-1.75-2.85-2.46L195.59,332.58z"/>
			<path class="st1" d="M203.68,335.01c-0.42-0.37-1.29-0.87-1.99-1.17l0.56-0.77c0.68,0.26,1.57,0.71,2.02,1.07L203.68,335.01z
				 M204.74,336.5c-0.54,1.16-1.22,2.48-1.84,3.52l-0.88-0.65c0.55-0.85,1.34-2.26,1.94-3.52L204.74,336.5z M204.24,332.11
				c-0.41-0.38-1.25-0.9-1.95-1.22l0.56-0.74c0.68,0.28,1.54,0.75,1.98,1.13L204.24,332.11z M205.74,335.27h0.92v1.11
				c0,1.22-0.17,2.68-1.64,3.76c-0.14-0.2-0.5-0.52-0.71-0.66c1.29-0.92,1.43-2.15,1.43-3.12L205.74,335.27L205.74,335.27z
				 M207.61,331.44v-1.36h1.04v1.36h3.07v0.94h-3.65c-0.26,0.5-0.56,1.04-0.84,1.51c0.81-0.02,1.71-0.05,2.58-0.09
				c-0.24-0.28-0.51-0.54-0.75-0.77l0.78-0.42c0.76,0.66,1.61,1.61,1.98,2.28l-0.86,0.48c-0.11-0.22-0.26-0.46-0.46-0.73
				c-1.97,0.1-4.03,0.21-5.49,0.28l-0.11-0.97l1.26-0.03c0.26-0.46,0.53-1.03,0.73-1.54h-2.08v-0.94H207.61z M207.61,335.35h0.9
				v4.35h-0.9V335.35z M210.88,339.18c0.08,0,0.15-0.01,0.2-0.04s0.08-0.12,0.11-0.29c0.01-0.18,0.02-0.56,0.03-1.07
				c0.17,0.13,0.46,0.29,0.69,0.37c-0.01,0.48-0.04,1.05-0.11,1.27c-0.05,0.21-0.17,0.35-0.33,0.45c-0.12,0.09-0.35,0.13-0.55,0.13
				h-0.55c-0.22,0-0.5-0.07-0.65-0.23c-0.18-0.17-0.23-0.35-0.23-1.06v-3.45h0.94v3.52c0,0.2,0.01,0.3,0.05,0.35
				c0.03,0.03,0.09,0.04,0.15,0.04h0.25V339.18z"/>
			<path class="st1" d="M219.13,331.49c-0.07,0.34-0.17,0.87-0.26,1.39c0.45-0.04,0.86-0.07,1.11-0.07c1.06,0,1.87,0.43,1.87,1.97
				c0,1.3-0.17,3.07-0.63,3.99c-0.36,0.76-0.94,0.97-1.69,0.97c-0.43,0-0.95-0.08-1.31-0.17l-0.19-1.14
				c0.45,0.13,1.04,0.22,1.35,0.22c0.39,0,0.69-0.1,0.9-0.52c0.33-0.69,0.48-2.09,0.48-3.23c0-0.95-0.43-1.11-1.12-1.11
				c-0.23,0-0.59,0.02-1,0.07c-0.41,1.62-1.19,4.16-2.28,5.92l-1.13-0.45c1.1-1.49,1.89-3.86,2.28-5.36
				c-0.5,0.05-0.95,0.11-1.2,0.14c-0.28,0.03-0.79,0.1-1.09,0.15l-0.11-1.19c0.36,0.02,0.69,0.01,1.07,0
				c0.35-0.01,0.95-0.06,1.56-0.11c0.17-0.81,0.26-1.65,0.26-2.37l1.29,0.13C219.24,330.96,219.18,331.25,219.13,331.49z
				 M223.94,331.88l-0.7,0.3c0.67,0.99,1.5,2.77,1.82,3.72l-1.09,0.52c-0.31-1.18-1.14-3.1-1.91-4.03l1.02-0.45
				c0.01,0.02,0.03,0.04,0.04,0.07c-0.21-0.43-0.52-0.98-0.78-1.34l0.71-0.3C223.33,330.76,223.72,331.45,223.94,331.88z
				 M225.22,331.39l-0.71,0.32c-0.24-0.47-0.59-1.1-0.91-1.52l0.71-0.3C224.59,330.3,225.01,331,225.22,331.39z"/>
			<path class="st1" d="M229.52,331.88c0.8-0.08,2.76-0.26,4.79-0.44c1.18-0.1,2.28-0.17,3.04-0.19v1.11
				c-0.62,0-1.57,0.01-2.15,0.15c-1.46,0.44-2.43,2.01-2.43,3.31c0,2,1.87,2.67,3.69,2.75l-0.4,1.18c-2.16-0.11-4.41-1.27-4.41-3.69
				c0-1.66,0.98-2.99,1.87-3.58c-1.11,0.11-3.67,0.37-4.91,0.64l-0.11-1.2C228.92,331.92,229.3,331.9,229.52,331.88z M236.66,335.1
				l-0.68,0.31c-0.26-0.56-0.55-1.07-0.88-1.54l0.66-0.29C236.02,333.97,236.43,334.64,236.66,335.1z M237.91,334.61l-0.67,0.32
				c-0.29-0.56-0.57-1.04-0.92-1.52l0.66-0.3C237.24,333.48,237.67,334.14,237.91,334.61z"/>
			<path class="st1" d="M245.94,330.57l1.18-0.13c0.04,0.41,0.13,0.83,0.23,1.24c0.77-0.1,1.52-0.26,2.22-0.5l0.14,1
				c-0.62,0.18-1.36,0.33-2.11,0.43c0.08,0.23,0.14,0.45,0.22,0.65c0.07,0.19,0.14,0.38,0.22,0.59c0.9-0.11,1.63-0.3,2.16-0.46
				l0.18,1.03c-0.53,0.13-1.18,0.26-1.9,0.36c0.21,0.43,0.44,0.84,0.68,1.2c0.13,0.2,0.28,0.35,0.45,0.52l-0.55,0.81
				c-0.62-0.14-1.72-0.26-2.49-0.34l0.09-0.84c0.53,0.05,1.19,0.12,1.53,0.15c-0.29-0.45-0.54-0.92-0.75-1.39
				c-1.34,0.11-3.14,0.11-4.82,0l-0.05-1.02c1.65,0.17,3.22,0.17,4.47,0.07c-0.07-0.17-0.13-0.33-0.19-0.48
				c-0.1-0.29-0.18-0.54-0.25-0.77c-1.06,0.05-2.38,0.04-3.75-0.09l-0.07-1c1.31,0.14,2.51,0.2,3.54,0.14
				c-0.01-0.03-0.02-0.07-0.03-0.1C246.19,331.3,246.08,330.93,245.94,330.57z M243.92,337.56c0,0.87,0.79,1.28,2.4,1.28
				c1.03,0,1.89-0.08,2.68-0.24l-0.06,1.11c-0.77,0.12-1.69,0.2-2.62,0.2c-2.18,0-3.45-0.65-3.48-2.13
				c-0.01-0.66,0.21-1.16,0.46-1.65l1.08,0.21C244.13,336.71,243.92,337.09,243.92,337.56z"/>
			<path class="st1" d="M257.48,331.12c0.57,0,3.08-0.07,3.67-0.12c0.39-0.03,0.58-0.05,0.7-0.1l0.61,0.79
				c-0.23,0.14-0.46,0.3-0.69,0.47c-0.56,0.42-1.91,1.56-2.7,2.2c0.44-0.13,0.88-0.19,1.32-0.19c1.84,0,3.2,1.13,3.2,2.67
				c0,1.75-1.4,3-3.87,3c-1.52,0-2.53-0.67-2.53-1.67c0-0.81,0.73-1.55,1.82-1.55c1.36,0,2.14,0.88,2.29,1.93
				c0.76-0.33,1.17-0.92,1.17-1.73c0-1.03-1.01-1.78-2.39-1.78c-1.76,0-2.79,0.83-4.09,2.21l-0.8-0.81c0.86-0.7,2.23-1.86,2.88-2.4
				c0.62-0.51,1.89-1.56,2.44-2.05c-0.58,0.02-2.49,0.11-3.06,0.14c-0.28,0.01-0.56,0.03-0.81,0.07l-0.03-1.13
				C256.88,331.11,257.22,331.12,257.48,331.12z M259.53,338.86c0.28,0,0.54-0.01,0.78-0.04c-0.09-0.8-0.57-1.36-1.3-1.36
				c-0.46,0-0.8,0.3-0.8,0.63C258.21,338.57,258.75,338.86,259.53,338.86z"/>
			<path class="st1" d="M271.95,338.54c0-0.5,0.36-0.84,0.83-0.84c0.46,0,0.82,0.34,0.82,0.84s-0.36,0.84-0.82,0.84
				C272.31,339.38,271.95,339.04,271.95,338.54z M272.07,332.53l-0.03-1.45h1.47l-0.03,1.45l-0.25,4.05h-0.9L272.07,332.53z"/>
		</g>
	</g>
	<g>
		<g>
			<path class="st1" d="M206.11,133.25c0.16-0.08,0.32-0.17,0.48-0.26C206.43,133.08,206.27,133.16,206.11,133.25z"/>
			<path class="st1" d="M204.97,133.8c0.16-0.07,0.31-0.15,0.47-0.23C205.28,133.65,205.13,133.73,204.97,133.8z"/>
			<path class="st1" d="M255.72,149.53c7.81-11.19,6.51-26.21-3.2-35.92c-6.82-6.82-16.31-9.4-25.15-7.72
				c0.07,0.68,0.1,1.36,0.13,2.04c1.7-0.34,3.42-0.51,5.15-0.51c6.68,0,13.35,2.54,18.44,7.62c9.13,9.13,10.25,23.33,2.67,33.75
				c-0.21,0.28-0.25,0.65-0.12,0.98l3.2,7.89l-7.89-3.2c-0.33-0.13-0.7-0.09-0.98,0.12c-10.42,7.59-24.62,6.46-33.75-2.67
				c-3.32-3.32-5.63-7.38-6.78-11.8c-0.62,0.28-1.25,0.54-1.89,0.77c1.27,4.67,3.73,8.95,7.24,12.47
				c5.48,5.48,12.64,8.28,19.86,8.28c5.57,0,11.18-1.67,16.06-5.08l9.6,3.89c0.38,0.15,0.81,0.07,1.1-0.22
				c0.29-0.29,0.38-0.72,0.22-1.1L255.72,149.53z"/>
			<path class="st1" d="M220.78,109.17c0,0.37-0.01,0.75-0.03,1.12l0,0C220.77,109.92,220.78,109.54,220.78,109.17z"/>
		</g>
		<g>
			<path class="st1" d="M193.7,137.32c-5.57,0-11.18-1.67-16.06-5.08l-9.6,3.89c-0.38,0.15-0.81,0.07-1.1-0.22
				c-0.29-0.29-0.38-0.72-0.22-1.1l3.89-9.6c-7.81-11.19-6.51-26.21,3.2-35.92l0,0c10.96-10.96,28.79-10.96,39.74,0
				c5.31,5.31,8.23,12.36,8.23,19.87s-2.92,14.56-8.23,19.87C208.09,134.52,200.92,137.32,193.7,137.32z M177.78,130.08
				c0.21,0,0.42,0.07,0.6,0.19c10.43,7.59,24.62,6.47,33.75-2.67c4.92-4.92,7.64-11.47,7.64-18.44s-2.71-13.51-7.64-18.44
				c-10.17-10.17-26.71-10.17-36.87,0c-9.13,9.13-10.25,23.33-2.67,33.75c0.21,0.28,0.25,0.65,0.12,0.98l-3.2,7.89l7.89-3.2
				C177.52,130.1,177.65,130.08,177.78,130.08z"/>
		</g>
	</g>
	<g>
		<g>
			<path class="st1" d="M124.87,204.87c2.22-0.34,4.16-0.78,5.23-1.3l2.08,2.79c-0.86,0.21-1.49,0.38-1.87,0.46
				c-0.99,0.25-2.06,0.46-3.17,0.63v2.92h5.02c0.44,0,1.55-0.08,2.04-0.12v3.25c-0.63-0.04-1.37-0.08-1.97-0.08h-5.19
				c-0.4,3.34-1.91,6.42-5.38,8.54l-3.25-2.18c3.11-1.41,4.72-3.57,5.23-6.36h-5.5c-0.63,0-1.45,0.04-2.02,0.08v-3.25
				c0.63,0.06,1.32,0.12,1.99,0.12h5.67v-2.5c-1.95,0.15-4.01,0.23-5.33,0.25l-0.8-2.92C119.26,205.23,122.54,205.23,124.87,204.87z
				"/>
			<path class="st1" d="M148.75,208.67c0.15,0.5,0.31,1.13,0.5,1.83c2.48-0.48,5.08-0.99,5.96-1.18c0.42-0.08,0.88-0.23,1.2-0.38
				l2.06,1.45c-0.9,1.87-2.98,5.14-4.47,6.8l-2.79-1.39c0.94-0.88,2.33-2.56,2.81-3.46c-0.48,0.08-2.12,0.42-4.01,0.82
				c0.78,2.81,1.6,5.82,1.95,6.99c0.1,0.36,0.44,1.45,0.61,1.89l-3.44,0.84c-0.08-0.61-0.23-1.38-0.42-2.02
				c-0.34-1.22-1.11-4.26-1.85-7.03c-1.62,0.36-3.04,0.67-3.72,0.82l-0.78-3.02c0.69-0.06,1.3-0.12,2.04-0.25
				c0.27-0.04,0.9-0.15,1.72-0.29c-0.17-0.67-0.34-1.28-0.48-1.72c-0.15-0.54-0.4-1.11-0.65-1.62l3.4-0.8
				C148.47,207.52,148.62,208.13,148.75,208.67z"/>
			<path class="st1" d="M172.96,213.84l-3.11,1.15c-0.36-1.13-1.37-3.88-1.93-4.89l3.07-1.09
				C171.57,210.18,172.54,212.62,172.96,213.84z M183.1,211.42c-0.54,2.02-1.43,4.16-2.81,5.96c-1.95,2.56-4.6,4.39-7.12,5.35
				L170.5,220c2.23-0.57,5.29-2.16,7.03-4.37c1.39-1.74,2.37-4.6,2.56-7.2l3.59,1.16C183.39,210.41,183.25,210.92,183.1,211.42z
				 M177.62,212.51l-3.04,1.05c-0.29-1.05-1.18-3.53-1.74-4.7l3.02-0.99C176.28,208.8,177.3,211.53,177.62,212.51z"/>
			<path class="st1" d="M196.52,206.47c0-0.84-0.08-1.93-0.25-2.73h3.97c-0.08,0.8-0.21,1.72-0.21,2.73v2.88
				c2.83,0.82,6.91,2.31,8.67,3.17l-1.45,3.55c-2.12-1.09-5-2.2-7.22-3v5.4c0,0.57,0.13,2.23,0.23,3.17h-3.99
				c0.15-0.9,0.25-2.31,0.25-3.17L196.52,206.47L196.52,206.47z"/>
			<path class="st1" d="M218.91,205.73c1.97-0.17,5.14-0.42,8.99-0.76c2.1-0.17,4.58-0.32,6.11-0.38l0.02,3.28
				c-1.09,0.02-2.88,0.02-4.03,0.25c-2.27,0.5-4.22,2.96-4.22,5.46c0,3.09,2.9,4.3,6.53,4.51l-1.2,3.53
				c-4.68-0.36-8.69-2.9-8.69-7.37c0-2.88,1.53-5.1,2.67-6.13c-1.8,0.19-5.5,0.61-8.02,1.18l-0.32-3.46
				C217.58,205.82,218.51,205.77,218.91,205.73z M232.68,212.45l-1.87,0.82c-0.57-1.22-0.92-1.91-1.6-2.88l1.83-0.76
				C231.57,210.41,232.3,211.67,232.68,212.45z M235.16,211.36l-1.85,0.88c-0.61-1.2-1.01-1.85-1.7-2.79l1.81-0.82
				C233.96,209.38,234.74,210.6,235.16,211.36z"/>
			<path class="st1" d="M257.61,210.77c-0.08,4.85,0.17,8.78,1.18,8.78c0.27-0.02,0.36-1.09,0.38-2.75
				c0.59,0.71,1.32,1.49,1.95,1.95c-0.21,2.62-0.76,3.84-2.54,3.84c-3.23,0-3.93-4.05-4.07-9.28h-4.05l2.86,0.92
				c-0.57,1.07-1.24,2.08-2,3c1.24,0.84,2.33,1.66,3.09,2.42l-2.44,2.33c-0.67-0.73-1.68-1.57-2.83-2.44
				c-1.58,1.41-3.32,2.56-5.14,3.42c-0.46-0.63-1.58-1.83-2.25-2.37c1.78-0.67,3.46-1.64,4.89-2.79c-1.11-0.71-2.22-1.39-3.25-1.95
				l2.18-2.02c0.99,0.5,2.12,1.13,3.23,1.81c0.59-0.74,1.09-1.51,1.51-2.33h-6.7v-1.83c-0.65-0.55-1.97-1.43-2.71-1.85
				c2.12-1.53,3.72-4.24,4.47-7.16l3.21,0.69c-0.13,0.46-0.27,0.9-0.44,1.34h12.05v2.5h-13.14c-0.1,0.21-0.21,0.42-0.34,0.63h11.63
				v2.44h-12.2v-1.47c-0.5,0.8-1.07,1.53-1.66,2.16h13.13V210.77z"/>
			<path class="st1" d="M285.83,204.12c-0.61,2.41-1.62,4.32-2.94,5.84c1.05,0.61,2.27,1.07,3.67,1.39c-0.61,0.57-1.43,1.7-1.8,2.46
				c-0.9-0.25-1.74-0.59-2.5-0.97v2.02h3.04v2.54h-3.04v2.08h4.01v2.67H275.2v-2.67h4.03v-2.08h-3.02v-2.54h3.02v-2.1h2.86
				c-0.48-0.27-0.97-0.57-1.41-0.88c-1.26,0.86-2.69,1.53-4.3,2.04c-0.23-0.5-0.61-1.15-1.01-1.72v3.59h-3.07v1.01h3.28v2.65h-3.28
				v3.11h-2.71v-3.11h-3.3v-2.65h3.3v-1.01h-2.9v-7.81h2.9v-0.92h-3.04v-2.6h3.04v-1.85h2.71v1.85h3.15v2.6h-3.15v0.92h3.07v3.36
				c1.2-0.36,2.29-0.84,3.25-1.47c-0.76-0.94-1.39-2.04-1.91-3.25l1.87-0.48h-2.54v-2.6h7.35l0.53-0.11L285.83,204.12z
				 M268.85,210.9h1.09v-0.88h-1.09V210.9z M268.85,213.71h1.09v-0.9h-1.09V213.71z M273.13,210.01h-1.18v0.88h1.18V210.01z
				 M273.13,212.81h-1.18v0.9h1.18V212.81z M279.32,206.11c0.34,0.73,0.78,1.41,1.32,2.02c0.54-0.61,1.03-1.28,1.41-2.02H279.32z"/>
			<path class="st1" d="M296.92,206.45c-0.23,1.09-1.01,5.54-1.01,7.5c0,0.06,0,0.4,0.02,0.48c0.29-0.59,0.55-1.01,0.82-1.62
				l1.53,1.22c-0.63,1.91-1.28,4.22-1.51,5.4c-0.06,0.32-0.13,0.82-0.13,1.01c0,0.23,0,0.61,0.02,0.94l-2.94,0.19
				c-0.42-1.41-0.84-4.05-0.84-6.91c0-3.21,0.61-6.72,0.82-8.27c0.08-0.63,0.23-1.58,0.25-2.37l3.55,0.29
				C297.32,204.79,297.01,206.07,296.92,206.45z M302.26,216.46c0,0.92,0.88,1.28,2.6,1.28c1.87,0,3.38-0.17,5.29-0.57l0.06,3.44
				c-1.39,0.25-3.04,0.4-5.52,0.4c-3.67,0-5.5-1.36-5.5-3.61c0-0.9,0.13-1.78,0.38-2.88l2.9,0.25
				C302.32,215.45,302.26,215.91,302.26,216.46z M309.56,205.56v3.28c-2.75,0.23-6.43,0.25-9.24,0l-0.02-3.25
				C303.05,205.92,307.21,205.82,309.56,205.56z"/>
			<path class="st1" d="M132.85,242.55c-1.07,0.74-2.25,1.43-3.44,1.97c-0.36-0.74-1.18-1.91-1.81-2.56
				c3.59-1.51,6.87-4.47,8.38-6.84h3.23c2.25,3.09,5.4,5.29,8.73,6.38c-0.76,0.78-1.43,1.87-1.97,2.79
				c-1.11-0.5-2.27-1.18-3.38-1.91v1.72h-9.74V242.55z M142.17,248.2c1.74,1.57,3.51,3.59,4.43,5.1l-2.86,1.72
				c-0.19-0.38-0.46-0.8-0.76-1.24c-4.83,0.27-9.91,0.5-13.5,0.67l-0.4-2.98c0.96-0.02,2.04-0.06,3.21-0.11
				c0.46-0.99,0.9-2.12,1.24-3.17h-4.51v-2.83h17.49v2.83L142.17,248.2L142.17,248.2z M141.08,241.31
				c-1.37-1.05-2.56-2.18-3.36-3.28c-0.8,1.07-1.91,2.21-3.21,3.28H141.08z M137.3,248.2c-0.53,1.03-1.07,2.1-1.6,3.07
				c1.66-0.06,3.4-0.13,5.12-0.19c-0.55-0.61-1.11-1.2-1.66-1.72l2.22-1.15h-4.08V248.2z"/>
			<path class="st1" d="M152.93,238.64h8.15v2.37h-8.15V238.64z M160.53,254.27h-4.12v0.76h-2.54v-7.29h6.66V254.27z M160.4,244
				h-6.45v-2.27h6.45V244z M153.96,244.71h6.45v2.27h-6.45V244.71z M160.42,237.95h-6.34v-2.27h6.34V237.95z M156.41,250.11v1.79
				h1.53v-1.79H156.41z M168.67,244.02v2.33h3.51v8.61h-3.04v-0.92h-3.99v1.01h-2.88v-8.69h3.25v-2.33h-4.28v-2.88h4.28v-2.08
				c-1.09,0.12-2.18,0.21-3.21,0.27c-0.11-0.74-0.5-1.89-0.84-2.56c3.19-0.27,6.63-0.82,8.92-1.55l2.12,2.54
				c-1.18,0.34-2.5,0.63-3.84,0.86v2.52h4.3v2.88L168.67,244.02L168.67,244.02z M169.14,249.08h-3.99v2.23h3.99V249.08z"/>
			<path class="st1" d="M187.07,238.54c-0.12,0.57-0.25,1.15-0.38,1.7c0.57-0.04,1.05-0.06,1.43-0.06c2.41,0,4.01,1.13,4.01,4.28
				c0,2.46-0.27,5.9-1.18,7.75c-0.71,1.51-1.95,2.04-3.65,2.04c-0.82,0-1.81-0.13-2.56-0.29l-0.55-3.34
				c0.78,0.21,2.04,0.44,2.56,0.44c0.67,0,1.15-0.23,1.43-0.8c0.53-1.05,0.78-3.51,0.78-5.46c0-1.53-0.63-1.72-1.93-1.72
				c-0.25,0-0.59,0.02-1.01,0.06c-0.84,3.28-2.42,8.36-4.2,11.23l-3.32-1.32c2-2.69,3.36-6.68,4.14-9.55
				c-0.55,0.08-1.01,0.15-1.3,0.19c-0.67,0.1-1.89,0.27-2.58,0.4l-0.29-3.42c0.82,0.06,1.62,0.02,2.46,0
				c0.61-0.02,1.47-0.08,2.42-0.15c0.29-1.64,0.44-3.09,0.4-4.39l3.78,0.4C187.37,237.15,187.2,237.95,187.07,238.54z M195.66,238.5
				l-0.69,0.29c1.26,1.97,2.83,5.61,3.4,7.54l-3.25,1.49c-0.5-2.44-1.91-6.15-3.42-8.08l1.79-0.76c-0.4-0.82-0.92-1.85-1.43-2.56
				l1.97-0.8C194.54,236.4,195.28,237.76,195.66,238.5z M198.26,237.47l-1.97,0.84c-0.42-0.86-1.09-2.1-1.66-2.9l1.97-0.8
				C197.15,235.41,197.9,236.75,198.26,237.47z"/>
			<path class="st1" d="M206.31,238.2c1.97-0.17,5.14-0.42,8.99-0.76c2.1-0.17,4.58-0.31,6.11-0.38l0.02,3.28
				c-1.09,0.02-2.88,0.02-4.03,0.25c-2.27,0.5-4.22,2.96-4.22,5.46c0,3.09,2.9,4.3,6.53,4.51l-1.2,3.53
				c-4.68-0.36-8.69-2.9-8.69-7.37c0-2.88,1.53-5.1,2.67-6.13c-1.8,0.19-5.5,0.61-8.02,1.18l-0.32-3.46
				C204.99,238.29,205.91,238.25,206.31,238.2z M220.08,244.92l-1.87,0.82c-0.57-1.22-0.92-1.91-1.6-2.88l1.83-0.76
				C218.97,242.88,219.7,244.14,220.08,244.92z M222.56,243.83l-1.85,0.88c-0.61-1.2-1.01-1.85-1.7-2.79l1.81-0.82
				C221.36,241.86,222.14,243.07,222.56,243.83z"/>
			<path class="st1" d="M238.96,242.23c-0.06-0.19-0.12-0.36-0.19-0.53c-0.13-0.4-0.25-0.73-0.34-1.03
				c-1.97,0.08-4.35,0.04-6.99-0.21l-0.17-2.9c2.46,0.27,4.49,0.38,6.34,0.34c-0.19-0.61-0.4-1.24-0.63-1.91l3.4-0.36
				c0.08,0.74,0.21,1.41,0.34,2.06c1.39-0.17,2.69-0.46,4.03-0.88l0.4,2.9c-1.13,0.31-2.39,0.57-3.72,0.73
				c0.06,0.25,0.15,0.48,0.23,0.74c0.08,0.23,0.19,0.5,0.29,0.8c1.68-0.23,2.88-0.55,3.91-0.84l0.5,3
				c-0.95,0.23-1.97,0.42-3.09,0.59c0.27,0.53,0.57,1.03,0.84,1.45c0.31,0.46,0.61,0.8,1.03,1.2l-1.49,2.29
				c-1.18-0.21-3.63-0.5-5.21-0.67l0.25-2.42c0.74,0.06,1.76,0.15,2.35,0.19c-0.34-0.59-0.63-1.15-0.9-1.72
				c-2.58,0.15-5.94,0.15-9.07-0.04l-0.17-2.98C234.01,242.3,236.69,242.34,238.96,242.23z M234.53,249.39
				c0,1.45,1.43,1.95,3.93,1.95c2,0,3.93-0.17,5.42-0.46l-0.19,3.23c-1.47,0.23-3.55,0.4-5.23,0.4c-4.24,0-7.01-1.26-7.08-4.41
				c-0.04-1.45,0.46-2.56,0.97-3.59l3.15,0.59C234.99,247.78,234.53,248.51,234.53,249.39z"/>
			<path class="st1" d="M259.75,236.86c1.13,0,5.33-0.06,6.57-0.17c1.01-0.08,1.6-0.17,1.87-0.25l1.57,2.25
				c-0.55,0.34-1.09,0.65-1.62,1.03c-1.18,0.8-3.02,2.31-4.18,3.19c0.55-0.11,0.97-0.13,1.47-0.13c3.61,0,6.45,2.31,6.45,5.48
				c0,3.28-2.37,6.15-7.81,6.15c-2.96,0-5.42-1.39-5.42-3.7c0-1.85,1.68-3.57,4.07-3.57c2.56,0,4.2,1.49,4.56,3.49
				c0.84-0.57,1.24-1.39,1.24-2.41c0-1.81-1.85-2.94-4.16-2.94c-3.06,0-5.27,1.85-7.29,4.3l-2.31-2.39c1.34-1.05,3.8-3.13,5.04-4.16
				c1.18-0.97,3.13-2.48,4.14-3.38c-1.05,0.02-3.21,0.1-4.35,0.19c-0.63,0.04-1.39,0.1-1.89,0.19l-0.1-3.3
				C258.26,236.82,259.06,236.86,259.75,236.86z M263.43,251.51c0.34,0,0.65-0.02,0.94-0.04c-0.1-1.15-0.73-1.91-1.62-1.91
				c-0.69,0-1.09,0.42-1.09,0.84C261.66,251.05,262.36,251.51,263.43,251.51z"/>
			<path class="st1" d="M286.76,251.14c0-1.24,0.9-2.1,2.14-2.1s2.14,0.86,2.14,2.1s-0.9,2.14-2.14,2.14
				C287.64,253.28,286.76,252.38,286.76,251.14z M286.97,240.81l-0.13-3.49h4.12l-0.12,3.49l-0.63,6.63h-2.6L286.97,240.81z"/>
		</g>
	</g>
</g>
</svg>
