<?xml version="1.0" encoding="utf-8"?>
<!-- Generator: Adobe Illustrator 25.0.0, SVG Export Plug-In . SVG Version: 6.00 Build 0)  -->
<svg version="1.1" id="レイヤー_1" xmlns="http://www.w3.org/2000/svg" xmlns:xlink="http://www.w3.org/1999/xlink" x="0px"
	 y="0px" viewBox="0 0 426.33 398.42" style="enable-background:new 0 0 426.33 398.42;" xml:space="preserve">
<style type="text/css">
	.st0{fill:#0A0A0A;}
	.st1{fill:#FFFFFF;}
</style>
<g>
	<g>
		<rect class="st0" width="426.33" height="398.42"/>
	</g>
	<g>
		<g>
			<path class="st1" d="M177.35,277.54v8.6h-1.08v-0.55h-5.57v0.59h-1.02v-8.65h2.77c0.15-0.47,0.29-1.04,0.36-1.47l1.22,0.14
				c-0.18,0.46-0.35,0.94-0.54,1.33L177.35,277.54L177.35,277.54z M170.71,278.51v1.41h5.57v-1.41H170.71z M170.71,280.87v1.41h5.57
				v-1.41H170.71z M176.28,284.64v-1.42h-5.57v1.42H176.28z"/>
			<path class="st1" d="M188.58,276.24c0.7,1.43,2.09,3.05,3.28,3.93c-0.26,0.22-0.66,0.63-0.86,0.91c-0.3-0.25-0.62-0.56-0.92-0.9
				c0,0.1,0,0.33-0.01,0.43c-0.14,3.33-0.3,4.61-0.67,5.04c-0.25,0.32-0.51,0.4-0.9,0.45c-0.37,0.04-1.04,0.03-1.71,0
				c-0.01-0.31-0.15-0.74-0.34-1.03c0.67,0.07,1.3,0.08,1.55,0.08c0.22,0,0.35-0.03,0.47-0.15c0.25-0.26,0.4-1.3,0.51-3.85h-2.54
				c-0.27,2.13-0.98,4.06-3.81,5.09c-0.11-0.26-0.42-0.7-0.65-0.91c2.53-0.84,3.11-2.44,3.34-4.18h-2.06v-0.85
				c-0.32,0.33-0.66,0.63-1,0.89c-0.19-0.22-0.63-0.63-0.87-0.81c1.36-0.92,2.57-2.43,3.26-4.1l1.09,0.32
				c-0.57,1.33-1.4,2.56-2.33,3.55h6.62c-0.91-1-1.82-2.28-2.44-3.5L188.58,276.24z"/>
			<path class="st1" d="M200.27,285.72l-0.65-1.03c0.37-0.03,0.7-0.09,0.98-0.15c1.41-0.32,2.66-1.35,2.66-3.12
				c0-1.6-0.97-2.86-2.66-3.07c-0.15,0.99-0.34,2.06-0.66,3.09c-0.66,2.25-1.57,3.49-2.66,3.49s-2.09-1.21-2.09-3.05
				c0-2.46,2.16-4.58,4.92-4.58c2.64,0,4.31,1.85,4.31,4.15C204.41,283.75,202.94,285.34,200.27,285.72z M197.31,283.61
				c0.5,0,1.01-0.71,1.52-2.41c0.28-0.87,0.47-1.87,0.61-2.84c-1.98,0.32-3.14,2.04-3.14,3.4
				C196.29,283.03,196.83,283.61,197.31,283.61z"/>
			<path class="st1" d="M209.97,284.3v-6.15c0-0.35-0.04-0.86-0.1-1.11h1.36c-0.05,0.34-0.09,0.74-0.09,1.1v6.02
				c1.97-0.53,4.47-1.96,5.85-3.7l0.63,0.97c-1.46,1.79-3.74,3.12-6.41,3.95c-0.13,0.04-0.34,0.1-0.55,0.23l-0.81-0.69
				C209.96,284.7,209.97,284.53,209.97,284.3z"/>
			<path class="st1" d="M222.07,281.53c0.52-0.52,1.43-1.68,2.15-2.54c0.62-0.73,1.2-0.85,1.99-0.09c0.69,0.65,1.6,1.6,2.24,2.29
				c0.75,0.79,1.86,1.99,2.71,2.9l-0.96,1.01c-0.77-0.92-1.72-2.06-2.4-2.85c-0.64-0.74-1.64-1.81-2.08-2.24
				c-0.4-0.38-0.62-0.35-0.96,0.08c-0.48,0.59-1.34,1.75-1.83,2.35c-0.23,0.32-0.48,0.67-0.66,0.92l-1.04-1.07
				C221.54,282.05,221.76,281.84,222.07,281.53z M229.46,279.52l-0.79,0.35c-0.3-0.63-0.64-1.24-1.01-1.77l0.77-0.33
				C228.71,278.2,229.21,279.01,229.46,279.52z M230.93,278.91l-0.78,0.37c-0.31-0.63-0.66-1.23-1.06-1.74l0.77-0.35
				C230.17,277.6,230.68,278.4,230.93,278.91z"/>
			<path class="st1" d="M236.43,282.29c0.32-0.98,0.32-3.12,0.32-4.39c0-0.37-0.02-0.64-0.09-0.89h1.28
				c-0.01,0.09-0.05,0.5-0.05,0.88c0,1.25-0.04,3.6-0.34,4.7c-0.33,1.21-1.02,2.29-1.96,3.08l-1.06-0.7
				C235.49,284.3,236.12,283.3,236.43,282.29z M239.68,284.37v-6.51c0-0.45-0.07-0.81-0.07-0.88h1.28
				c-0.01,0.07-0.05,0.43-0.05,0.88v6.08c0.96-0.43,2.2-1.36,2.99-2.53l0.67,0.95c-0.93,1.24-2.49,2.4-3.75,3.04
				c-0.2,0.11-0.33,0.21-0.42,0.28l-0.73-0.61C239.65,284.87,239.68,284.62,239.68,284.37z"/>
			<path class="st1" d="M250.23,278.05c0.19,0.35,0.38,0.75,0.59,1.17c1.32-0.58,2.74-1.14,3.88-1.14c1.6,0,2.57,0.95,2.57,2.18
				c0,1.39-0.92,2.35-2.62,2.35c-0.62,0-1.25-0.15-1.67-0.31l0.03-1.1c0.45,0.21,1,0.37,1.54,0.37c1.04,0,1.58-0.57,1.58-1.36
				c0-0.62-0.51-1.14-1.47-1.14c-0.91,0-2.2,0.5-3.43,1.06c0.13,0.28,0.25,0.55,0.37,0.81c0.56,1.3,1.32,3.46,1.69,4.7l-1.2,0.31
				c-0.34-1.34-0.88-3.15-1.49-4.53c-0.12-0.28-0.24-0.55-0.36-0.83c-0.83,0.41-1.56,0.79-2.05,1.01l-0.53-1.11
				c0.37-0.1,0.8-0.24,0.99-0.33c0.36-0.14,0.75-0.31,1.17-0.5c-0.2-0.41-0.39-0.78-0.56-1.09c-0.14-0.24-0.4-0.62-0.58-0.86
				l1.12-0.45C249.91,277.45,250.12,277.85,250.23,278.05z M251.5,276.86l0.8-0.57c0.37,0.3,1.2,1,1.6,1.41l-0.8,0.62
				C252.69,277.9,251.97,277.21,251.5,276.86z"/>
			<path class="st1" d="M144.51,295.42h5.26c0.36,0,0.69-0.01,0.95-0.04v1.1c-0.27-0.01-0.55-0.03-0.95-0.03h-2.74v2.12h3.54
				c0.23,0,0.71-0.02,0.98-0.04l0.01,1.12c-0.29-0.02-0.73-0.02-0.97-0.02h-3.56v1.97c0,0.58,0.39,0.86,1.34,0.86
				c1.01,0,1.95-0.04,2.86-0.15l-0.07,1.18c-0.8,0.05-1.94,0.1-2.98,0.1c-1.82,0-2.32-0.64-2.32-1.63v-2.32h-1.99
				c-0.3,0-0.79,0.02-1.11,0.04v-1.16c0.31,0.03,0.79,0.06,1.11,0.06h1.99v-2.12h-1.35c-0.38,0-0.71,0.01-1.02,0.03v-1.1
				C143.79,295.39,144.12,295.42,144.51,295.42z"/>
			<path class="st1" d="M160.23,295.37c1.05-0.14,2.26-0.4,2.81-0.65l0.71,0.97c-0.3,0.08-0.54,0.13-0.71,0.18
				c-0.54,0.14-1.3,0.3-2.04,0.41v1.95h2.93c0.23,0,0.68-0.02,0.92-0.04v1.12c-0.26-0.02-0.62-0.03-0.9-0.03h-2.98
				c-0.14,1.95-0.95,3.46-2.83,4.57l-1.09-0.75c1.71-0.8,2.61-2,2.77-3.82h-3.17c-0.34,0-0.73,0.01-1,0.03v-1.13
				c0.26,0.03,0.65,0.05,0.99,0.05h3.21v-1.8c-1.09,0.1-2.29,0.13-3.09,0.14l-0.28-1.01C157.33,295.58,159.02,295.55,160.23,295.37z
				"/>
			<path class="st1" d="M169.27,299.53c0.52-0.52,1.43-1.68,2.15-2.54c0.62-0.73,1.2-0.85,1.99-0.09c0.69,0.65,1.6,1.6,2.24,2.29
				c0.75,0.79,1.86,1.99,2.71,2.9l-0.96,1.01c-0.77-0.92-1.72-2.06-2.4-2.85c-0.64-0.74-1.64-1.81-2.08-2.24
				c-0.4-0.38-0.62-0.35-0.96,0.08c-0.48,0.59-1.34,1.75-1.83,2.35c-0.23,0.32-0.48,0.67-0.66,0.92l-1.04-1.07
				C168.74,300.05,168.96,299.84,169.27,299.53z M176.66,297.52l-0.79,0.35c-0.3-0.63-0.64-1.24-1.01-1.77l0.77-0.33
				C175.91,296.2,176.41,297.01,176.66,297.52z M178.13,296.91l-0.78,0.37c-0.31-0.63-0.66-1.23-1.06-1.74l0.77-0.35
				C177.37,295.6,177.88,296.4,178.13,296.91z"/>
			<path class="st1" d="M183.84,298.46h5.98c0.53,0,0.96-0.04,1.23-0.07v1.36c-0.24-0.01-0.75-0.05-1.23-0.05h-5.98
				c-0.61,0-1.27,0.02-1.64,0.05v-1.36C182.57,298.42,183.25,298.46,183.84,298.46z"/>
			<path class="st1" d="M198.47,298.74l-0.64,0.98c-0.58-0.42-1.75-1.17-2.45-1.54l0.63-0.95
				C196.7,297.59,197.96,298.37,198.47,298.74z M199.58,301.32c1.84-1.04,3.32-2.52,4.21-4.08l0.67,1.17
				c-0.99,1.5-2.52,2.9-4.3,3.94c-1.11,0.65-2.65,1.18-3.65,1.36l-0.65-1.13C197.09,302.37,198.43,301.96,199.58,301.32z
				 M200.12,296.31l-0.65,0.95c-0.56-0.41-1.74-1.19-2.42-1.57l0.63-0.95C198.36,295.12,199.61,295.93,200.12,296.31z"/>
			<path class="st1" d="M211.17,297.23h4.21c0.25,0,0.59-0.01,0.75-0.01c-0.01,0.13-0.01,0.42-0.01,0.64v5.49
				c0,0.18,0.01,0.48,0.02,0.66h-1.1c0.01-0.1,0.01-0.26,0.01-0.44h-4.31c-0.33,0-0.74,0.02-0.92,0.03v-1.09
				c0.19,0.02,0.54,0.04,0.92,0.04h4.31v-1.74h-3.76c-0.4,0-0.85,0-1.09,0.02v-1.04c0.25,0.01,0.69,0.03,1.08,0.03h3.77v-1.61h-3.88
				c-0.34,0-1,0.02-1.23,0.03v-1.07C210.19,297.22,210.83,297.23,211.17,297.23z"/>
			<path class="st1" d="M226.49,300.93c1.77-1.09,3.15-2.74,3.82-4.15l0.67,1.2c-0.79,1.43-2.15,2.93-3.86,3.98
				c-1.11,0.68-2.51,1.33-4.21,1.64l-0.74-1.13C224,302.19,225.43,301.58,226.49,300.93z M226.12,297.41l-0.87,0.89
				c-0.57-0.58-1.94-1.78-2.75-2.33l0.8-0.86C224.07,295.62,225.5,296.77,226.12,297.41z"/>
			<path class="st1" d="M236.76,295.8c-0.19,0.9-0.54,2.97-0.54,4.15c0,0.38,0.02,0.77,0.07,1.18c0.19-0.45,0.41-0.99,0.58-1.4
				l0.55,0.44c-0.29,0.84-0.67,2.01-0.78,2.56c-0.03,0.15-0.07,0.38-0.06,0.51c0,0.11,0.01,0.28,0.02,0.41l-1,0.07
				c-0.22-0.77-0.41-2.07-0.41-3.55c0-1.64,0.35-3.51,0.47-4.39c0.04-0.28,0.09-0.62,0.1-0.91l1.22,0.11
				C236.92,295.16,236.81,295.6,236.76,295.8z M239.39,301.31c0,0.5,0.38,0.9,1.72,0.9c0.99,0,1.82-0.09,2.74-0.3l0.02,1.18
				c-0.69,0.13-1.61,0.22-2.78,0.22c-1.87,0-2.73-0.65-2.73-1.72c0-0.4,0.05-0.81,0.19-1.35l0.99,0.09
				C239.44,300.72,239.39,301.01,239.39,301.31z M243.53,295.76v1.12c-1.25,0.12-3.33,0.13-4.61,0l-0.01-1.12
				C240.17,295.95,242.39,295.91,243.53,295.76z"/>
			<path class="st1" d="M252.31,295.06c-0.04,0.21-0.09,0.46-0.13,0.73c1.38-0.06,2.64-0.2,3.81-0.47l0.01,1.02
				c-1.11,0.2-2.58,0.34-3.94,0.41c-0.03,0.37-0.07,0.78-0.1,1.19c0.58-0.15,1.21-0.24,1.76-0.24c0.11,0,0.22,0,0.32,0.01
				c0.05-0.2,0.11-0.53,0.13-0.71l1.08,0.26c-0.07,0.14-0.15,0.42-0.23,0.62c1.33,0.4,2.17,1.4,2.17,2.64c0,1.57-0.98,3-3.6,3.41
				l-0.59-0.91c2.05-0.23,3.12-1.28,3.12-2.54c0-0.77-0.48-1.45-1.4-1.74c-0.6,1.53-1.5,2.73-2.39,3.46
				c0.08,0.31,0.18,0.59,0.26,0.87l-1,0.3c-0.05-0.17-0.11-0.34-0.17-0.54c-0.57,0.32-1.2,0.53-1.79,0.53
				c-0.76,0-1.39-0.46-1.39-1.47c0-1.42,1.21-2.88,2.74-3.6c0.02-0.51,0.07-1.02,0.11-1.5c-0.19,0-0.36,0-0.54,0
				c-0.52,0-1.38-0.05-1.85-0.08l-0.03-1.02c0.39,0.07,1.35,0.14,1.92,0.14c0.2,0,0.41,0,0.6,0c0.02-0.27,0.06-0.52,0.08-0.74
				c0.02-0.2,0.03-0.43,0.03-0.58l1.13,0.03C252.38,294.7,252.34,294.9,252.31,295.06z M249.87,302.29c0.37,0,0.85-0.17,1.33-0.48
				c-0.14-0.78-0.24-1.67-0.24-2.49c-0.98,0.59-1.67,1.56-1.67,2.35C249.28,302.08,249.47,302.29,249.87,302.29z M252.09,301.08
				c0.64-0.63,1.23-1.43,1.66-2.51h-0.08c-0.67,0-1.27,0.13-1.75,0.31c0,0.09,0,0.18,0,0.26
				C251.92,299.85,251.99,300.49,252.09,301.08z"/>
			<path class="st1" d="M263.11,298.52c0.76-0.24,2.6-0.88,3.91-0.88c1.64,0,2.78,0.97,2.78,2.54c0,2.07-1.91,3.27-5.1,3.46
				l-0.46-1.07c2.44-0.08,4.43-0.75,4.43-2.41c0-0.89-0.69-1.53-1.74-1.53c-1.33,0-3.64,0.96-4.44,1.3l-0.46-1.14
				C262.33,298.74,262.76,298.62,263.11,298.52z"/>
			<path class="st1" d="M278.33,295.54c-0.03,0.19-0.08,0.41-0.13,0.65c0.67-0.1,1.35-0.22,1.99-0.38v1.09
				c-0.69,0.17-1.46,0.29-2.21,0.37c-0.11,0.47-0.23,0.98-0.35,1.44c-0.4,1.55-1.14,3.82-1.74,5.06l-1.2-0.41
				c0.65-1.12,1.45-3.39,1.87-4.93c0.09-0.34,0.18-0.7,0.26-1.07c-0.32,0.01-0.62,0.02-0.89,0.02c-0.51,0-0.91-0.01-1.31-0.04
				l-0.02-1.08c0.54,0.07,0.92,0.09,1.34,0.09c0.34,0,0.71-0.01,1.1-0.04c0.05-0.33,0.11-0.62,0.13-0.83
				c0.05-0.34,0.07-0.75,0.04-0.99l1.32,0.1C278.48,294.86,278.39,295.32,278.33,295.54z M279.67,301.61c0,0.5,0.3,0.95,1.71,0.95
				c0.73,0,1.47-0.09,2.2-0.22l-0.03,1.11c-0.6,0.08-1.34,0.15-2.18,0.15c-1.79,0-2.76-0.58-2.76-1.67c0-0.46,0.09-0.92,0.19-1.38
				l1.02,0.1C279.71,300.99,279.67,301.33,279.67,301.61z M281.48,297.84c0.64,0,1.3,0.02,1.92,0.09l-0.03,1.06
				c-0.56-0.08-1.21-0.14-1.87-0.14c-0.71,0-1.39,0.04-2.08,0.12v-1.02C280.01,297.88,280.77,297.84,281.48,297.84z"/>
			<path class="st1" d="M171.73,312.39c-0.3,0.79-0.66,1.59-1.08,2.35v7.42h-0.97v-5.84c-0.27,0.38-0.55,0.74-0.82,1.06
				c-0.11-0.25-0.4-0.79-0.57-1.04c0.99-1.03,1.91-2.63,2.46-4.24L171.73,312.39z M178.2,314.3v4.96h-1v-0.61h-1.85v3.5h-1.01v-3.5
				h-1.78v0.68h-0.97v-5.04h2.75v-2.1h1.01v2.1h2.85V314.3z M174.34,317.71v-2.46h-1.78v2.46H174.34z M177.2,317.71v-2.46h-1.85
				v2.46H177.2z"/>
			<path class="st1" d="M183.14,316.34v5.83h-1.01v-9.66h4.06v3.83L183.14,316.34L183.14,316.34z M183.14,313.28v0.76h2.08v-0.76
				H183.14z M185.22,315.58v-0.81h-2.08v0.81H185.22z M191.21,320.9c0,0.58-0.12,0.91-0.52,1.09c-0.38,0.17-0.99,0.18-1.91,0.18
				c-0.04-0.28-0.19-0.72-0.32-1h-2.97v0.55h-0.93v-4.61h4.12v4.03c0.54,0.02,1.07,0.01,1.24,0.01c0.2-0.01,0.25-0.07,0.25-0.25
				v-4.52h-3.12v-3.85h4.16V320.9z M185.49,317.87v0.86h2.23v-0.86H185.49z M187.73,320.39v-0.91h-2.23v0.91H187.73z M188.04,313.28
				v0.76h2.15v-0.76H188.04z M190.18,315.6v-0.84h-2.15v0.84H190.18z"/>
			<path class="st1" d="M199.23,313.73c1.08-0.04,2.23-0.14,3.23-0.32v1.02c-1.08,0.15-2.43,0.25-3.62,0.29
				c-0.24,0.52-0.54,1.03-0.85,1.45c0.36-0.21,0.98-0.33,1.41-0.33c0.69,0,1.27,0.32,1.47,0.94c0.68-0.32,1.24-0.55,1.76-0.79
				c0.37-0.17,0.69-0.31,1.05-0.48l0.45,1.01c-0.32,0.1-0.79,0.28-1.12,0.41c-0.56,0.22-1.28,0.51-2.05,0.86
				c0.01,0.63,0.02,1.51,0.03,2.04h-1.05c0.02-0.38,0.03-1.01,0.04-1.55c-0.95,0.52-1.54,1.02-1.54,1.67c0,0.75,0.72,0.9,1.83,0.9
				c0.89,0,2.09-0.11,3.06-0.29l-0.03,1.11c-0.79,0.1-2.07,0.2-3.06,0.2c-1.64,0-2.92-0.39-2.92-1.75c0-1.35,1.32-2.21,2.6-2.86
				c-0.14-0.38-0.5-0.55-0.9-0.55c-0.67,0-1.36,0.35-1.83,0.79c-0.32,0.31-0.64,0.71-1,1.18l-0.95-0.7
				c1.29-1.21,2.04-2.28,2.49-3.21c-0.11,0-0.22,0-0.32,0c-0.46,0-1.22-0.02-1.84-0.07v-1.03c0.58,0.09,1.36,0.12,1.89,0.12
				c0.21,0,0.43,0,0.65-0.01c0.14-0.45,0.23-0.91,0.25-1.31l1.14,0.09C199.46,312.85,199.37,313.26,199.23,313.73z"/>
			<path class="st1" d="M215.75,318.56c0.66,0.5,1.58,0.9,2.46,1.12c-0.22,0.19-0.51,0.56-0.66,0.81c-0.5-0.17-1-0.39-1.46-0.67
				c-0.11,1.21-0.24,1.76-0.47,2c-0.21,0.19-0.42,0.25-0.74,0.27c-0.25,0.02-0.76,0.02-1.3,0c-0.02-0.25-0.12-0.59-0.25-0.83
				c0.47,0.04,0.95,0.06,1.13,0.06c0.18,0,0.26-0.02,0.35-0.09c0.11-0.11,0.2-0.41,0.26-1.05h-2.19c-0.47,0.98-1.39,1.63-3.31,2.02
				c-0.09-0.24-0.33-0.6-0.51-0.79c1.49-0.25,2.27-0.65,2.71-1.23h-1.99v-0.38c-0.38,0.21-0.83,0.4-1.3,0.57
				c-0.11-0.23-0.4-0.57-0.58-0.73c0.92-0.3,1.68-0.67,2.25-1.1h-1.98v-0.8h2.85c0.14-0.18,0.25-0.34,0.35-0.53h-1.96v-3.04h7.28
				v3.04h-4.24c-0.1,0.19-0.19,0.35-0.31,0.53h5.73v0.8h-2.12V318.56z M210.71,313.56h-2.38v-0.81h2.38v-0.67h0.99v0.67h2.64v-0.67
				h1.01v0.67h2.4v0.81h-2.4v0.48h-1.01v-0.48h-2.64v0.48h-0.99V313.56z M210.41,315.42h5.28v-0.58h-5.28V315.42z M210.41,316.61
				h5.28v-0.59h-5.28V316.61z M215.52,319.44c-0.37-0.26-0.69-0.57-0.97-0.88h-3.06c-0.31,0.31-0.66,0.62-1.07,0.88h1.71
				c0.07-0.22,0.12-0.45,0.15-0.69h0.99c-0.03,0.24-0.08,0.47-0.13,0.69H215.52z"/>
			<path class="st1" d="M223.82,312.49l1.28,0.04c-0.05,0.29-0.14,0.87-0.23,1.6l0.03-0.01l0.36,0.46c-0.13,0.2-0.34,0.52-0.52,0.79
				c-0.01,0.15-0.02,0.31-0.04,0.47c0.87-0.78,2.22-1.77,3.31-1.77s1.62,0.64,1.62,1.55c0,1.11-0.4,2.88-0.4,4.02
				c0,0.33,0.17,0.59,0.51,0.59c0.47,0,1.02-0.31,1.56-0.86l0.17,1.2c-0.56,0.54-1.23,0.88-2.05,0.88c-0.77,0-1.29-0.53-1.29-1.51
				c0-1.21,0.41-2.94,0.41-3.97c0-0.6-0.31-0.87-0.84-0.87c-0.86,0-2.12,1.03-3.08,2.07c-0.02,0.4-0.03,0.78-0.03,1.12
				c0,0.96-0.01,1.74,0.06,2.74c0.01,0.2,0.03,0.52,0.05,0.75h-1.19c0.02-0.23,0.03-0.55,0.03-0.73c0.01-1.03,0.01-1.66,0.04-2.88
				c-0.52,0.76-1.17,1.71-1.63,2.34l-0.68-0.96c0.61-0.77,1.8-2.35,2.4-3.25c0.02-0.32,0.04-0.64,0.07-0.96
				c-0.52,0.07-1.43,0.19-2.09,0.27l-0.11-1.12c0.27,0.01,0.51,0.01,0.83-0.01c0.34-0.02,0.91-0.09,1.44-0.17
				c0.03-0.47,0.06-0.84,0.06-0.96C223.86,313.1,223.86,312.79,223.82,312.49z"/>
			<path class="st1" d="M237.35,313.12c0.57,0,3.08-0.07,3.67-0.12c0.39-0.03,0.58-0.05,0.7-0.1l0.61,0.79
				c-0.23,0.14-0.46,0.3-0.69,0.47c-0.56,0.42-1.91,1.56-2.7,2.2c0.44-0.13,0.88-0.19,1.32-0.19c1.84,0,3.2,1.13,3.2,2.67
				c0,1.75-1.4,3-3.87,3c-1.52,0-2.53-0.67-2.53-1.67c0-0.81,0.73-1.55,1.82-1.55c1.36,0,2.14,0.88,2.29,1.93
				c0.76-0.33,1.17-0.92,1.17-1.73c0-1.03-1.01-1.78-2.39-1.78c-1.76,0-2.79,0.83-4.09,2.21l-0.8-0.81c0.86-0.7,2.23-1.86,2.88-2.4
				c0.62-0.51,1.89-1.56,2.44-2.05c-0.58,0.02-2.49,0.11-3.06,0.14c-0.28,0.01-0.56,0.03-0.81,0.07l-0.03-1.13
				C236.74,313.11,237.08,313.12,237.35,313.12z M239.39,320.86c0.28,0,0.54-0.01,0.78-0.04c-0.09-0.8-0.57-1.36-1.3-1.36
				c-0.46,0-0.8,0.3-0.8,0.63C238.07,320.57,238.61,320.86,239.39,320.86z"/>
			<path class="st1" d="M251.81,320.54c0-0.5,0.36-0.84,0.83-0.84s0.83,0.34,0.83,0.84s-0.36,0.84-0.83,0.84
				S251.81,321.04,251.81,320.54z M251.93,314.53l-0.03-1.45h1.47l-0.03,1.45l-0.25,4.05h-0.9L251.93,314.53z"/>
			<path class="st1" d="M161.05,334.18c0.75,2.29,2.13,4.15,4.21,5.02c-0.25,0.22-0.59,0.65-0.76,0.96
				c-2.06-0.96-3.39-2.74-4.25-5.07c-0.56,1.99-1.75,3.89-4.25,5.07c-0.17-0.27-0.5-0.64-0.78-0.86c2.62-1.14,3.69-3.12,4.12-5.12
				h-3.91v-1.06h4.09c0.13-1.1,0.12-2.16,0.13-3.04h1.11c-0.01,0.89-0.02,1.95-0.15,3.04h4.43v1.06H161.05z"/>
			<path class="st1" d="M170.85,333.56c-0.6,0.43-1.25,0.83-1.91,1.14c-0.11-0.23-0.38-0.62-0.61-0.84c1.88-0.86,3.67-2.44,4.5-3.79
				h1.06c1.17,1.62,2.99,2.96,4.71,3.63c-0.24,0.25-0.47,0.62-0.65,0.92c-0.64-0.31-1.31-0.69-1.95-1.14v0.86h-5.15L170.85,333.56
				L170.85,333.56z M168.96,335.5h9.03v0.96h-5.04c-0.36,0.74-0.77,1.56-1.17,2.27c1.22-0.04,2.58-0.1,3.93-0.15
				c-0.41-0.46-0.85-0.92-1.28-1.31l0.88-0.47c1,0.85,2.05,2.01,2.55,2.83l-0.94,0.58c-0.12-0.21-0.29-0.45-0.48-0.72
				c-2.62,0.13-5.41,0.25-7.28,0.33l-0.13-1l1.63-0.05c0.36-0.68,0.76-1.56,1.02-2.3h-2.73L168.96,335.5L168.96,335.5z
				 M175.88,333.41c-0.99-0.7-1.89-1.53-2.48-2.33c-0.53,0.77-1.36,1.6-2.34,2.33H175.88z"/>
			<path class="st1" d="M185.97,331.45c-0.03,0.24-0.08,0.58-0.13,1c0.81,0,1.55-0.06,2.13-0.14l-0.03,1.03
				c-0.68,0.07-1.31,0.11-2.21,0.11h-0.02c-0.08,0.57-0.15,1.2-0.22,1.77c0.06,0,0.1,0,0.15,0c0.71,0,1.51-0.03,2.25-0.13
				l-0.03,1.03c-0.67,0.07-1.34,0.11-2.06,0.11c-0.14,0-0.28,0-0.42,0c-0.03,0.38-0.06,0.73-0.06,0.96c0,1,0.58,1.58,1.76,1.58
				c1.61,0,2.57-0.71,2.57-1.75c0-0.75-0.4-1.52-1.17-2.2l1.22-0.25c0.74,0.87,1.1,1.64,1.1,2.58c0,1.65-1.47,2.73-3.75,2.73
				c-1.59,0-2.82-0.69-2.82-2.52c0-0.29,0.03-0.7,0.08-1.2c-0.8-0.07-1.57-0.2-2.2-0.37l0.05-1.06c0.72,0.25,1.51,0.37,2.26,0.44
				c0.08-0.58,0.15-1.2,0.23-1.78c-0.79-0.07-1.62-0.21-2.29-0.38l0.06-1.01c0.67,0.22,1.53,0.35,2.34,0.42
				c0.06-0.4,0.09-0.75,0.11-1.03c0.03-0.44,0.03-0.65,0.01-0.87l1.23,0.07C186.05,330.92,186.01,331.18,185.97,331.45z"/>
			<path class="st1" d="M196.33,334.26v5.91h-1.01v-9.66h4.08v3.75H196.33z M196.33,331.27v0.74h2.11v-0.74H196.33z M198.44,333.52
				v-0.8h-2.11v0.8H198.44z M201.36,337.61v2.37h-0.91v-2.37h-1.33c-0.09,0.74-0.44,1.86-1.44,2.53c-0.14-0.19-0.45-0.46-0.66-0.6
				c0.81-0.5,1.12-1.32,1.21-1.93h-1.26v-0.85h1.29v-1.05h-1.09v-0.81h5.33v0.81h-1.14v1.05h1.36v0.85H201.36z M200.44,336.76v-1.05
				h-1.31v1.05H200.44z M204.42,338.92c0,0.56-0.11,0.86-0.47,1.03c-0.35,0.17-0.9,0.2-1.73,0.19c-0.03-0.27-0.18-0.74-0.33-1.01
				c0.56,0.01,1.12,0.01,1.3,0.01c0.17-0.01,0.22-0.07,0.22-0.23v-4.62h-3.16v-3.77h4.17V338.92z M201.22,331.27v0.74h2.18v-0.74
				H201.22z M203.4,333.54v-0.83h-2.18v0.83H203.4z"/>
			<path class="st1" d="M211.31,330.4c-0.3,0.78-0.67,1.57-1.09,2.32v7.43h-0.97v-5.91c-0.31,0.42-0.63,0.8-0.95,1.14
				c-0.1-0.24-0.4-0.79-0.56-1.03c1.03-1.02,2.01-2.63,2.61-4.24L211.31,330.4z M218.03,339.7h-5.2v0.44h-0.98v-4.63
				c-0.25,0.31-0.51,0.58-0.77,0.81c-0.17-0.18-0.54-0.54-0.77-0.7c0.84-0.68,1.63-1.74,2.08-2.84h-0.8v-2.28h0.93v1.41h1.56v-1.76
				h1.01v1.76h1.66v-1.41h0.99v2.28h-5.31l0.92,0.26c-0.14,0.33-0.31,0.67-0.5,0.99h1.71c0.17-0.4,0.32-0.86,0.4-1.2l1.06,0.24
				c-0.15,0.32-0.31,0.66-0.47,0.96h2.37v0.8h-2.42v0.83h2.1v0.76h-2.1v0.85h2.1v0.76h-2.1v0.86h2.54L218.03,339.7L218.03,339.7z
				 M214.51,334.84h-1.68v0.83h1.68V334.84z M214.51,336.42h-1.68v0.85h1.68V336.42z M212.83,338.88h1.68v-0.86h-1.68V338.88z"/>
			<path class="st1" d="M222.58,331.88c0.8-0.08,2.76-0.26,4.79-0.44c1.18-0.1,2.28-0.17,3.04-0.19v1.11
				c-0.62,0-1.57,0.01-2.15,0.15c-1.46,0.44-2.43,2.01-2.43,3.31c0,2,1.87,2.67,3.69,2.75l-0.4,1.18c-2.16-0.11-4.41-1.27-4.41-3.69
				c0-1.66,0.98-2.99,1.87-3.58c-1.11,0.11-3.67,0.37-4.91,0.64l-0.11-1.2C221.98,331.92,222.37,331.9,222.58,331.88z M229.73,335.1
				l-0.68,0.31c-0.26-0.56-0.55-1.07-0.88-1.54l0.66-0.29C229.09,333.97,229.49,334.64,229.73,335.1z M230.98,334.61l-0.67,0.32
				c-0.29-0.56-0.57-1.04-0.92-1.52l0.66-0.3C230.31,333.48,230.74,334.14,230.98,334.61z"/>
			<path class="st1" d="M239.01,330.57l1.18-0.13c0.04,0.41,0.13,0.83,0.23,1.24c0.77-0.1,1.52-0.26,2.22-0.5l0.14,1
				c-0.62,0.18-1.36,0.33-2.11,0.43c0.08,0.23,0.14,0.45,0.22,0.65c0.07,0.19,0.14,0.38,0.22,0.59c0.9-0.11,1.63-0.3,2.16-0.46
				l0.18,1.03c-0.53,0.13-1.18,0.26-1.9,0.36c0.21,0.43,0.44,0.84,0.68,1.2c0.13,0.2,0.27,0.35,0.45,0.52l-0.55,0.81
				c-0.62-0.14-1.72-0.26-2.49-0.34l0.09-0.84c0.53,0.05,1.19,0.12,1.53,0.15c-0.29-0.45-0.54-0.92-0.75-1.39
				c-1.34,0.11-3.13,0.11-4.82,0l-0.05-1.02c1.65,0.17,3.22,0.17,4.47,0.07c-0.07-0.17-0.13-0.33-0.19-0.48
				c-0.1-0.29-0.18-0.54-0.25-0.77c-1.06,0.05-2.38,0.04-3.75-0.09l-0.07-1c1.31,0.14,2.51,0.2,3.54,0.14
				c-0.01-0.03-0.02-0.07-0.03-0.1C239.25,331.3,239.14,330.93,239.01,330.57z M236.98,337.56c0,0.87,0.79,1.28,2.4,1.28
				c1.03,0,1.89-0.08,2.68-0.24l-0.05,1.11c-0.77,0.12-1.69,0.2-2.62,0.2c-2.18,0-3.46-0.65-3.48-2.13
				c-0.01-0.66,0.21-1.16,0.46-1.65l1.08,0.21C237.19,336.71,236.98,337.09,236.98,337.56z"/>
			<path class="st1" d="M250.55,331.12c0.57,0,3.08-0.07,3.67-0.12c0.39-0.03,0.58-0.05,0.7-0.1l0.61,0.79
				c-0.23,0.14-0.46,0.3-0.69,0.47c-0.56,0.42-1.91,1.56-2.7,2.2c0.44-0.13,0.88-0.19,1.32-0.19c1.84,0,3.2,1.13,3.2,2.67
				c0,1.75-1.4,3-3.87,3c-1.52,0-2.53-0.67-2.53-1.67c0-0.81,0.73-1.55,1.82-1.55c1.36,0,2.14,0.88,2.29,1.93
				c0.76-0.33,1.17-0.92,1.17-1.73c0-1.03-1.01-1.78-2.39-1.78c-1.76,0-2.79,0.83-4.09,2.21l-0.8-0.81c0.86-0.7,2.23-1.86,2.88-2.4
				c0.62-0.51,1.89-1.56,2.44-2.05c-0.58,0.02-2.49,0.11-3.06,0.14c-0.28,0.01-0.56,0.03-0.81,0.07l-0.03-1.13
				C249.94,331.11,250.28,331.12,250.55,331.12z M252.59,338.86c0.28,0,0.54-0.01,0.78-0.04c-0.09-0.8-0.57-1.36-1.3-1.36
				c-0.46,0-0.8,0.3-0.8,0.63C251.27,338.57,251.81,338.86,252.59,338.86z"/>
			<path class="st1" d="M265.01,338.54c0-0.5,0.36-0.84,0.83-0.84s0.83,0.34,0.83,0.84s-0.36,0.84-0.83,0.84
				S265.01,339.04,265.01,338.54z M265.12,332.53l-0.03-1.45h1.47l-0.03,1.45l-0.25,4.05h-0.9L265.12,332.53z"/>
		</g>
	</g>
	<g>
		<g>
			<path class="st1" d="M134.8,221.6h-8.25v0.94h-2.86v-10.62c-0.17,0.19-0.36,0.4-0.53,0.59c-0.21-0.36-0.52-0.84-0.86-1.3v0.15
				h-6.45v-2.27h6.34c0.15-0.21,0.29-0.42,0.44-0.63h-7.79v-2.37h8.15v1.81c1.03-1.7,1.89-3.7,2.35-5.33l3.02,0.84
				c-0.4,1.07-0.86,2.18-1.41,3.28h1.66c0.5-1.15,1.03-2.6,1.3-3.76l3.19,0.69c-0.5,1.05-1.03,2.14-1.51,3.06h2.77v2.73h-3.07v1.34
				h2.58v2.71h-2.58v1.26h2.58v2.71h-2.58v1.37h3.49v2.8H134.8z M122.35,221.48h-4.01v0.76h-2.54v-7.29h6.55V221.48z M122.31,214.26
				h-6.45v-2.27h6.45V214.26z M122.26,205.48h-6.34v-2.27h6.34V205.48z M118.34,217.32v1.78h1.43v-1.78H118.34z M128.48,209.41
				h-1.93v1.34h1.93V209.41z M128.48,213.46h-1.93v1.26h1.93V213.46z M126.55,218.79h1.93v-1.37h-1.93V218.79z"/>
			<path class="st1" d="M143.03,205.73c1.97-0.17,5.14-0.42,8.99-0.76c2.1-0.17,4.58-0.32,6.11-0.38l0.02,3.28
				c-1.09,0.02-2.88,0.02-4.03,0.25c-2.27,0.5-4.22,2.96-4.22,5.46c0,3.09,2.9,4.3,6.53,4.51l-1.2,3.53
				c-4.68-0.36-8.69-2.9-8.69-7.37c0-2.88,1.53-5.1,2.67-6.13c-1.81,0.19-5.5,0.61-8.02,1.18l-0.31-3.46
				C141.71,205.82,142.63,205.77,143.03,205.73z M156.81,212.45l-1.87,0.82c-0.57-1.22-0.92-1.91-1.6-2.88l1.83-0.76
				C155.69,210.41,156.43,211.67,156.81,212.45z M159.28,211.36l-1.85,0.88c-0.61-1.2-1.01-1.85-1.7-2.79l1.81-0.82
				C158.09,209.38,158.86,210.6,159.28,211.36z"/>
			<path class="st1" d="M174.47,205.65c-0.04,0.27-0.1,0.71-0.19,1.3c1.43-0.02,2.75-0.15,3.59-0.29l-0.1,3.02
				c-1.16,0.13-2.23,0.21-3.91,0.21c-0.11,0.76-0.19,1.55-0.29,2.33h0.02c1.2,0,2.81-0.1,4.12-0.25l-0.08,3
				c-1.03,0.1-2.23,0.19-3.49,0.19h-0.86c-0.04,0.48-0.06,0.9-0.06,1.22c0,1.57,1.01,2.33,2.88,2.33c2.79,0,4.16-1.32,4.16-2.79
				c0-1.43-0.8-2.67-2.08-3.95l3.57-0.76c1.37,1.85,1.97,3.34,1.97,5.12c0,3.19-2.88,5.69-7.73,5.69c-3.57,0-5.92-1.53-5.92-5.1
				c0-0.46,0.04-1.15,0.13-1.95c-1.47-0.15-2.75-0.38-3.8-0.65l0.17-3.06c1.32,0.44,2.67,0.69,3.97,0.82
				c0.08-0.78,0.19-1.57,0.29-2.35c-1.41-0.15-2.81-0.42-3.99-0.76l0.15-2.92c1.18,0.4,2.67,0.65,4.18,0.78
				c0.06-0.5,0.11-0.99,0.13-1.39c0.08-1.11,0.08-1.55,0.04-2.08l3.57,0.19C174.68,204.43,174.57,205.06,174.47,205.65z"/>
			<path class="st1" d="M200.13,208.38c2.12-1.3,4.68-3.57,6-5.17l2.75,2.62c-1.58,1.53-3.61,3.17-5.61,4.49v8.27
				c0,1.01,0.04,2.46,0.21,3.04h-4.03c0.08-0.57,0.17-2.04,0.17-3.04v-6.15c-2.12,1.07-4.66,2.14-7.1,2.83l-1.57-3.21
				C194.78,211.11,197.78,209.8,200.13,208.38z"/>
			<path class="st1" d="M217.52,212.6c0.92-0.92,2.46-2.83,3.97-4.64c1.32-1.57,2.71-1.81,4.45-0.17c1.49,1.41,2.98,2.96,4.26,4.35
				c1.41,1.51,3.59,3.84,5.21,5.56l-2.81,3.02c-1.37-1.7-3.09-3.88-4.26-5.29c-1.24-1.49-3.04-3.51-3.74-4.22
				c-0.61-0.61-1.07-0.59-1.6,0.11c-0.73,0.97-2.06,2.9-2.86,4.03c-0.5,0.73-1.03,1.53-1.43,2.14l-3.07-3.17
				C216.32,213.77,216.83,213.29,217.52,212.6z M232.2,209.2l-2.25,0.97c-0.67-1.45-1.09-2.29-1.91-3.44l2.18-0.9
				C230.85,206.76,231.73,208.25,232.2,209.2z M235.14,207.89l-2.18,1.05c-0.73-1.45-1.2-2.22-2.02-3.34l2.16-0.99
				C233.75,205.52,234.67,206.97,235.14,207.89z"/>
			<path class="st1" d="M250.3,215.64c3.78-2.18,6.61-5.44,8.02-8.4l1.97,3.59c-1.68,2.98-4.66,5.9-8.17,7.96
				c-2.14,1.26-4.87,2.35-7.52,2.77l-2.16-3.36C245.53,217.78,248.24,216.84,250.3,215.64z M251.01,208.78l-2.6,2.67
				c-1.11-1.22-3.76-3.53-5.27-4.6l2.41-2.58C247,205.25,249.75,207.43,251.01,208.78z"/>
			<path class="st1" d="M271.85,206.47c0-0.84-0.08-1.93-0.25-2.73h3.97c-0.08,0.8-0.21,1.72-0.21,2.73v2.88
				c2.83,0.82,6.91,2.31,8.67,3.17l-1.45,3.55c-2.12-1.09-5-2.2-7.22-3v5.4c0,0.57,0.13,2.23,0.23,3.17h-3.99
				c0.15-0.9,0.25-2.31,0.25-3.17L271.85,206.47L271.85,206.47z"/>
			<path class="st1" d="M300.2,206.07c-0.13,0.57-0.25,1.16-0.38,1.7c0.57-0.04,1.05-0.06,1.43-0.06c2.41,0,4.01,1.13,4.01,4.28
				c0,2.46-0.27,5.9-1.18,7.75c-0.71,1.51-1.95,2.04-3.65,2.04c-0.82,0-1.81-0.13-2.56-0.29l-0.55-3.34
				c0.78,0.21,2.04,0.44,2.56,0.44c0.67,0,1.16-0.23,1.43-0.8c0.53-1.05,0.78-3.51,0.78-5.46c0-1.53-0.63-1.72-1.93-1.72
				c-0.25,0-0.59,0.02-1.01,0.06c-0.84,3.28-2.42,8.36-4.2,11.23l-3.32-1.32c1.99-2.69,3.36-6.68,4.14-9.55
				c-0.55,0.08-1.01,0.15-1.3,0.19c-0.67,0.11-1.89,0.27-2.58,0.4l-0.29-3.42c0.82,0.06,1.62,0.02,2.46,0
				c0.61-0.02,1.47-0.08,2.42-0.15c0.29-1.64,0.44-3.09,0.4-4.39l3.78,0.4C300.49,204.68,300.32,205.48,300.2,206.07z
				 M308.78,206.03l-0.69,0.29c1.26,1.97,2.83,5.61,3.4,7.54l-3.25,1.49c-0.5-2.44-1.91-6.15-3.42-8.08l1.78-0.76
				c-0.4-0.82-0.92-1.85-1.43-2.56l1.97-0.8C307.67,203.93,308.41,205.29,308.78,206.03z M311.39,205l-1.97,0.84
				c-0.42-0.86-1.09-2.1-1.66-2.9l1.97-0.8C310.27,202.94,311.03,204.28,311.39,205z"/>
			<path class="st1" d="M144.04,243.52v11.51h-2.98v-19.19h8.4v7.69L144.04,243.52L144.04,243.52z M144.04,237.95v0.71h2.56v-0.71
				H144.04z M146.6,241.37v-0.78h-2.56v0.78H146.6z M153.3,250.49v4.16h-2.67v-4.16h-1.47c-0.23,1.45-0.97,3.42-2.62,4.58
				c-0.42-0.52-1.32-1.32-1.93-1.72c1.13-0.69,1.7-1.87,1.93-2.86h-1.81v-2.46h1.93v-1.2H145v-2.37h10.04v2.37h-1.74v1.2h2.04v2.46
				H153.3z M150.63,248.03v-1.2h-1.39v1.2H150.63z M159.1,251.6c0,1.45-0.23,2.27-1.07,2.77c-0.86,0.5-1.97,0.59-3.59,0.57
				c-0.08-0.82-0.48-2.23-0.88-3c0.8,0.04,1.81,0.04,2.12,0.04c0.32,0,0.42-0.13,0.42-0.42v-7.98h-5.54v-7.75h8.55L159.1,251.6
				L159.1,251.6z M153.45,237.95v0.71h2.65v-0.71H153.45z M156.09,241.44v-0.84h-2.65v0.84H156.09z"/>
			<path class="st1" d="M185.16,254.31h-9.15v0.67h-2.92v-8.1c-0.27,0.29-0.57,0.59-0.84,0.84c-0.42-0.46-1.24-1.28-1.89-1.83V255
				h-2.9v-10.2c-0.34,0.42-0.69,0.82-1.03,1.2c-0.27-0.76-1.09-2.46-1.6-3.21c1.81-1.83,3.55-4.72,4.56-7.62l2.88,0.9
				c-0.52,1.39-1.18,2.83-1.91,4.22v4.98c1.39-1.18,2.62-2.92,3.4-4.7h-1.34v-4.83h2.77v2.29h1.74v-2.81h3.02v2.81h1.91v-2.29h2.92
				v4.83h-5.21l2.39,0.53l-0.65,1.24h3.55v2.33h-3.93v0.97h3.4v2.16h-3.4v1.01h3.4v2.16h-3.4V252h4.22L185.16,254.31L185.16,254.31z
				 M176.78,241.08c-0.17,0.42-0.36,0.82-0.57,1.24h2.12c0.19-0.61,0.36-1.22,0.46-1.76h-3.82L176.78,241.08z M178.04,244.65H176
				v0.97h2.04V244.65z M178.04,247.78H176v1.01h2.04V247.78z M176,251.98h2.04v-1.03H176V251.98z"/>
			<path class="st1" d="M193.43,238.2c1.97-0.17,5.14-0.42,8.99-0.76c2.1-0.17,4.58-0.31,6.11-0.38l0.02,3.28
				c-1.09,0.02-2.88,0.02-4.03,0.25c-2.27,0.5-4.22,2.96-4.22,5.46c0,3.09,2.9,4.3,6.53,4.51l-1.2,3.53
				c-4.68-0.36-8.69-2.9-8.69-7.37c0-2.88,1.53-5.1,2.67-6.13c-1.81,0.19-5.5,0.61-8.02,1.18l-0.32-3.46
				C192.11,238.29,193.03,238.25,193.43,238.2z M207.21,244.92l-1.87,0.82c-0.57-1.22-0.92-1.91-1.6-2.88l1.83-0.76
				C206.09,242.88,206.83,244.14,207.21,244.92z M209.68,243.83l-1.85,0.88c-0.61-1.2-1.01-1.85-1.7-2.79l1.81-0.82
				C208.49,241.86,209.26,243.07,209.68,243.83z"/>
			<path class="st1" d="M226.09,242.23c-0.06-0.19-0.13-0.36-0.19-0.53c-0.13-0.4-0.25-0.73-0.34-1.03
				c-1.97,0.08-4.35,0.04-6.99-0.21l-0.17-2.9c2.46,0.27,4.49,0.38,6.34,0.34c-0.19-0.61-0.4-1.24-0.63-1.91l3.4-0.36
				c0.08,0.74,0.21,1.41,0.34,2.06c1.39-0.17,2.69-0.46,4.03-0.88l0.4,2.9c-1.13,0.31-2.39,0.57-3.72,0.73
				c0.06,0.25,0.15,0.48,0.23,0.74c0.08,0.23,0.19,0.5,0.29,0.8c1.68-0.23,2.88-0.55,3.91-0.84l0.5,3
				c-0.95,0.23-1.97,0.42-3.09,0.59c0.27,0.53,0.57,1.03,0.84,1.45c0.32,0.46,0.61,0.8,1.03,1.2l-1.49,2.29
				c-1.18-0.21-3.63-0.5-5.21-0.67l0.25-2.42c0.74,0.06,1.76,0.15,2.35,0.19c-0.34-0.59-0.63-1.15-0.9-1.72
				c-2.58,0.15-5.94,0.15-9.07-0.04l-0.17-2.98C221.13,242.3,223.82,242.34,226.09,242.23z M221.66,249.39
				c0,1.45,1.43,1.95,3.93,1.95c2,0,3.93-0.17,5.42-0.46l-0.19,3.23c-1.47,0.23-3.55,0.4-5.23,0.4c-4.24,0-7.01-1.26-7.08-4.41
				c-0.04-1.45,0.46-2.56,0.97-3.59l3.15,0.59C222.12,247.78,221.66,248.51,221.66,249.39z"/>
			<path class="st1" d="M246.88,236.86c1.13,0,5.33-0.06,6.57-0.17c1.01-0.08,1.6-0.17,1.87-0.25l1.57,2.25
				c-0.55,0.34-1.09,0.65-1.62,1.03c-1.18,0.8-3.02,2.31-4.18,3.19c0.55-0.11,0.97-0.13,1.47-0.13c3.61,0,6.45,2.31,6.45,5.48
				c0,3.28-2.37,6.15-7.81,6.15c-2.96,0-5.42-1.39-5.42-3.7c0-1.85,1.68-3.57,4.07-3.57c2.56,0,4.2,1.49,4.56,3.49
				c0.84-0.57,1.24-1.39,1.24-2.41c0-1.81-1.85-2.94-4.16-2.94c-3.07,0-5.27,1.85-7.29,4.3l-2.31-2.39c1.34-1.05,3.8-3.13,5.04-4.16
				c1.18-0.97,3.13-2.48,4.14-3.38c-1.05,0.02-3.21,0.1-4.35,0.19c-0.63,0.04-1.39,0.1-1.89,0.19l-0.1-3.3
				C245.39,236.82,246.18,236.86,246.88,236.86z M250.55,251.51c0.34,0,0.65-0.02,0.95-0.04c-0.11-1.15-0.74-1.91-1.62-1.91
				c-0.69,0-1.09,0.42-1.09,0.84C248.79,251.05,249.48,251.51,250.55,251.51z"/>
			<path class="st1" d="M273.88,251.14c0-1.24,0.9-2.1,2.14-2.1c1.24,0,2.14,0.86,2.14,2.1s-0.9,2.14-2.14,2.14
				C274.77,253.28,273.88,252.38,273.88,251.14z M274.09,240.81l-0.13-3.49h4.12l-0.13,3.49l-0.63,6.63h-2.6L274.09,240.81z"/>
		</g>
	</g>
	<g>
		<g>
			<g>
				<path class="st1" d="M191.98,150.13c-1.84,1.9-2.98,4.48-2.98,7.34c0,2.83,1.12,5.4,2.94,7.29c1.41-1.63,2.36-4.34,2.36-7.34
					C194.3,154.45,193.38,151.77,191.98,150.13z"/>
				<path class="st1" d="M205.54,148.81c-1.7-1.18-3.77-1.87-6-1.87s-4.29,0.69-6,1.87c1.7,1.99,2.78,5.08,2.78,8.61
					c0,3.57-1.1,6.68-2.83,8.67c1.71,1.2,3.8,1.91,6.05,1.91s4.33-0.71,6.05-1.91c-1.73-1.99-2.83-5.11-2.83-8.67
					C202.75,153.89,203.83,150.8,205.54,148.81z"/>
				<path class="st1" d="M207.1,150.13c-1.39,1.64-2.32,4.32-2.32,7.29c0,3,0.95,5.71,2.36,7.34c1.82-1.89,2.94-4.46,2.94-7.29
					C210.07,154.61,208.94,152.03,207.1,150.13z"/>
			</g>
		</g>
		<path class="st1" d="M203.38,75.57c-7.46-1.89-14.55-0.63-19.97,3.53c-10.98,8.45-11.38,26.43-0.88,40.07
			c5.99,7.78,14.25,12.5,22.28,13.55c1.77,0.23,3.52,0.28,5.24,0.14c3.9,0.58,9.07,1.9,12.8,4.93c2.39,1.95,4.74,4.23,6.81,6.4
			l-0.79,0.61l16.15,20.98l6.41-4.93l-16.15-20.98l-0.79,0.61c-1.57-2.56-3.17-5.41-4.44-8.22c-1.98-4.37-1.92-9.73-1.48-13.66
			c3.13-9.02,1.11-20.6-6.19-30.09C217.36,82,210.61,77.4,203.38,75.57z M219.34,91.26c0.73,0.95,1.4,1.92,2.01,2.91l-3.54,2.72
			l-2.44-3.17l3.67-2.83C219.14,91.02,219.24,91.14,219.34,91.26z M225.87,113.97l-2.44-3.17l2.7-2.08l0.14,0.18
			c0.1,1.67,0.05,3.3-0.16,4.87L225.87,113.97z M185.96,116.95c-0.1-0.12-0.18-0.25-0.28-0.37l3.67-2.83l2.44,3.17l-3.54,2.72
			C187.46,118.79,186.69,117.89,185.96,116.95z M202.5,97.81l2.44,3.17l-2.7,2.08l-2.44-3.17L202.5,97.81z M199.42,99.4l-2.44-3.17
			l2.7-2.08l2.44,3.17L199.42,99.4z M202.61,103.54l2.7-2.08l2.44,3.17l-2.7,2.08L202.61,103.54z M204.56,107.09l-2.7,2.08
			l-2.44-3.17l2.7-2.08L204.56,107.09z M201.74,103.43l-2.7,2.08l-2.44-3.17l2.7-2.08L201.74,103.43z M198.55,105.89l-2.7,2.08
			l-2.44-3.17l2.7-2.08L198.55,105.89z M198.93,106.38l2.44,3.17l-2.7,2.08l-2.44-3.17L198.93,106.38z M201.74,110.03l2.44,3.17
			l-2.7,2.08l-2.44-3.17L201.74,110.03z M202.23,109.66l2.7-2.08l2.44,3.17l-2.7,2.08L202.23,109.66z M205.42,107.2l2.7-2.08
			l2.44,3.17l-2.7,2.08L205.42,107.2z M208.61,104.75l2.7-2.08l2.44,3.17l-2.7,2.08L208.61,104.75z M208.24,104.26l-2.44-3.17
			l2.7-2.08l2.44,3.17L208.24,104.26z M205.42,100.6l-2.44-3.17l2.7-2.08l2.44,3.17L205.42,100.6z M202.61,96.94l-2.44-3.17
			l2.7-2.08l2.44,3.17L202.61,96.94z M199.79,93.29l-2.44-3.17l2.7-2.08l2.44,3.17L199.79,93.29z M199.3,93.66l-2.7,2.08l-2.44-3.17
			l2.7-2.08L199.3,93.66z M193.79,92.08l-2.53-3.28l2.72-2.05l2.51,3.26L193.79,92.08z M193.3,92.46l-2.7,2.08l-2.55-3.31l2.72-2.05
			L193.3,92.46z M193.68,92.95l2.44,3.17l-2.7,2.08l-2.44-3.17L193.68,92.95z M196.49,96.61l2.44,3.17l-2.7,2.08l-2.44-3.17
			L196.49,96.61z M195.74,102.23l-2.7,2.08l-2.44-3.17l2.7-2.08L195.74,102.23z M192.55,104.69l-2.7,2.08l-2.44-3.17l2.7-2.08
			L192.55,104.69z M192.92,105.18l2.44,3.17l-2.7,2.08l-2.44-3.17L192.92,105.18z M195.74,108.83l2.44,3.17l-2.7,2.08l-2.44-3.17
			L195.74,108.83z M198.55,112.49l2.44,3.17l-2.7,2.08l-2.44-3.17L198.55,112.49z M201.37,116.15l2.44,3.17l-2.7,2.08l-2.44-3.17
			L201.37,116.15z M201.86,115.77l2.7-2.08l2.44,3.17l-2.7,2.08L201.86,115.77z M205.05,113.31l2.7-2.08l2.44,3.17l-2.7,2.08
			L205.05,113.31z M208.24,110.86l2.7-2.08l2.44,3.17l-2.7,2.08L208.24,110.86z M211.43,108.4l2.7-2.08l2.44,3.17l-2.7,2.08
			L211.43,108.4z M214.62,105.95l2.7-2.08l2.44,3.17l-2.7,2.08L214.62,105.95z M214.24,105.46l-2.44-3.17l2.7-2.08l2.44,3.17
			L214.24,105.46z M211.43,101.8l-2.44-3.17l2.7-2.08l2.44,3.17L211.43,101.8z M208.61,98.14l-2.44-3.17l2.7-2.08l2.44,3.17
			L208.61,98.14z M205.8,94.49l-2.44-3.17l2.7-2.08l2.44,3.17L205.8,94.49z M202.98,90.83l-2.44-3.17l2.7-2.08l2.44,3.17
			L202.98,90.83z M200.17,87.17l-2.48-3.22l2.72-2.05l2.46,3.19L200.17,87.17z M199.68,87.55l-2.7,2.08l-2.5-3.25l2.72-2.05
			L199.68,87.55z M194.1,85.89l-2.56-3.33l2.7-2.08l2.58,3.35L194.1,85.89z M193.61,86.26l-2.72,2.05l-2.54-3.29l2.7-2.08
			L193.61,86.26z M190.39,88.68l-2.72,2.05l-2.51-3.26l2.7-2.08L190.39,88.68z M187.18,91.11l-2.72,2.05l-2.49-3.23l2.7-2.08
			L187.18,91.11z M187.55,91.6l2.55,3.32L187.4,97l-2.57-3.34L187.55,91.6z M190.49,95.41l2.44,3.17l-2.7,2.08l-2.44-3.17
			L190.49,95.41z M189.73,101.03l-2.7,2.08l-2.44-3.17l2.7-2.08L189.73,101.03z M186.54,103.48l-2.7,2.08l-2.44-3.17l2.7-2.08
			L186.54,103.48z M186.92,103.97l2.44,3.17l-2.7,2.08l-2.44-3.17L186.92,103.97z M189.73,107.63l2.44,3.17l-2.7,2.08l-2.44-3.17
			L189.73,107.63z M192.55,111.29l2.44,3.17l-2.7,2.08l-2.44-3.17L192.55,111.29z M195.36,114.95l2.44,3.17l-2.7,2.08l-2.44-3.17
			L195.36,114.95z M198.18,118.6l2.44,3.17l-2.7,2.08l-2.44-3.17L198.18,118.6z M200.99,122.26l2.44,3.17l-2.7,2.08l-2.44-3.17
			L200.99,122.26z M201.48,121.88l2.7-2.08l2.44,3.17l-2.7,2.08L201.48,121.88z M204.67,119.43l2.7-2.08l2.44,3.17l-2.7,2.08
			L204.67,119.43z M207.86,116.97l2.7-2.08l2.44,3.17l-2.7,2.08L207.86,116.97z M211.05,114.51l2.7-2.08l2.44,3.17l-2.7,2.08
			L211.05,114.51z M214.24,112.06l2.7-2.08l2.44,3.17l-2.7,2.08L214.24,112.06z M217.43,109.6l2.7-2.08l2.44,3.17l-2.7,2.08
			L217.43,109.6z M220.62,107.15l2.7-2.08l2.44,3.17l-2.7,2.08L220.62,107.15z M220.25,106.66l-2.44-3.17l2.7-2.08l2.44,3.17
			L220.25,106.66z M217.43,103L215,99.84l2.7-2.08l2.44,3.17L217.43,103z M214.62,99.34l-2.44-3.17l2.7-2.08l2.44,3.17L214.62,99.34
			z M211.8,95.69l-2.44-3.17l2.7-2.08l2.44,3.17L211.8,95.69z M208.99,92.03l-2.44-3.17l2.7-2.08l2.44,3.17L208.99,92.03z
			 M206.18,88.37l-2.44-3.17l2.7-2.08l2.44,3.17L206.18,88.37z M206.93,82.75l1.26-0.97c1.24,0.64,2.46,1.39,3.65,2.23l-2.47,1.9
			L206.93,82.75z M206.55,82.26l-1.42-1.85c0.82,0.31,1.63,0.67,2.44,1.06L206.55,82.26z M206.06,82.64l-2.7,2.08l-2.45-3.19
			l2.33-1.76c0.27,0.08,0.55,0.17,0.82,0.26L206.06,82.64z M200.53,81.04l-1.65-2.15c1.2,0.13,2.41,0.35,3.62,0.67L200.53,81.04z
			 M198.03,78.81l2,2.6l-2.72,2.05l-2.58-3.36l1.74-1.34C196.99,78.76,197.51,78.77,198.03,78.81z M194.35,79.61l-0.51-0.66
			c0.52-0.07,1.04-0.12,1.57-0.15L194.35,79.61z M193.86,79.99l-2.7,2.08l-1.53-1.99c1.13-0.46,2.31-0.79,3.52-1.01L193.86,79.99z
			 M190.67,82.45l-2.7,2.08l-1.88-2.45c0.93-0.69,1.92-1.27,2.96-1.74L190.67,82.45z M187.48,84.9l-2.7,2.08l-1.62-2.11
			c0.72-0.88,1.53-1.69,2.44-2.42L187.48,84.9z M184.29,87.36l-2.7,2.08l-0.71-0.92c0.52-1.12,1.15-2.17,1.88-3.14L184.29,87.36z
			 M181.1,89.81l-1.06,0.81c0.16-0.5,0.35-0.99,0.55-1.47L181.1,89.81z M181.48,90.3l2.48,3.23l-2.72,2.05l-1.71-2.22l-0.22,0.17
			c0.11-0.64,0.25-1.27,0.42-1.89L181.48,90.3z M184.34,94.02l2.58,3.35l-2.7,2.08l-2.6-3.38L184.34,94.02z M183.73,99.83l-2.7,2.08
			l-2.01-2.61c-0.03-0.41-0.04-0.82-0.05-1.22l2.16-1.63L183.73,99.83z M180.54,102.28l-1.02,0.78c-0.18-0.88-0.31-1.76-0.4-2.63
			L180.54,102.28z M180.92,102.77l2.44,3.17l-2.47,1.9c-0.51-1.36-0.92-2.73-1.23-4.1L180.92,102.77z M183.73,106.43l2.44,3.17
			l-3.32,2.56c-0.66-1.22-1.24-2.46-1.73-3.71L183.73,106.43z M186.54,110.09l2.44,3.17l-3.66,2.82c-0.8-1.1-1.52-2.23-2.17-3.37
			L186.54,110.09z M192.17,117.4l2.44,3.17l-2.94,2.26c-1.03-0.84-2.03-1.75-2.99-2.74L192.17,117.4z M194.99,121.06l2.44,3.17
			l-1.78,1.37c-1.18-0.7-2.34-1.49-3.47-2.37L194.99,121.06z M197.8,124.71l2.37,3.08c-1.33-0.51-2.65-1.13-3.95-1.86L197.8,124.71z
			 M206,129.27c-1.57-0.2-3.17-0.57-4.75-1.1l-0.15-0.18l2.7-2.08l2.44,3.17L206,129.27z M204.3,125.54l2.7-2.08l2.44,3.17
			l-2.7,2.08L204.3,125.54z M207.49,123.08l2.7-2.08l2.44,3.17l-2.7,2.08L207.49,123.08z M210.68,120.63l2.7-2.08l2.44,3.17
			l-2.7,2.08L210.68,120.63z M216.19,122.21l3.02,3.92c-0.93,0.69-1.92,1.27-2.96,1.74l-2.76-3.58L216.19,122.21z M216.68,121.83
			l2.7-2.08l2.76,3.58c-0.72,0.88-1.53,1.69-2.44,2.42L216.68,121.83z M216.3,121.34l-2.44-3.17l2.7-2.08l2.44,3.17L216.3,121.34z
			 M217.06,115.72l2.7-2.08l2.44,3.17l-2.7,2.08L217.06,115.72z M220.25,113.26l2.7-2.08l2.44,3.17l-2.7,2.08L220.25,113.26z
			 M223.81,104.69l1.58-1.22c0.37,1.44,0.63,2.88,0.78,4.29L223.81,104.69z M223.44,104.2l-2.44-3.17l2.81-2.17
			c0.56,1.31,1.03,2.64,1.41,3.96L223.44,104.2z M220.62,100.55l-2.44-3.17l3.49-2.69c0.71,1.18,1.34,2.38,1.88,3.59L220.62,100.55z
			 M214.99,93.23l-2.44-3.17l3.39-2.61c0.94,0.92,1.85,1.9,2.71,2.96L214.99,93.23z M212.18,89.58l-2.44-3.17l2.62-2.01
			c1.08,0.8,2.13,1.67,3.14,2.62L212.18,89.58z M179.24,94l1.51,1.96l-1.78,1.34C178.99,96.17,179.08,95.07,179.24,94z
			 M207.26,129.39l-0.15-0.2l2.7-2.08l1.64,2.13C210.09,129.44,208.69,129.49,207.26,129.39z M212.14,129.14l-1.84-2.4l2.7-2.08
			l2.66,3.46C214.54,128.58,213.36,128.92,212.14,129.14z M226.16,134.02c0.25,0.55,0.5,1.09,0.77,1.64
			c-0.46-0.4-0.92-0.79-1.38-1.16c-2.15-1.75-4.65-3.02-7.16-3.94c1.08-0.56,2.12-1.21,3.11-1.96c0.98-0.76,1.88-1.6,2.7-2.5
			C224.43,128.75,225.02,131.49,226.16,134.02z M222.54,122.83l-2.66-3.46l2.7-2.08l1.84,2.4
			C223.89,120.81,223.27,121.86,222.54,122.83z M224.7,119.05l-1.64-2.13l2.7-2.08l0.15,0.2
			C225.64,116.44,225.24,117.78,224.7,119.05z"/>
	</g>
</g>
</svg>
