<?xml version="1.0" encoding="utf-8"?>
<!-- Generator: Adobe Illustrator 25.0.0, SVG Export Plug-In . SVG Version: 6.00 Build 0)  -->
<svg version="1.1" id="レイヤー_1" xmlns="http://www.w3.org/2000/svg" xmlns:xlink="http://www.w3.org/1999/xlink" x="0px"
	 y="0px" viewBox="0 0 426.33 398.42" style="enable-background:new 0 0 426.33 398.42;" xml:space="preserve">
<style type="text/css">
	.st0{fill:#141414;}
	.st1{fill:#FFFFFF;}
</style>
<g>
	<g>
		<rect y="-0.84" class="st0" width="426.33" height="398.42"/>
	</g>
	<g>
		<path class="st1" d="M268.27,74.68H158.05c-0.65,0-1.18,0.53-1.18,1.18v69.18c0,0.65,0.53,1.18,1.18,1.18h45.86v8.08h-20.26
			c-0.65,0-1.18,0.53-1.18,1.18v9.68c0,0.65,0.53,1.18,1.18,1.18h59.03c0.65,0,1.18-0.53,1.18-1.18v-9.68
			c0-0.65-0.53-1.18-1.18-1.18h-20.26v-8.08h45.86c0.65,0,1.18-0.53,1.18-1.18V75.86C269.45,75.21,268.92,74.68,268.27,74.68z
			 M241.49,156.67v7.32h-56.66v-7.32h20.26c0.65,0,1.18-0.53,1.18-1.18v-8.74h13.78v8.74c0,0.65,0.53,1.18,1.18,1.18H241.49z
			 M267.09,143.86H159.24V77.05h107.85V143.86z"/>
		<path class="st1" d="M165.89,138.84h94.54c0.65,0,1.18-0.53,1.18-1.18V89.24c0-0.65-0.53-1.18-1.18-1.18h-94.54
			c-0.65,0-1.18,0.53-1.18,1.18v48.42C164.71,138.31,165.24,138.84,165.89,138.84z M167.08,90.42h92.17v46.06h-92.17V90.42z"/>
		<path class="st1" d="M166.93,84.17c1.08,0,1.96-0.88,1.96-1.96s-0.88-1.96-1.96-1.96s-1.96,0.88-1.96,1.96
			S165.85,84.17,166.93,84.17z"/>
		<path class="st1" d="M172.7,84.17c1.08,0,1.96-0.88,1.96-1.96s-0.88-1.96-1.96-1.96s-1.96,0.88-1.96,1.96
			S171.61,84.17,172.7,84.17z"/>
		<path class="st1" d="M178.46,84.17c1.08,0,1.96-0.88,1.96-1.96s-0.88-1.96-1.96-1.96s-1.96,0.88-1.96,1.96
			C176.5,83.29,177.38,84.17,178.46,84.17z"/>
		<path class="st1" d="M242.17,120.8l1.59,7.58l1.2-2.87l2.96,3.31l1.45-1.29l-3.02-3.38l3.19-0.94L242.17,120.8z M245.22,124.89
			l0.2-0.47l0.49-0.14L245.22,124.89z"/>
		<path class="st1" d="M197.13,109.15c-0.27,0-0.48,0.08-0.64,0.25c-0.16,0.16-0.24,0.37-0.24,0.61s0.08,0.44,0.24,0.61
			c0.16,0.16,0.37,0.25,0.64,0.25c0.26,0,0.48-0.08,0.64-0.25c0.16-0.16,0.24-0.37,0.24-0.61s-0.08-0.44-0.24-0.61
			C197.61,109.23,197.4,109.15,197.13,109.15z"/>
		<path class="st1" d="M197.7,111.4c-0.08-0.06-0.17-0.09-0.28-0.11c-0.11-0.02-0.24-0.03-0.37-0.03c-0.14,0-0.28,0.01-0.41,0.03
			s-0.24,0.04-0.31,0.05v4.3c0,0.19-0.03,0.36-0.09,0.52c-0.06,0.15-0.16,0.28-0.3,0.36l-0.25,0.15c0.01,0.25,0.09,0.46,0.25,0.63
			s0.38,0.25,0.65,0.25c0.21,0,0.4-0.04,0.56-0.13c0.17-0.09,0.31-0.21,0.43-0.36s0.21-0.34,0.27-0.55
			c0.06-0.21,0.09-0.45,0.09-0.72v-3.78c0-0.16-0.02-0.29-0.06-0.38C197.84,111.54,197.78,111.46,197.7,111.4z"/>
		<path class="st1" d="M203.99,111.81c-0.22-0.21-0.48-0.38-0.78-0.49c-0.3-0.12-0.64-0.17-1.01-0.17s-0.71,0.06-1.01,0.17
			s-0.56,0.28-0.78,0.49c-0.22,0.21-0.39,0.47-0.51,0.77c-0.12,0.3-0.18,0.64-0.18,1.01c0,0.38,0.06,0.72,0.18,1.02
			c0.12,0.3,0.29,0.56,0.51,0.77c0.22,0.21,0.48,0.37,0.78,0.49c0.3,0.11,0.64,0.17,1.01,0.17s0.71-0.05,1.01-0.16
			s0.56-0.27,0.78-0.47c0.22-0.21,0.39-0.47,0.51-0.77c0.12-0.31,0.18-0.65,0.18-1.05c0-0.37-0.06-0.7-0.18-1
			C204.37,112.28,204.2,112.02,203.99,111.81z M202.81,114.46c-0.14,0.21-0.35,0.31-0.61,0.31s-0.47-0.1-0.62-0.31
			s-0.22-0.5-0.22-0.89c0-0.38,0.07-0.67,0.22-0.88c0.15-0.21,0.35-0.31,0.62-0.31s0.47,0.1,0.61,0.31c0.15,0.21,0.22,0.5,0.22,0.88
			S202.95,114.26,202.81,114.46z"/>
		<path class="st1" d="M207.25,109.15c-0.27,0-0.48,0.08-0.64,0.25c-0.16,0.16-0.24,0.37-0.24,0.61s0.08,0.44,0.24,0.61
			c0.16,0.16,0.37,0.25,0.64,0.25c0.26,0,0.48-0.08,0.64-0.25c0.16-0.16,0.24-0.37,0.24-0.61s-0.08-0.44-0.24-0.61
			C207.73,109.23,207.51,109.15,207.25,109.15z"/>
		<path class="st1" d="M207.82,111.4c-0.08-0.06-0.17-0.09-0.28-0.11c-0.11-0.02-0.24-0.03-0.37-0.03c-0.14,0-0.28,0.01-0.41,0.03
			c-0.14,0.02-0.24,0.04-0.31,0.05v3.85c0,0.16,0.02,0.29,0.06,0.38c0.04,0.1,0.1,0.17,0.17,0.23c0.08,0.06,0.17,0.09,0.28,0.11
			c0.11,0.02,0.24,0.03,0.37,0.03c0.14,0,0.28-0.01,0.41-0.03c0.14-0.02,0.24-0.04,0.31-0.05V112c0-0.16-0.02-0.29-0.06-0.38
			C207.95,111.54,207.89,111.46,207.82,111.4z"/>
		<path class="st1" d="M212.32,111.14c-0.4,0-0.76,0.05-1.08,0.14c-0.33,0.09-0.6,0.22-0.81,0.37c-0.13,0.09-0.23,0.19-0.3,0.29
			c-0.07,0.11-0.11,0.25-0.11,0.42v2.84c0,0.16,0.02,0.29,0.06,0.38c0.04,0.1,0.1,0.17,0.18,0.23c0.08,0.06,0.17,0.09,0.28,0.11
			c0.11,0.02,0.23,0.03,0.37,0.03s0.29-0.01,0.42-0.03c0.14-0.02,0.23-0.04,0.3-0.06v-3.29c0.09-0.06,0.19-0.11,0.32-0.14
			c0.12-0.03,0.25-0.05,0.37-0.05c0.19,0,0.34,0.05,0.45,0.14s0.17,0.24,0.17,0.43v2.23c0,0.16,0.02,0.29,0.06,0.38
			c0.04,0.1,0.1,0.17,0.18,0.23c0.08,0.06,0.17,0.09,0.28,0.11c0.11,0.02,0.24,0.03,0.37,0.03c0.15,0,0.29-0.01,0.42-0.03
			c0.14-0.02,0.24-0.04,0.3-0.06v-2.97c0-0.56-0.19-0.99-0.58-1.3C213.59,111.3,213.04,111.14,212.32,111.14z"/>
		<path class="st1" d="M217.9,111.4c-0.08-0.06-0.17-0.09-0.28-0.11c-0.11-0.02-0.24-0.03-0.37-0.03c-0.14,0-0.28,0.01-0.41,0.03
			c-0.14,0.02-0.24,0.04-0.31,0.05v3.85c0,0.16,0.02,0.29,0.06,0.38c0.04,0.1,0.1,0.17,0.17,0.23c0.08,0.06,0.17,0.09,0.28,0.11
			c0.11,0.02,0.24,0.03,0.37,0.03c0.14,0,0.28-0.01,0.41-0.03c0.14-0.02,0.24-0.04,0.31-0.05V112c0-0.16-0.02-0.29-0.06-0.38
			C218.04,111.54,217.98,111.46,217.9,111.4z"/>
		<path class="st1" d="M217.33,109.15c-0.27,0-0.48,0.08-0.64,0.25c-0.16,0.16-0.24,0.37-0.24,0.61s0.08,0.44,0.24,0.61
			c0.16,0.16,0.37,0.25,0.64,0.25c0.26,0,0.48-0.08,0.64-0.25c0.16-0.16,0.24-0.37,0.24-0.61s-0.08-0.44-0.24-0.61
			S217.6,109.15,217.33,109.15z"/>
		<path class="st1" d="M222.41,111.14c-0.4,0-0.76,0.05-1.08,0.14c-0.33,0.09-0.6,0.22-0.81,0.37c-0.13,0.09-0.23,0.19-0.3,0.29
			c-0.07,0.11-0.11,0.25-0.11,0.42v2.84c0,0.16,0.02,0.29,0.06,0.38c0.04,0.1,0.1,0.17,0.18,0.23c0.08,0.06,0.17,0.09,0.28,0.11
			c0.11,0.02,0.23,0.03,0.37,0.03s0.29-0.01,0.42-0.03c0.14-0.02,0.23-0.04,0.3-0.06v-3.29c0.09-0.06,0.19-0.11,0.32-0.14
			c0.12-0.03,0.25-0.05,0.37-0.05c0.19,0,0.34,0.05,0.45,0.14s0.17,0.24,0.17,0.43v2.23c0,0.16,0.02,0.29,0.06,0.38
			c0.04,0.1,0.1,0.17,0.18,0.23c0.08,0.06,0.17,0.09,0.28,0.11c0.11,0.02,0.24,0.03,0.37,0.03c0.15,0,0.29-0.01,0.42-0.03
			c0.14-0.02,0.24-0.04,0.3-0.06v-2.97c0-0.56-0.19-0.99-0.58-1.3C223.67,111.3,223.12,111.14,222.41,111.14z"/>
		<path class="st1" d="M230.54,111.63c-0.2-0.15-0.45-0.26-0.74-0.36c-0.29-0.09-0.62-0.14-0.98-0.14c-0.35,0-0.68,0.05-0.98,0.14
			s-0.56,0.23-0.78,0.42c-0.22,0.19-0.39,0.42-0.51,0.71s-0.18,0.62-0.18,1c0,0.39,0.06,0.73,0.18,1.01s0.27,0.52,0.46,0.7
			s0.42,0.31,0.67,0.4c0.26,0.09,0.53,0.13,0.81,0.13c0.37,0,0.69-0.06,0.95-0.17v0.15c0,0.25-0.1,0.44-0.3,0.55
			s-0.47,0.17-0.81,0.17c-0.25,0-0.48-0.03-0.71-0.11c-0.23-0.07-0.44-0.15-0.62-0.26c-0.08,0.06-0.14,0.14-0.2,0.25
			s-0.09,0.24-0.09,0.38c0,0.35,0.16,0.6,0.49,0.75s0.78,0.23,1.35,0.23c0.33,0,0.65-0.04,0.94-0.11c0.29-0.08,0.55-0.19,0.77-0.35
			c0.22-0.16,0.39-0.36,0.52-0.61c0.13-0.24,0.19-0.53,0.19-0.87v-3.31c0-0.17-0.04-0.31-0.11-0.42S230.67,111.72,230.54,111.63z
			 M229.41,114.26c-0.15,0.12-0.36,0.18-0.62,0.18c-0.24,0-0.44-0.08-0.59-0.24c-0.15-0.16-0.23-0.42-0.23-0.79
			c0-0.32,0.08-0.57,0.23-0.74s0.39-0.26,0.7-0.26c0.13,0,0.23,0.01,0.32,0.04s0.15,0.05,0.19,0.08V114.26z"/>
	</g>
	<g>
		<g>
			<path class="st1" d="M137.04,281.39c-0.04,0.63-0.1,1.14-0.14,1.57h1.42v0.9h-1.57c-0.1,0.52-0.23,0.83-0.37,1
				c-0.24,0.32-0.51,0.42-0.88,0.46c-0.34,0.03-0.92,0.02-1.53-0.01c-0.01-0.22-0.11-0.56-0.23-0.78c0.58,0.05,1.08,0.07,1.31,0.07
				c0.21,0,0.32-0.03,0.43-0.18c0.09-0.1,0.17-0.27,0.24-0.56h-4.88c-0.04,0.23-0.08,0.45-0.12,0.65l-1.03-0.08
				c0.18-0.81,0.37-1.91,0.55-3.05h-1.66v-0.92h1.8c0.12-0.83,0.23-1.65,0.31-2.38h6.56c0,0-0.01,0.34-0.02,0.47
				c-0.03,0.7-0.07,1.34-0.1,1.9h1.51v0.92h-1.6V281.39z M131.2,277.2c-0.44,0.67-0.97,1.32-1.62,1.9
				c-0.19-0.22-0.58-0.51-0.85-0.64c1.17-0.93,1.94-2.2,2.35-3.25l1.1,0.2c-0.13,0.29-0.28,0.57-0.44,0.87h6.35v0.91h-6.89V277.2z
				 M131.23,281.39c-0.08,0.54-0.17,1.08-0.25,1.57h1.91c0.07-0.47,0.14-1.01,0.21-1.57H131.23z M131.57,279
				c-0.07,0.47-0.13,0.98-0.2,1.47h1.84c0.05-0.51,0.1-1,0.14-1.47H131.57z M135.87,282.97c0.05-0.42,0.11-0.94,0.17-1.57h-1.99
				c-0.07,0.56-0.13,1.11-0.2,1.57H135.87z M136.1,280.47c0.02-0.44,0.05-0.94,0.08-1.47h-1.87c-0.04,0.47-0.1,0.97-0.15,1.47H136.1
				z"/>
			<path class="st1" d="M150.47,275.94v9.23h-1.09v-0.67h-5.18v0.71h-1.04v-9.27H150.47z M144.2,276.97v2.68h5.18v-2.68H144.2z
				 M149.38,283.46v-2.79h-5.18v2.79H149.38z"/>
			<path class="st1" d="M163.64,276.75c-0.63,1-1.54,1.87-2.62,2.58c1.23,0.62,2.65,1.09,4.13,1.34c-0.23,0.24-0.53,0.67-0.66,0.95
				c-1.6-0.33-3.12-0.91-4.44-1.69c-1.46,0.81-3.12,1.4-4.71,1.75c-0.1-0.26-0.32-0.69-0.51-0.91c1.42-0.29,2.93-0.78,4.28-1.45
				c-0.59-0.42-1.12-0.89-1.61-1.4c-0.53,0.48-1.08,0.91-1.64,1.26c-0.17-0.2-0.54-0.58-0.77-0.76c1.38-0.75,2.71-1.96,3.48-3.29
				l0.97,0.34c-0.18,0.29-0.37,0.58-0.58,0.86h3.8l0.18-0.06L163.64,276.75z M156.72,281.36h6.55v3.96h-1.09v-0.43h-4.42v0.46h-1.03
				L156.72,281.36L156.72,281.36z M157.75,282.28v1.71h4.42v-1.71H157.75z M158.16,277.27c0.51,0.55,1.14,1.07,1.88,1.52
				c0.75-0.46,1.42-0.98,1.94-1.56h-3.78L158.16,277.27z"/>
			<path class="st1" d="M170.46,281.69c0.37-0.17,0.77-0.33,1.14-0.48l0.23,0.9c-1.16,0.56-2.41,1.13-3.39,1.57l-0.4-1.03
				c0.4-0.13,0.9-0.33,1.45-0.56v-3.3h-1.35v-0.97h1.35v-2.44h0.96v2.44h1.22v0.97h-1.22v2.9H170.46z M176.57,284.19
				c0.61,0,0.71-0.27,0.8-1.47c0.23,0.15,0.63,0.32,0.9,0.37c-0.14,1.52-0.45,2.01-1.65,2.01h-2.52c-1.35,0-1.74-0.34-1.74-1.66
				v-3.18l-0.76,0.32l-0.38-0.9l1.14-0.48v-2.92h0.97v2.51l1.23-0.52v-3.03h0.96v2.62l1.2-0.51l0.2-0.15l0.18-0.14l0.71,0.28
				l-0.04,0.18c0,2.05-0.02,3.54-0.09,3.97c-0.05,0.46-0.24,0.7-0.58,0.79c-0.3,0.11-0.74,0.12-1.06,0.12
				c-0.03-0.26-0.12-0.65-0.23-0.87c0.23,0.01,0.53,0.01,0.64,0.01c0.14,0,0.24-0.04,0.29-0.26s0.07-1.24,0.07-2.92l-1.28,0.55v3.95
				h-0.96v-3.54l-1.23,0.53v3.61c0,0.62,0.12,0.74,0.83,0.74L176.57,284.19L176.57,284.19z"/>
			<path class="st1" d="M182.72,277.04c0.8-0.08,2.76-0.26,4.79-0.44c1.18-0.1,2.28-0.17,3.04-0.19v1.11
				c-0.62,0-1.57,0.01-2.15,0.15c-1.46,0.44-2.43,2.01-2.43,3.31c0,2,1.87,2.67,3.69,2.75l-0.4,1.18c-2.16-0.11-4.41-1.27-4.41-3.69
				c0-1.66,0.98-2.99,1.87-3.58c-1.11,0.11-3.67,0.37-4.91,0.64l-0.11-1.2C182.12,277.08,182.5,277.06,182.72,277.04z
				 M189.86,280.26l-0.68,0.31c-0.26-0.56-0.55-1.07-0.88-1.54l0.66-0.29C189.22,279.13,189.63,279.8,189.86,280.26z M191.11,279.77
				l-0.67,0.32c-0.29-0.56-0.57-1.04-0.92-1.52l0.66-0.3C190.44,278.64,190.87,279.3,191.11,279.77z"/>
			<path class="st1" d="M199.71,278.33c1.14-0.7,2.31-1.73,3.06-2.62l0.92,0.88c-0.84,0.85-1.87,1.69-2.96,2.41v4.57
				c0,0.45,0.02,1.06,0.08,1.3h-1.36c0.03-0.24,0.07-0.85,0.07-1.3v-3.83c-1.16,0.63-2.61,1.27-4.06,1.71l-0.54-1.09
				C196.83,279.84,198.48,279.09,199.71,278.33z"/>
			<path class="st1" d="M208.6,280.69c0.52-0.52,1.43-1.68,2.15-2.54c0.62-0.73,1.2-0.85,1.99-0.09c0.69,0.65,1.59,1.6,2.24,2.29
				c0.75,0.79,1.86,1.99,2.71,2.9l-0.96,1.01c-0.77-0.92-1.72-2.06-2.4-2.85c-0.64-0.74-1.64-1.81-2.08-2.24
				c-0.4-0.38-0.62-0.35-0.96,0.08c-0.48,0.59-1.34,1.75-1.83,2.35c-0.23,0.32-0.48,0.67-0.66,0.92l-1.04-1.07
				C208.08,281.21,208.3,281,208.6,280.69z M216,278.68l-0.79,0.35c-0.3-0.63-0.64-1.24-1.01-1.77l0.77-0.33
				C215.25,277.36,215.74,278.17,216,278.68z M217.47,278.07l-0.78,0.37c-0.31-0.63-0.66-1.23-1.06-1.74l0.77-0.35
				C216.7,276.76,217.22,277.56,217.47,278.07z"/>
			<path class="st1" d="M226.23,282.09c1.77-1.09,3.15-2.74,3.82-4.15l0.67,1.2c-0.79,1.43-2.15,2.93-3.86,3.98
				c-1.11,0.68-2.51,1.33-4.21,1.64l-0.74-1.13C223.74,283.35,225.17,282.74,226.23,282.09z M225.85,278.57l-0.87,0.89
				c-0.57-0.58-1.94-1.78-2.75-2.33l0.8-0.86C223.81,276.78,225.24,277.93,225.85,278.57z"/>
			<path class="st1" d="M237.27,277.09c0-0.35-0.03-0.86-0.1-1.23h1.35c-0.03,0.36-0.08,0.85-0.08,1.23v1.72
				c1.46,0.44,3.55,1.22,4.65,1.76l-0.5,1.2c-1.16-0.63-2.95-1.32-4.16-1.72v3.4c0,0.34,0.03,1.01,0.09,1.41h-1.35
				c0.05-0.39,0.09-0.98,0.09-1.41L237.27,277.09L237.27,277.09z"/>
			<path class="st1" d="M248.86,279.42v5.91h-1.01v-9.66h4.08v3.75H248.86z M248.86,276.43v0.74h2.11v-0.74H248.86z M250.98,278.68
				v-0.8h-2.11v0.8H250.98z M253.89,282.77v2.37h-0.91v-2.37h-1.33c-0.09,0.74-0.44,1.86-1.44,2.53c-0.14-0.19-0.45-0.46-0.66-0.6
				c0.81-0.5,1.12-1.32,1.21-1.93h-1.25v-0.85h1.29v-1.05h-1.09v-0.81h5.34v0.81h-1.14v1.05h1.36v0.85H253.89z M252.98,281.92v-1.05
				h-1.31v1.05H252.98z M256.95,284.08c0,0.56-0.11,0.86-0.47,1.03c-0.35,0.17-0.9,0.2-1.73,0.19c-0.03-0.27-0.18-0.74-0.33-1.01
				c0.56,0.01,1.12,0.01,1.3,0.01c0.17-0.01,0.22-0.07,0.22-0.23v-4.62h-3.16v-3.77h4.17V284.08z M253.76,276.43v0.74h2.18v-0.74
				H253.76z M255.94,278.7v-0.83h-2.18v0.83H255.94z"/>
			<path class="st1" d="M263.85,275.56c-0.3,0.78-0.67,1.57-1.09,2.32v7.43h-0.97v-5.91c-0.31,0.42-0.63,0.8-0.95,1.14
				c-0.1-0.24-0.4-0.79-0.56-1.03c1.03-1.02,2.01-2.63,2.61-4.24L263.85,275.56z M270.57,284.86h-5.2v0.44h-0.98v-4.63
				c-0.25,0.31-0.51,0.58-0.77,0.81c-0.17-0.18-0.54-0.54-0.77-0.7c0.84-0.68,1.63-1.74,2.08-2.84h-0.8v-2.28h0.93v1.41h1.56v-1.76
				h1.01v1.76h1.66v-1.41h0.99v2.28h-5.31l0.92,0.26c-0.14,0.33-0.31,0.67-0.5,0.99h1.71c0.17-0.4,0.32-0.86,0.4-1.2l1.06,0.24
				c-0.15,0.32-0.31,0.66-0.47,0.96h2.37v0.8h-2.42v0.83h2.1v0.76h-2.1v0.85h2.1v0.76h-2.1v0.86h2.53V284.86z M267.05,280h-1.68
				v0.83h1.68V280z M267.05,281.58h-1.68v0.85h1.68V281.58z M265.36,284.04h1.68v-0.86h-1.68V284.04z"/>
			<path class="st1" d="M283.21,277.16v5.26h-1.07v-0.59h-2.86v3.5h-1.07v-3.5h-2.85v0.65h-1.02v-5.31h3.87v-1.92h1.07v1.92h3.93
				V277.16z M278.21,280.82v-2.66h-2.85v2.66H278.21z M282.14,280.82v-2.66h-2.86v2.66H282.14z"/>
			<path class="st1" d="M291.15,283.7c0-0.5,0.36-0.84,0.83-0.84s0.83,0.34,0.83,0.84s-0.36,0.84-0.83,0.84
				S291.15,284.2,291.15,283.7z M291.27,277.69l-0.03-1.45h1.47l-0.03,1.45l-0.25,4.05h-0.9L291.27,277.69z"/>
			<path class="st1" d="M124.29,294.7v8.6h-1.08v-0.55h-5.57v0.59h-1.02v-8.65h2.77c0.15-0.47,0.29-1.04,0.36-1.47l1.22,0.14
				c-0.18,0.46-0.35,0.94-0.54,1.33L124.29,294.7L124.29,294.7z M117.64,295.67v1.41h5.57v-1.41H117.64z M117.64,298.03v1.41h5.57
				v-1.41H117.64z M123.21,301.8v-1.42h-5.57v1.42H123.21z"/>
			<path class="st1" d="M135.52,293.4c0.7,1.43,2.09,3.05,3.28,3.93c-0.26,0.22-0.66,0.63-0.86,0.91c-0.3-0.25-0.62-0.56-0.92-0.9
				c0,0.1,0,0.33-0.01,0.43c-0.14,3.33-0.3,4.61-0.67,5.04c-0.25,0.32-0.51,0.4-0.9,0.45c-0.37,0.04-1.04,0.03-1.71,0
				c-0.01-0.31-0.15-0.74-0.34-1.03c0.67,0.07,1.3,0.08,1.55,0.08c0.22,0,0.35-0.03,0.47-0.15c0.25-0.26,0.4-1.3,0.51-3.85h-2.54
				c-0.27,2.13-0.98,4.06-3.81,5.09c-0.11-0.26-0.42-0.7-0.65-0.91c2.53-0.84,3.11-2.44,3.34-4.18h-2.06v-0.85
				c-0.32,0.33-0.66,0.63-1,0.89c-0.19-0.22-0.63-0.63-0.87-0.81c1.36-0.92,2.57-2.43,3.26-4.1l1.09,0.32
				c-0.57,1.33-1.4,2.56-2.33,3.55h6.62c-0.91-1-1.82-2.28-2.44-3.5L135.52,293.4z"/>
			<path class="st1" d="M147.2,302.88l-0.65-1.03c0.37-0.03,0.7-0.09,0.98-0.15c1.41-0.32,2.66-1.35,2.66-3.12
				c0-1.6-0.97-2.86-2.66-3.07c-0.15,0.99-0.34,2.06-0.66,3.09c-0.66,2.25-1.57,3.49-2.66,3.49c-1.09,0-2.09-1.21-2.09-3.05
				c0-2.46,2.16-4.58,4.92-4.58c2.64,0,4.31,1.85,4.31,4.15C151.35,300.91,149.88,302.5,147.2,302.88z M144.24,300.77
				c0.5,0,1.01-0.71,1.52-2.41c0.28-0.87,0.47-1.87,0.61-2.84c-1.98,0.32-3.14,2.04-3.14,3.4
				C143.23,300.19,143.77,300.77,144.24,300.77z"/>
			<path class="st1" d="M156.9,301.46v-6.15c0-0.35-0.04-0.86-0.1-1.11h1.36c-0.05,0.34-0.09,0.74-0.09,1.1v6.02
				c1.97-0.53,4.47-1.96,5.85-3.7l0.63,0.97c-1.46,1.79-3.74,3.12-6.41,3.95c-0.13,0.04-0.34,0.1-0.55,0.23l-0.81-0.69
				C156.89,301.86,156.9,301.69,156.9,301.46z"/>
			<path class="st1" d="M169,298.69c0.52-0.52,1.43-1.68,2.15-2.54c0.62-0.73,1.2-0.85,1.99-0.09c0.69,0.65,1.6,1.6,2.24,2.29
				c0.75,0.79,1.86,1.99,2.71,2.9l-0.96,1.01c-0.77-0.92-1.72-2.06-2.4-2.85c-0.64-0.74-1.64-1.81-2.08-2.24
				c-0.4-0.38-0.62-0.35-0.96,0.08c-0.48,0.59-1.34,1.75-1.83,2.35c-0.23,0.32-0.48,0.67-0.66,0.92l-1.04-1.07
				C168.48,299.21,168.7,299,169,298.69z M176.4,296.68l-0.79,0.35c-0.3-0.63-0.64-1.24-1.01-1.77l0.77-0.33
				C175.65,295.36,176.14,296.17,176.4,296.68z M177.87,296.07l-0.78,0.37c-0.31-0.63-0.66-1.23-1.06-1.74l0.77-0.35
				C177.1,294.76,177.62,295.56,177.87,296.07z"/>
			<path class="st1" d="M183.37,299.45c0.32-0.98,0.32-3.12,0.32-4.39c0-0.37-0.02-0.64-0.09-0.89h1.28
				c-0.01,0.09-0.05,0.5-0.05,0.88c0,1.25-0.04,3.6-0.34,4.7c-0.33,1.21-1.02,2.29-1.96,3.08l-1.06-0.7
				C182.42,301.46,183.05,300.46,183.37,299.45z M186.62,301.53v-6.51c0-0.45-0.07-0.81-0.07-0.88h1.28
				c-0.01,0.07-0.05,0.43-0.05,0.88v6.08c0.96-0.43,2.2-1.36,2.99-2.53l0.67,0.95c-0.93,1.24-2.49,2.4-3.75,3.04
				c-0.2,0.11-0.33,0.21-0.42,0.28l-0.73-0.61C186.58,302.03,186.62,301.78,186.62,301.53z"/>
			<path class="st1" d="M197.16,295.21c0.19,0.35,0.38,0.75,0.59,1.17c1.32-0.58,2.74-1.14,3.88-1.14c1.6,0,2.57,0.95,2.57,2.18
				c0,1.39-0.92,2.35-2.62,2.35c-0.62,0-1.25-0.15-1.67-0.31l0.03-1.1c0.45,0.21,1,0.37,1.54,0.37c1.04,0,1.58-0.57,1.58-1.36
				c0-0.62-0.51-1.14-1.47-1.14c-0.91,0-2.2,0.5-3.43,1.06c0.13,0.28,0.25,0.55,0.37,0.81c0.56,1.3,1.32,3.46,1.69,4.7l-1.2,0.31
				c-0.34-1.34-0.88-3.15-1.49-4.53c-0.12-0.28-0.24-0.55-0.36-0.83c-0.83,0.41-1.56,0.79-2.05,1.01l-0.53-1.11
				c0.37-0.1,0.8-0.24,0.99-0.33c0.36-0.14,0.75-0.31,1.17-0.5c-0.2-0.41-0.39-0.78-0.56-1.09c-0.14-0.24-0.4-0.62-0.58-0.86
				l1.12-0.45C196.85,294.61,197.05,295.01,197.16,295.21z M198.44,294.02l0.8-0.57c0.37,0.3,1.2,1,1.6,1.41l-0.8,0.62
				C199.63,295.06,198.9,294.37,198.44,294.02z"/>
			<path class="st1" d="M215.92,295.63c-0.39,0.9-1.03,2.15-1.8,3.14c1.13,0.97,2.46,2.39,3.15,3.22l-0.97,0.86
				c-0.73-0.99-1.83-2.2-2.92-3.21c-1.18,1.25-2.66,2.43-4.24,3.17l-0.89-0.93c1.78-0.68,3.43-2,4.52-3.22
				c0.75-0.84,1.48-2.05,1.75-2.9h-4.04c-0.43,0-1.02,0.05-1.2,0.07v-1.24c0.22,0.03,0.86,0.08,1.2,0.08h4.09
				c0.41,0,0.77-0.04,0.96-0.11l0.71,0.53C216.16,295.17,216,295.44,215.92,295.63z"/>
			<path class="st1" d="M225.95,294.77c-0.04,0.08-0.08,0.14-0.12,0.22h2.65c0.31,0,0.62-0.04,0.83-0.12l0.89,0.55
				c-0.1,0.19-0.22,0.46-0.3,0.68c-0.31,0.96-0.88,2.2-1.68,3.32c0.46,0.33,0.89,0.66,1.23,0.93l-0.81,0.97
				c-0.31-0.29-0.73-0.63-1.18-0.99c-0.98,1.07-2.29,2.04-4.08,2.72l-1-0.88c1.88-0.57,3.21-1.53,4.16-2.53
				c-0.76-0.55-1.55-1.09-2.19-1.5l0.76-0.78c0.66,0.38,1.43,0.88,2.17,1.39c0.65-0.89,1.17-1.97,1.38-2.77h-3.48
				c-0.73,1-1.73,2.07-2.9,2.88l-0.94-0.73c1.9-1.18,2.99-2.77,3.52-3.75c0.13-0.23,0.33-0.67,0.42-0.99l1.25,0.4
				C226.3,294.12,226.07,294.55,225.95,294.77z"/>
			<path class="st1" d="M239.31,296.33c1.14-0.7,2.31-1.73,3.06-2.62l0.92,0.88c-0.84,0.85-1.87,1.69-2.96,2.41v4.57
				c0,0.45,0.02,1.06,0.08,1.3h-1.36c0.03-0.24,0.07-0.85,0.07-1.3v-3.83c-1.15,0.63-2.61,1.27-4.06,1.71l-0.54-1.09
				C236.43,297.84,238.08,297.09,239.31,296.33z"/>
			<path class="st1" d="M249.37,299.45c0.32-0.98,0.32-3.12,0.32-4.39c0-0.37-0.02-0.64-0.09-0.89h1.28
				c-0.01,0.09-0.05,0.5-0.05,0.88c0,1.25-0.04,3.6-0.34,4.7c-0.33,1.21-1.02,2.29-1.96,3.08l-1.06-0.7
				C248.42,301.46,249.05,300.46,249.37,299.45z M252.62,301.53v-6.51c0-0.45-0.07-0.81-0.07-0.88h1.28
				c-0.01,0.07-0.05,0.43-0.05,0.88v6.08c0.96-0.43,2.2-1.36,2.99-2.53l0.67,0.95c-0.93,1.24-2.49,2.4-3.75,3.04
				c-0.2,0.11-0.33,0.21-0.42,0.28l-0.73-0.61C252.58,302.03,252.62,301.78,252.62,301.53z"/>
			<path class="st1" d="M262.9,294.96c-0.19,0.9-0.54,2.97-0.54,4.15c0,0.38,0.02,0.77,0.07,1.18c0.19-0.45,0.41-0.99,0.58-1.4
				l0.55,0.44c-0.29,0.84-0.67,2.01-0.78,2.56c-0.03,0.15-0.07,0.38-0.06,0.51c0,0.11,0.01,0.28,0.02,0.41l-1,0.07
				c-0.22-0.77-0.41-2.07-0.41-3.55c0-1.64,0.35-3.51,0.47-4.39c0.04-0.28,0.09-0.62,0.1-0.91l1.22,0.11
				C263.05,294.32,262.94,294.76,262.9,294.96z M265.53,300.47c0,0.5,0.38,0.9,1.72,0.9c0.99,0,1.82-0.09,2.74-0.3l0.02,1.18
				c-0.69,0.13-1.61,0.22-2.78,0.22c-1.87,0-2.73-0.65-2.73-1.72c0-0.4,0.05-0.81,0.19-1.35l0.99,0.09
				C265.57,299.88,265.53,300.17,265.53,300.47z M269.67,294.92v1.12c-1.25,0.12-3.33,0.13-4.61,0l-0.01-1.12
				C266.31,295.11,268.52,295.07,269.67,294.92z"/>
			<path class="st1" d="M278.44,294.22c-0.04,0.21-0.09,0.46-0.13,0.73c1.38-0.06,2.64-0.2,3.81-0.47l0.01,1.02
				c-1.11,0.2-2.59,0.34-3.94,0.41c-0.03,0.37-0.07,0.78-0.1,1.19c0.58-0.15,1.21-0.24,1.76-0.24c0.11,0,0.22,0,0.32,0.01
				c0.06-0.2,0.11-0.53,0.13-0.71l1.08,0.26c-0.07,0.14-0.15,0.42-0.23,0.62c1.33,0.4,2.17,1.4,2.17,2.64c0,1.57-0.98,3-3.6,3.41
				l-0.59-0.91c2.05-0.23,3.12-1.28,3.12-2.54c0-0.77-0.48-1.45-1.4-1.74c-0.61,1.53-1.5,2.73-2.39,3.46
				c0.08,0.31,0.18,0.59,0.26,0.87l-1,0.3c-0.05-0.17-0.11-0.34-0.17-0.54c-0.57,0.32-1.2,0.53-1.79,0.53
				c-0.76,0-1.39-0.46-1.39-1.47c0-1.42,1.21-2.88,2.74-3.6c0.02-0.51,0.07-1.02,0.11-1.5c-0.19,0-0.36,0-0.54,0
				c-0.52,0-1.38-0.05-1.85-0.08l-0.03-1.02c0.38,0.07,1.35,0.14,1.91,0.14c0.2,0,0.41,0,0.61,0c0.02-0.27,0.05-0.52,0.08-0.74
				c0.02-0.2,0.03-0.43,0.03-0.58l1.13,0.03C278.52,293.86,278.48,294.06,278.44,294.22z M276,301.45c0.37,0,0.85-0.17,1.33-0.48
				c-0.14-0.78-0.24-1.67-0.24-2.49c-0.98,0.59-1.67,1.56-1.67,2.35C275.42,301.24,275.6,301.45,276,301.45z M278.22,300.24
				c0.64-0.63,1.23-1.43,1.66-2.51h-0.08c-0.67,0-1.27,0.13-1.75,0.31c0,0.09,0,0.18,0,0.26
				C278.06,299.01,278.12,299.65,278.22,300.24z"/>
			<path class="st1" d="M289.25,297.68c0.76-0.24,2.6-0.88,3.91-0.88c1.64,0,2.78,0.97,2.78,2.54c0,2.07-1.91,3.27-5.1,3.46
				l-0.46-1.07c2.44-0.08,4.43-0.75,4.43-2.41c0-0.89-0.69-1.53-1.74-1.53c-1.33,0-3.64,0.96-4.44,1.3l-0.46-1.14
				C288.47,297.9,288.9,297.78,289.25,297.68z"/>
			<path class="st1" d="M304.48,294.7c-0.03,0.19-0.08,0.41-0.13,0.65c0.67-0.1,1.35-0.22,1.99-0.38v1.09
				c-0.69,0.17-1.46,0.29-2.21,0.37c-0.11,0.47-0.23,0.98-0.35,1.44c-0.4,1.55-1.14,3.82-1.74,5.06l-1.2-0.41
				c0.65-1.12,1.45-3.39,1.87-4.93c0.09-0.34,0.18-0.7,0.26-1.07c-0.32,0.01-0.62,0.02-0.89,0.02c-0.51,0-0.91-0.01-1.31-0.04
				l-0.02-1.08c0.54,0.07,0.92,0.09,1.34,0.09c0.34,0,0.71-0.01,1.1-0.04c0.06-0.33,0.11-0.62,0.13-0.83
				c0.06-0.34,0.07-0.75,0.04-0.99l1.32,0.1C304.62,294.02,304.52,294.48,304.48,294.7z M305.8,300.77c0,0.5,0.3,0.95,1.71,0.95
				c0.73,0,1.47-0.09,2.2-0.22l-0.03,1.11c-0.61,0.08-1.34,0.15-2.18,0.15c-1.79,0-2.76-0.58-2.76-1.67c0-0.46,0.09-0.92,0.19-1.38
				l1.02,0.1C305.86,300.15,305.8,300.49,305.8,300.77z M307.62,297c0.64,0,1.3,0.02,1.93,0.09l-0.03,1.06
				c-0.56-0.08-1.21-0.14-1.87-0.14c-0.72,0-1.39,0.04-2.08,0.12v-1.02C306.15,297.04,306.91,297,307.62,297z"/>
			<path class="st1" d="M133.71,314.33c1.14-0.7,2.31-1.73,3.06-2.62l0.92,0.88c-0.84,0.85-1.87,1.69-2.96,2.41v4.57
				c0,0.45,0.02,1.06,0.08,1.3h-1.36c0.03-0.24,0.07-0.85,0.07-1.3v-3.83c-1.16,0.63-2.61,1.27-4.06,1.71l-0.54-1.09
				C130.83,315.84,132.48,315.09,133.71,314.33z"/>
			<path class="st1" d="M142.6,316.69c0.52-0.52,1.43-1.68,2.15-2.54c0.62-0.73,1.2-0.85,1.99-0.09c0.69,0.65,1.59,1.6,2.24,2.29
				c0.75,0.79,1.86,1.99,2.71,2.9l-0.96,1.01c-0.77-0.92-1.72-2.06-2.4-2.85c-0.64-0.74-1.64-1.81-2.08-2.24
				c-0.4-0.38-0.62-0.35-0.96,0.08c-0.48,0.59-1.34,1.75-1.83,2.35c-0.23,0.32-0.48,0.67-0.66,0.92l-1.04-1.07
				C142.08,317.21,142.3,317,142.6,316.69z M150,314.68l-0.79,0.35c-0.3-0.63-0.64-1.24-1.01-1.77l0.77-0.33
				C149.25,313.36,149.74,314.17,150,314.68z M151.47,314.07l-0.78,0.37c-0.31-0.63-0.66-1.23-1.06-1.74l0.77-0.35
				C150.7,312.76,151.22,313.56,151.47,314.07z"/>
			<path class="st1" d="M160.23,318.09c1.77-1.09,3.15-2.74,3.82-4.15l0.67,1.2c-0.79,1.43-2.15,2.93-3.86,3.98
				c-1.11,0.68-2.51,1.33-4.21,1.64l-0.74-1.13C157.74,319.35,159.17,318.74,160.23,318.09z M159.85,314.57l-0.87,0.89
				c-0.57-0.58-1.94-1.78-2.75-2.33l0.8-0.86C157.81,312.78,159.24,313.93,159.85,314.57z"/>
			<path class="st1" d="M171.27,313.09c0-0.35-0.03-0.86-0.1-1.23h1.35c-0.03,0.36-0.08,0.85-0.08,1.23v1.72
				c1.46,0.44,3.55,1.22,4.65,1.76l-0.5,1.2c-1.16-0.63-2.95-1.32-4.16-1.72v3.4c0,0.34,0.03,1.01,0.09,1.41h-1.35
				c0.05-0.39,0.09-0.98,0.09-1.41L171.27,313.09L171.27,313.09z"/>
			<path class="st1" d="M185.53,312.65c-0.07,0.34-0.17,0.87-0.26,1.39c0.45-0.04,0.86-0.07,1.11-0.07c1.06,0,1.87,0.43,1.87,1.97
				c0,1.3-0.17,3.07-0.63,3.99c-0.36,0.76-0.94,0.97-1.69,0.97c-0.43,0-0.95-0.08-1.31-0.17l-0.19-1.14
				c0.45,0.13,1.04,0.22,1.35,0.22c0.39,0,0.69-0.1,0.9-0.52c0.33-0.69,0.48-2.09,0.48-3.23c0-0.95-0.43-1.11-1.12-1.11
				c-0.23,0-0.59,0.02-1,0.07c-0.41,1.62-1.19,4.16-2.28,5.92l-1.13-0.45c1.1-1.49,1.89-3.86,2.28-5.36
				c-0.5,0.05-0.95,0.11-1.2,0.14c-0.28,0.03-0.79,0.1-1.09,0.15l-0.11-1.19c0.36,0.02,0.69,0.01,1.07,0
				c0.35-0.01,0.95-0.06,1.56-0.11c0.17-0.81,0.26-1.65,0.26-2.37l1.29,0.13C185.64,312.12,185.58,312.41,185.53,312.65z
				 M190.34,313.04l-0.7,0.3c0.67,0.99,1.5,2.77,1.82,3.72l-1.09,0.52c-0.31-1.18-1.14-3.1-1.91-4.03l1.02-0.45
				c0.01,0.02,0.03,0.04,0.04,0.07c-0.21-0.43-0.52-0.98-0.78-1.34l0.71-0.3C189.73,311.92,190.12,312.61,190.34,313.04z
				 M191.62,312.55l-0.71,0.32c-0.24-0.47-0.59-1.1-0.91-1.52l0.71-0.3C190.99,311.46,191.41,312.16,191.62,312.55z"/>
			<path class="st1" d="M199.14,311.73l1.18-0.13c0.04,0.41,0.13,0.83,0.23,1.24c0.77-0.1,1.52-0.26,2.22-0.5l0.14,1
				c-0.62,0.18-1.36,0.33-2.11,0.43c0.08,0.23,0.14,0.45,0.22,0.65c0.07,0.19,0.14,0.38,0.22,0.59c0.9-0.11,1.63-0.3,2.16-0.46
				l0.18,1.03c-0.53,0.13-1.18,0.26-1.9,0.36c0.21,0.43,0.44,0.84,0.68,1.2c0.13,0.2,0.27,0.35,0.45,0.52l-0.55,0.81
				c-0.62-0.14-1.72-0.26-2.49-0.34l0.09-0.84c0.53,0.05,1.19,0.12,1.53,0.15c-0.29-0.45-0.54-0.92-0.75-1.39
				c-1.34,0.11-3.13,0.11-4.82,0l-0.05-1.02c1.65,0.17,3.22,0.17,4.47,0.07c-0.07-0.17-0.13-0.33-0.19-0.48
				c-0.1-0.29-0.18-0.54-0.25-0.77c-1.06,0.05-2.38,0.04-3.75-0.09l-0.07-1c1.31,0.14,2.51,0.2,3.54,0.14
				c-0.01-0.03-0.02-0.07-0.03-0.1C199.39,312.46,199.28,312.09,199.14,311.73z M197.12,318.72c0,0.87,0.79,1.28,2.4,1.28
				c1.03,0,1.89-0.08,2.68-0.24l-0.05,1.11c-0.77,0.12-1.69,0.2-2.62,0.2c-2.18,0-3.46-0.65-3.48-2.13
				c-0.01-0.66,0.21-1.16,0.46-1.65l1.08,0.21C197.33,317.87,197.12,318.25,197.12,318.72z"/>
			<path class="st1" d="M210.05,315.68c0.76-0.24,2.6-0.88,3.91-0.88c1.64,0,2.78,0.97,2.78,2.54c0,2.07-1.91,3.27-5.1,3.46
				l-0.46-1.07c2.44-0.08,4.43-0.75,4.43-2.41c0-0.89-0.69-1.53-1.74-1.53c-1.33,0-3.64,0.96-4.44,1.3l-0.46-1.14
				C209.27,315.9,209.7,315.78,210.05,315.68z"/>
			<path class="st1" d="M225.4,314.98c0.97-0.58,2.06-1.12,2.63-1.44c0.36-0.21,0.63-0.37,0.88-0.58l0.61,1
				c-0.29,0.18-0.59,0.34-0.95,0.52c-0.73,0.37-2.19,1.06-3.23,1.74c-0.97,0.64-1.58,1.33-1.58,2.13c0,0.86,0.83,1.36,2.46,1.36
				c1.18,0,2.65-0.17,3.55-0.4l-0.01,1.25c-0.87,0.15-2.1,0.26-3.5,0.26c-2.12,0-3.69-0.61-3.69-2.37c0-1.17,0.75-2.07,1.87-2.86
				c-0.51-0.92-1.06-2.17-1.57-3.34l1.09-0.45C224.4,313,224.94,314.13,225.4,314.98z"/>
			<path class="st1" d="M242.76,320.26c0.43,0,0.5-0.18,0.54-1.51c0.22,0.19,0.67,0.34,0.96,0.42c-0.12,1.65-0.41,2.06-1.4,2.06
				h-1.63c-1.16,0-1.44-0.31-1.44-1.34v-1.99h-1.58c-0.25,1.75-0.94,2.87-3.51,3.46c-0.1-0.26-0.37-0.69-0.58-0.9
				c2.25-0.44,2.79-1.24,3-2.55h-1.42v-6.3h7v6.3h-1.86v1.99c0,0.33,0.08,0.37,0.52,0.37h1.4V320.26z M236.69,313.43h4.97v-0.92
				h-4.97V313.43z M236.69,315.2h4.97v-0.94h-4.97V315.2z M236.69,317h4.97v-0.95h-4.97V317z"/>
			<path class="st1" d="M248.86,314.27c0.89-0.27,3.08-1.07,4.7-1.07c1.89,0,3.39,1.09,3.39,3.01c0,2.58-2.52,3.99-6.12,4.18
				l-0.5-1.14c2.92-0.08,5.39-0.95,5.39-3.05c0-1.11-0.79-1.97-2.21-1.97c-1.73,0-4.43,1.17-5.43,1.58l-0.5-1.23
				C247.98,314.52,248.45,314.39,248.86,314.27z"/>
			<path class="st1" d="M264.85,312.6c-0.07,0.34-0.17,0.87-0.26,1.39c0.45-0.04,0.85-0.07,1.1-0.07c1.07,0,1.87,0.43,1.87,1.97
				c0,1.3-0.17,3.07-0.63,3.99c-0.35,0.76-0.92,0.96-1.69,0.96c-0.42,0-0.95-0.07-1.31-0.15l-0.18-1.14
				c0.44,0.13,1.05,0.22,1.34,0.22c0.4,0,0.7-0.1,0.9-0.53c0.33-0.68,0.5-2.08,0.5-3.22c0-0.95-0.43-1.11-1.12-1.11
				c-0.23,0-0.59,0.02-1.01,0.07c-0.41,1.62-1.19,4.16-2.28,5.92l-1.13-0.45c1.1-1.49,1.89-3.86,2.29-5.36
				c-0.51,0.05-0.96,0.11-1.21,0.14c-0.28,0.03-0.78,0.1-1.09,0.15l-0.11-1.19c0.37,0.02,0.69,0.01,1.07,0
				c0.35-0.01,0.95-0.05,1.57-0.11c0.15-0.81,0.26-1.65,0.25-2.37l1.29,0.13C264.95,312.07,264.89,312.35,264.85,312.6z
				 M270.77,316.95l-1.09,0.51c-0.31-1.17-1.13-3.13-1.9-4.07l1.02-0.44C269.48,313.86,270.41,315.92,270.77,316.95z"/>
			<path class="st1" d="M276.68,312.28c0.57,0,3.08-0.07,3.67-0.12c0.38-0.03,0.58-0.05,0.7-0.1l0.6,0.79
				c-0.23,0.14-0.46,0.3-0.69,0.47c-0.56,0.42-1.92,1.56-2.7,2.2c0.44-0.13,0.88-0.19,1.32-0.19c1.84,0,3.2,1.13,3.2,2.67
				c0,1.75-1.4,3-3.87,3c-1.52,0-2.53-0.67-2.53-1.67c0-0.81,0.73-1.55,1.82-1.55c1.36,0,2.15,0.88,2.29,1.93
				c0.76-0.33,1.17-0.92,1.17-1.73c0-1.03-1.01-1.78-2.39-1.78c-1.76,0-2.79,0.83-4.09,2.21l-0.8-0.81c0.86-0.7,2.23-1.86,2.88-2.4
				c0.62-0.51,1.89-1.56,2.44-2.05c-0.58,0.02-2.49,0.11-3.06,0.14c-0.27,0.01-0.56,0.03-0.81,0.07l-0.03-1.13
				C276.08,312.27,276.42,312.28,276.68,312.28z M278.73,320.02c0.27,0,0.54-0.01,0.78-0.04c-0.09-0.8-0.57-1.36-1.3-1.36
				c-0.46,0-0.8,0.3-0.8,0.63C277.41,319.73,277.95,320.02,278.73,320.02z"/>
			<path class="st1" d="M291.15,319.7c0-0.5,0.36-0.84,0.83-0.84s0.83,0.34,0.83,0.84s-0.36,0.84-0.83,0.84
				S291.15,320.2,291.15,319.7z M291.27,313.69l-0.03-1.45h1.47l-0.03,1.45l-0.25,4.05h-0.9L291.27,313.69z"/>
		</g>
	</g>
	<g>
		<g>
			<path class="st1" d="M107.35,207.37c0,1.39,0,2.75,0.13,4.16c0.25,2.75,0.67,4.68,1.89,4.68c0.97,0,1.7-2.62,2.02-4.05l2.56,3.15
				c-1.47,3.72-2.81,5.02-4.64,5.02c-2.5,0-4.56-2.12-5.14-7.85c-0.21-1.99-0.23-4.41-0.23-5.73c0-0.63-0.04-1.53-0.19-2.27
				l3.91,0.04C107.47,205.4,107.35,206.76,107.35,207.37z M121.82,216.04l-3.38,1.3c-0.29-3.17-1.32-8.69-3.78-11.38l3.25-1.05
				C119.97,207.33,121.64,213.02,121.82,216.04z"/>
			<path class="st1" d="M133.19,203.67c1.13,0,5.75-0.04,7.16-0.13c0.55-0.04,1.26-0.15,1.7-0.25l1.64,2.2
				c-0.46,0.23-0.97,0.57-1.3,0.78c-1.01,0.67-2.77,2.02-4.62,3.4c0.42-0.08,1.05-0.13,1.41-0.13c3.82,0,6.42,2.31,6.42,5.29
				c0,4.24-3.44,6.82-11.67,6.17l-0.88-3.32c5.79,0.78,9.03-0.27,9.03-2.86c0-1.45-1.41-2.6-3.63-2.6c-3.07,0-5.54,2.21-7.6,4.37
				l-2.35-2.52c2.65-1.99,7.62-6,9.2-7.66c-1.05,0.02-3.4,0.17-4.39,0.23c-0.57,0.04-1.41,0.13-1.89,0.21l-0.06-3.3
				C131.68,203.61,132.4,203.67,133.19,203.67z"/>
			<path class="st1" d="M163.96,205.08c-1.09,1.53-2.31,3.76-3.32,5.52c0.65-0.19,1.32-0.27,2-0.27c1.68,0,2.58,1.05,2.69,2.86
				c0.04,0.76-0.02,2.48,0.1,3.28c0.08,0.69,0.59,0.94,1.16,0.94c1.53,0,2.52-2.06,3.15-4.87l2.77,2.25
				c-1.09,3.74-3.13,6.15-6.47,6.15c-2.37,0-3.65-1.39-3.76-3.07c-0.08-1.07-0.08-2.83-0.15-3.53c-0.06-0.63-0.4-1.01-1.05-1.01
				c-1.28,0-2.25,1.32-2.96,3.04c-0.5,1.22-1.13,3.48-1.47,4.64l-3.61-1.22c1.55-4.18,5.69-12.72,6.8-14.72
				c0.27-0.59,0.74-1.38,1.18-2.41l3.61,1.45C164.4,204.41,164.2,204.77,163.96,205.08z"/>
			<path class="st1" d="M186.82,205.33c0.99-0.19,1.87-0.4,2.58-0.61l0.08,2.92c-0.86,0.23-2.14,0.52-3.57,0.71
				c-0.99,2.96-2.75,6.63-4.45,9.05l-3.07-1.55c1.64-2.06,3.23-5,4.16-7.18c-0.23,0.02-0.44,0.02-0.67,0.02
				c-0.88,0-1.74-0.02-2.71-0.08l-0.23-2.94c0.97,0.11,2.23,0.15,2.92,0.15c0.55,0,1.09-0.02,1.64-0.06
				c0.29-1.13,0.48-2.35,0.53-3.42l3.49,0.34C187.37,203.32,187.1,204.28,186.82,205.33z M192.43,212.18c0.02,0.5,0.06,1.32,0.1,2.2
				c1.83,0.69,3.3,1.76,4.35,2.73l-1.68,2.73c-0.65-0.61-1.51-1.43-2.54-2.14c-0.06,2.02-1.15,3.53-4.26,3.53
				c-2.77,0-4.93-1.3-4.93-3.74c0-2.1,1.66-3.91,4.89-3.91c0.38,0,0.76,0.02,1.11,0.06c-0.08-1.49-0.17-3.23-0.23-4.41h3.19
				C192.35,210.14,192.4,211.15,192.43,212.18z M187.93,218.31c1.26,0,1.64-0.74,1.64-1.91v-0.1c-0.46-0.08-0.92-0.15-1.43-0.15
				c-1.03,0-1.68,0.42-1.68,1.03C186.46,217.85,187.04,218.31,187.93,218.31z M190.52,207.62l1.64-2.52
				c1.51,0.65,4.22,2.1,5.35,2.88l-1.81,2.69C194.44,209.68,191.99,208.27,190.52,207.62z"/>
			<path class="st1" d="M212.77,207.54c2.12-1.3,4.68-3.57,6-5.17l2.75,2.62c-1.57,1.53-3.61,3.17-5.61,4.49v8.27
				c0,1.01,0.04,2.46,0.21,3.04h-4.03c0.08-0.57,0.17-2.04,0.17-3.04v-6.15c-2.12,1.07-4.66,2.14-7.1,2.83l-1.58-3.21
				C207.41,210.27,210.43,208.96,212.77,207.54z"/>
			<path class="st1" d="M230.16,211.76c0.92-0.92,2.46-2.83,3.97-4.64c1.32-1.57,2.71-1.81,4.45-0.17c1.49,1.41,2.98,2.96,4.26,4.35
				c1.41,1.51,3.59,3.84,5.21,5.56l-2.81,3.02c-1.37-1.7-3.09-3.88-4.26-5.29c-1.24-1.49-3.04-3.51-3.74-4.22
				c-0.61-0.61-1.07-0.59-1.6,0.11c-0.73,0.97-2.06,2.9-2.86,4.03c-0.5,0.73-1.03,1.53-1.43,2.14l-3.07-3.17
				C228.96,212.93,229.46,212.45,230.16,211.76z M244.83,208.36l-2.25,0.97c-0.67-1.45-1.09-2.29-1.91-3.44l2.18-0.9
				C243.5,205.92,244.38,207.41,244.83,208.36z M247.77,207.05l-2.18,1.05c-0.73-1.45-1.2-2.22-2.02-3.34l2.16-0.99
				C246.4,204.68,247.32,206.13,247.77,207.05z"/>
			<path class="st1" d="M262.95,214.8c3.78-2.18,6.61-5.44,8.02-8.4l1.97,3.59c-1.68,2.98-4.66,5.9-8.17,7.96
				c-2.14,1.26-4.87,2.35-7.52,2.77l-2.16-3.36C258.17,216.94,260.89,216,262.95,214.8z M263.65,207.94l-2.6,2.67
				c-1.11-1.22-3.76-3.53-5.27-4.6l2.41-2.58C259.65,204.41,262.4,206.59,263.65,207.94z"/>
			<path class="st1" d="M284.48,205.63c0-0.84-0.08-1.93-0.25-2.73h3.97c-0.08,0.8-0.21,1.72-0.21,2.73v2.88
				c2.83,0.82,6.91,2.31,8.67,3.17l-1.45,3.55c-2.12-1.09-5-2.2-7.22-3v5.4c0,0.57,0.13,2.23,0.23,3.17h-3.99
				c0.15-0.9,0.25-2.31,0.25-3.17L284.48,205.63L284.48,205.63z"/>
			<path class="st1" d="M309.28,205.61c-0.23,1.09-1.01,5.54-1.01,7.5c0,0.06,0,0.4,0.02,0.48c0.29-0.59,0.55-1.01,0.82-1.62
				l1.53,1.22c-0.63,1.91-1.28,4.22-1.51,5.4c-0.06,0.32-0.13,0.82-0.13,1.01c0,0.23,0,0.61,0.02,0.94l-2.94,0.19
				c-0.42-1.41-0.84-4.05-0.84-6.91c0-3.21,0.61-6.72,0.82-8.27c0.08-0.63,0.23-1.58,0.25-2.37l3.55,0.29
				C309.68,203.95,309.38,205.23,309.28,205.61z M314.62,215.62c0,0.92,0.88,1.28,2.6,1.28c1.87,0,3.38-0.17,5.29-0.57l0.06,3.44
				c-1.39,0.25-3.04,0.4-5.52,0.4c-3.67,0-5.5-1.36-5.5-3.61c0-0.9,0.13-1.78,0.38-2.88l2.9,0.25
				C314.68,214.61,314.62,215.07,314.62,215.62z M321.92,204.72V208c-2.75,0.23-6.42,0.25-9.24,0l-0.02-3.25
				C315.41,205.08,319.58,204.98,321.92,204.72z"/>
			<path class="st1" d="M155.6,243.54c1.26,1.26,2.9,2.35,4.62,3.02c-0.65,0.57-1.53,1.68-1.97,2.39c-2.42-1.15-4.54-3.13-6.09-5.42
				h-4.05c-0.38,0.59-0.8,1.13-1.22,1.66c1.3-0.34,2.58-0.76,3.36-1.2l2.33,1.13c-1.68,1.09-4.14,1.85-6.19,2.27
				c-0.19-0.25-0.44-0.59-0.73-0.88c-1.11,1.05-2.35,1.95-3.72,2.65c-0.44-0.63-1.57-1.81-2.23-2.35c1.85-0.76,3.42-1.87,4.68-3.28
				h-3.93v-2.54h5.65c0.17-0.34,0.34-0.69,0.48-1.05c-1.89,0.08-3.65,0.15-5.14,0.19l-0.32-2.67l3.65-0.08
				c0.65-1.01,1.26-2.18,1.64-3.15l3.42,0.82c-0.55,0.78-1.11,1.53-1.66,2.23c1.51-0.04,3.09-0.08,4.66-0.13
				c-0.36-0.34-0.71-0.63-1.05-0.92l2.44-1.34c1.64,1.28,3.84,3.19,4.91,4.56l-2.65,1.53c-0.29-0.42-0.69-0.88-1.15-1.41
				c-1.81,0.1-3.65,0.19-5.44,0.25c-0.13,0.4-0.29,0.8-0.46,1.18h10.31v2.54H155.6z M157.13,249.56c-2.83,2.86-7.41,4.01-12.77,4.64
				c-0.27-0.78-0.84-1.83-1.39-2.5c4.77-0.34,9.26-1.24,11.46-3.34L157.13,249.56z M154.44,247.38c-2.08,1.64-5.29,2.69-8.34,3.3
				c-0.34-0.65-0.99-1.55-1.6-2.14c2.71-0.38,5.94-1.18,7.54-2.31L154.44,247.38z"/>
			<path class="st1" d="M175.47,237.89c0,0,0,0.96-0.02,1.34c-0.19,8.78-0.34,12.11-1.01,13.12c-0.55,0.8-1.03,1.07-1.76,1.24
				c-0.65,0.17-1.57,0.17-2.56,0.15c-0.04-0.84-0.36-2.1-0.82-2.96c-0.5,1.26-1.16,2.39-2,3.4c-0.46-0.76-1.47-1.81-2.23-2.29
				c2.23-2.62,2.75-6.3,2.88-11.02h-2.18v-2.98H168v-3.34h3c0,1.16,0,2.27-0.02,3.34L175.47,237.89L175.47,237.89z M170.91,240.87
				c-0.15,3.8-0.52,7.1-1.6,9.81c0.74,0.06,1.37,0.08,1.74,0.08c0.31,0,0.5-0.1,0.71-0.42c0.4-0.55,0.55-3,0.69-9.47H170.91z
				 M184.27,236.52v17.01h-3.07v-1.26h-1.93v1.43h-2.92v-17.17L184.27,236.52L184.27,236.52z M181.21,249.33v-9.87h-1.93v9.87
				H181.21z"/>
			<path class="st1" d="M193.47,237.36c1.97-0.17,5.14-0.42,8.99-0.76c2.1-0.17,4.58-0.31,6.11-0.38l0.02,3.28
				c-1.09,0.02-2.88,0.02-4.03,0.25c-2.27,0.5-4.22,2.96-4.22,5.46c0,3.09,2.9,4.3,6.53,4.51l-1.2,3.53
				c-4.68-0.36-8.69-2.9-8.69-7.37c0-2.88,1.53-5.1,2.67-6.13c-1.81,0.19-5.5,0.61-8.02,1.18l-0.32-3.46
				C192.15,237.45,193.08,237.41,193.47,237.36z M207.25,244.08l-1.87,0.82c-0.57-1.22-0.92-1.91-1.6-2.88l1.83-0.76
				C206.14,242.04,206.87,243.3,207.25,244.08z M209.72,242.99l-1.85,0.88c-0.61-1.2-1.01-1.85-1.7-2.79l1.81-0.82
				C208.52,241.02,209.31,242.23,209.72,242.99z"/>
			<path class="st1" d="M226.13,241.39c-0.06-0.19-0.13-0.36-0.19-0.53c-0.13-0.4-0.25-0.73-0.34-1.03
				c-1.97,0.08-4.35,0.04-6.99-0.21l-0.17-2.9c2.46,0.27,4.49,0.38,6.34,0.34c-0.19-0.61-0.4-1.24-0.63-1.91l3.4-0.36
				c0.08,0.74,0.21,1.41,0.34,2.06c1.39-0.17,2.69-0.46,4.03-0.88l0.4,2.9c-1.13,0.31-2.39,0.57-3.72,0.73
				c0.06,0.25,0.15,0.48,0.23,0.74c0.08,0.23,0.19,0.5,0.29,0.8c1.68-0.23,2.88-0.55,3.91-0.84l0.5,3
				c-0.95,0.23-1.97,0.42-3.09,0.59c0.27,0.53,0.57,1.03,0.84,1.45c0.32,0.46,0.61,0.8,1.03,1.2l-1.49,2.29
				c-1.18-0.21-3.63-0.5-5.21-0.67l0.25-2.42c0.74,0.06,1.76,0.15,2.35,0.19c-0.34-0.59-0.63-1.15-0.9-1.72
				c-2.58,0.15-5.94,0.15-9.07-0.04l-0.17-2.98C221.18,241.46,223.85,241.5,226.13,241.39z M221.7,248.55
				c0,1.45,1.43,1.95,3.93,1.95c2,0,3.93-0.17,5.42-0.46l-0.19,3.23c-1.47,0.23-3.55,0.4-5.23,0.4c-4.24,0-7.01-1.26-7.08-4.41
				c-0.04-1.45,0.46-2.56,0.97-3.59l3.15,0.59C222.15,246.94,221.7,247.67,221.7,248.55z"/>
			<path class="st1" d="M246.91,236.02c1.13,0,5.33-0.06,6.57-0.17c1.01-0.08,1.6-0.17,1.87-0.25l1.57,2.25
				c-0.55,0.34-1.09,0.65-1.62,1.03c-1.18,0.8-3.02,2.31-4.18,3.19c0.55-0.11,0.97-0.13,1.47-0.13c3.61,0,6.45,2.31,6.45,5.48
				c0,3.28-2.37,6.15-7.81,6.15c-2.96,0-5.42-1.39-5.42-3.7c0-1.85,1.68-3.57,4.07-3.57c2.56,0,4.2,1.49,4.56,3.49
				c0.84-0.57,1.24-1.39,1.24-2.41c0-1.81-1.85-2.94-4.16-2.94c-3.07,0-5.27,1.85-7.29,4.3l-2.31-2.39c1.34-1.05,3.8-3.13,5.04-4.16
				c1.18-0.97,3.13-2.48,4.14-3.38c-1.05,0.02-3.21,0.1-4.35,0.19c-0.63,0.04-1.39,0.1-1.89,0.19l-0.1-3.3
				C245.43,235.98,246.22,236.02,246.91,236.02z M250.59,250.67c0.34,0,0.65-0.02,0.95-0.04c-0.11-1.15-0.74-1.91-1.62-1.91
				c-0.69,0-1.09,0.42-1.09,0.84C248.83,250.21,249.52,250.67,250.59,250.67z"/>
			<path class="st1" d="M273.92,250.3c0-1.24,0.9-2.1,2.14-2.1s2.14,0.86,2.14,2.1s-0.9,2.14-2.14,2.14
				C274.8,252.44,273.92,251.54,273.92,250.3z M274.14,239.97l-0.13-3.49h4.12l-0.13,3.49l-0.63,6.63h-2.6L274.14,239.97z"/>
		</g>
	</g>
</g>
</svg>
